<svg xmlns="http://www.w3.org/2000/svg" xmlns:xlink="http://www.w3.org/1999/xlink" xml:space="preserve" style="enable-background:new 0 0 150.117 108.746" viewBox="0 0 150.117 108.746"><path d="m18.409 108.459-6.634-17.06H6.634L0 108.459h4.509l1.178-3.245h6.893l1.149 3.245h4.68zm-7.065-6.721H6.979l2.211-6.06 2.154 6.06zm19.587 6.721v-3.762H24.44V91.4h-4.279v17.06h10.77v-.001zm6.72-12.163c.842-.909 2.001-1.364 3.475-1.364 1.991 0 3.657.623 4.998 1.867v-4.395c-1.378-.861-3.141-1.292-5.285-1.292-2.623 0-4.753.818-6.39 2.456-1.637 1.637-2.456 3.758-2.456 6.361 0 2.738.809 4.892 2.427 6.462s3.815 2.355 6.591 2.355c2.546 0 4.471-.431 5.773-1.292v-6.979h-4.193v4.452c-.326.096-.814.144-1.465.144-1.417 0-2.561-.464-3.432-1.393-.872-.929-1.307-2.178-1.307-3.748 0-1.513.421-2.724 1.264-3.634zm20.075 12.45c2.508 0 4.619-.828 6.333-2.484 1.713-1.656 2.57-3.767 2.57-6.333 0-2.565-.857-4.676-2.57-6.333-1.714-1.656-3.825-2.484-6.333-2.484s-4.614.828-6.318 2.484c-1.704 1.657-2.556 3.768-2.556 6.333 0 2.566.852 4.677 2.556 6.333 1.704 1.657 3.81 2.484 6.318 2.484zm0-3.848c-1.302 0-2.375-.46-3.217-1.379-.843-.919-1.264-2.115-1.264-3.59 0-1.474.421-2.671 1.264-3.59.842-.919 1.915-1.379 3.217-1.379 1.321 0 2.398.459 3.231 1.379.833.919 1.25 2.116 1.25 3.59 0 1.475-.417 2.671-1.25 3.59s-1.91 1.379-3.231 1.379zm26.997-13.499h-4.566l-4.337 12.723-4.394-12.723h-4.595l6.347 17.06h5.198l6.347-17.06zm1.751 0v17.06h4.279v-17.06h-4.279zm11.861 17.347c1.933 0 3.513-.445 4.74-1.335 1.225-.89 1.838-2.216 1.838-3.978 0-1.455-.355-2.604-1.063-3.446-.709-.842-1.926-1.494-3.648-1.953-1.016-.268-1.733-.526-2.154-.775s-.632-.622-.632-1.12c0-.421.163-.756.488-1.005.325-.249.803-.373 1.436-.373 1.59 0 3.102.593 4.537 1.78v-4.193c-1.396-.823-2.967-1.235-4.709-1.235-1.724 0-3.141.469-4.251 1.407-1.111.938-1.666 2.23-1.666 3.877 0 1.436.374 2.576 1.12 3.418.747.843 1.991 1.484 3.734 1.924.938.23 1.608.474 2.01.732.402.259.604.627.604 1.106 0 1.015-.805 1.522-2.413 1.522-1.589 0-3.159-.583-4.71-1.752v4.193c1.302.804 2.882 1.206 4.739 1.206zm9.076-17.347v17.06h4.279v-17.06h-4.279zm15.825 17.347c2.508 0 4.618-.828 6.332-2.484 1.714-1.656 2.57-3.767 2.57-6.333 0-2.565-.856-4.676-2.57-6.333-1.714-1.656-3.824-2.484-6.332-2.484-2.509 0-4.615.828-6.318 2.484-1.705 1.657-2.557 3.768-2.557 6.333 0 2.566.852 4.677 2.557 6.333 1.703 1.657 3.809 2.484 6.318 2.484zm0-3.848c-1.303 0-2.375-.46-3.217-1.379-.843-.919-1.264-2.115-1.264-3.59 0-1.474.421-2.671 1.264-3.59.842-.919 1.914-1.379 3.217-1.379 1.32 0 2.397.459 3.23 1.379.833.919 1.249 2.116 1.249 3.59 0 1.475-.416 2.671-1.249 3.59s-1.909 1.379-3.23 1.379zm11.573-13.499v17.06h4.136V98.206l7.122 10.253h4.05v-17.06h-4.136v10.454l-6.864-10.454h-4.308z" style="fill:#b8b8b8"/><defs><path id="a" d="m18.409 108.459-6.634-17.06H6.634L0 108.459h4.509l1.178-3.245h6.893l1.149 3.245h4.68zm-7.065-6.721H6.979l2.211-6.06 2.154 6.06zm19.587 6.721v-3.762H24.44V91.4h-4.279v17.06h10.77v-.001zm6.72-12.163c.842-.909 2.001-1.364 3.475-1.364 1.991 0 3.657.623 4.998 1.867v-4.395c-1.378-.861-3.141-1.292-5.285-1.292-2.623 0-4.753.818-6.39 2.456-1.637 1.637-2.456 3.758-2.456 6.361 0 2.738.809 4.892 2.427 6.462s3.815 2.355 6.591 2.355c2.546 0 4.471-.431 5.773-1.292v-6.979h-4.193v4.452c-.326.096-.814.144-1.465.144-1.417 0-2.561-.464-3.432-1.393-.872-.929-1.307-2.178-1.307-3.748 0-1.513.421-2.724 1.264-3.634zm20.075 12.45c2.508 0 4.619-.828 6.333-2.484 1.713-1.656 2.57-3.767 2.57-6.333 0-2.565-.857-4.676-2.57-6.333-1.714-1.656-3.825-2.484-6.333-2.484s-4.614.828-6.318 2.484c-1.704 1.657-2.556 3.768-2.556 6.333 0 2.566.852 4.677 2.556 6.333 1.704 1.657 3.81 2.484 6.318 2.484zm0-3.848c-1.302 0-2.375-.46-3.217-1.379-.843-.919-1.264-2.115-1.264-3.59 0-1.474.421-2.671 1.264-3.59.842-.919 1.915-1.379 3.217-1.379 1.321 0 2.398.459 3.231 1.379.833.919 1.25 2.116 1.25 3.59 0 1.475-.417 2.671-1.25 3.59s-1.91 1.379-3.231 1.379zm26.997-13.499h-4.566l-4.337 12.723-4.394-12.723h-4.595l6.347 17.06h5.198l6.347-17.06zm1.751 0v17.06h4.279v-17.06h-4.279zm11.861 17.347c1.933 0 3.513-.445 4.74-1.335 1.225-.89 1.838-2.216 1.838-3.978 0-1.455-.355-2.604-1.063-3.446-.709-.842-1.926-1.494-3.648-1.953-1.016-.268-1.733-.526-2.154-.775s-.632-.622-.632-1.12c0-.421.163-.756.488-1.005.325-.249.803-.373 1.436-.373 1.59 0 3.102.593 4.537 1.78v-4.193c-1.396-.823-2.967-1.235-4.709-1.235-1.724 0-3.141.469-4.251 1.407-1.111.938-1.666 2.23-1.666 3.877 0 1.436.374 2.576 1.12 3.418.747.843 1.991 1.484 3.734 1.924.938.23 1.608.474 2.01.732.402.259.604.627.604 1.106 0 1.015-.805 1.522-2.413 1.522-1.589 0-3.159-.583-4.71-1.752v4.193c1.302.804 2.882 1.206 4.739 1.206zm9.076-17.347v17.06h4.279v-17.06h-4.279zm15.825 17.347c2.508 0 4.618-.828 6.332-2.484 1.714-1.656 2.57-3.767 2.57-6.333 0-2.565-.856-4.676-2.57-6.333-1.714-1.656-3.824-2.484-6.332-2.484-2.509 0-4.615.828-6.318 2.484-1.705 1.657-2.557 3.768-2.557 6.333 0 2.566.852 4.677 2.557 6.333 1.703 1.657 3.809 2.484 6.318 2.484zm0-3.848c-1.303 0-2.375-.46-3.217-1.379-.843-.919-1.264-2.115-1.264-3.59 0-1.474.421-2.671 1.264-3.59.842-.919 1.914-1.379 3.217-1.379 1.32 0 2.397.459 3.23 1.379.833.919 1.249 2.116 1.249 3.59 0 1.475-.416 2.671-1.249 3.59s-1.909 1.379-3.23 1.379zm11.573-13.499v17.06h4.136V98.206l7.122 10.253h4.05v-17.06h-4.136v10.454l-6.864-10.454h-4.308z"/></defs><clipPath id="b"><use xlink:href="#a" style="overflow:visible"/></clipPath><path d="M-30.541 62.942h200.25v61.667h-200.25V62.942z" style="clip-path:url(#b);fill:url(#Gradient_2_)"/><defs><path id="c" d="M36.607 58.734c0 .736-.597 1.332-1.332 1.332-.469 0-.862-.257-1.099-.623h-9.007l-2.375 2.375h-3.302c-.237.367-.63.624-1.099.624a1.332 1.332 0 1 1 0-2.664c.469 0 .861.257 1.099.623h2.715l2.375-2.375h5.05l-2.249-2.248h-5.552c-.237.366-.63.623-1.099.623a1.332 1.332 0 1 1 0-2.664c.469 0 .862.257 1.099.623h6.139l3.666 3.666h2.539c.237-.366.63-.623 1.099-.623a1.33 1.33 0 0 1 1.333 1.327v.004zm1.859-10.02c-.469 0-.862.257-1.099.623H23.776c-.237-.366-.63-.623-1.099-.623a1.332 1.332 0 1 0 0 2.664c.469 0 .862-.257 1.099-.623h13.591c.237.366.63.623 1.099.623a1.332 1.332 0 1 0 0-2.664zm3.368-9.169c-.469 0-.862.257-1.099.624H27.327c-.237-.367-.63-.624-1.099-.624a1.332 1.332 0 1 0 0 2.664c.469 0 .861-.257 1.099-.623h6.33l-2.584 2.584h-5.296c-.237-.366-.63-.623-1.099-.623a1.332 1.332 0 1 0 0 2.664c.469 0 .862-.257 1.099-.624h5.882l4.002-4.002h5.074c.237.366.63.623 1.099.623a1.332 1.332 0 0 0 0-2.663zm3.336-9.083c-.469 0-.861.257-1.099.623h-4.743l-3.097 3.096h-6.588c-.237-.366-.63-.623-1.099-.623a1.332 1.332 0 1 0 0 2.664c.469 0 .862-.257 1.099-.623h7.174l3.098-3.097h4.155c.237.367.63.624 1.099.624a1.332 1.332 0 0 0 .001-2.664zm1.421-3.868c-.469 0-.861.257-1.099.623H32.341c-.237-.366-.63-.623-1.099-.623a1.332 1.332 0 0 0 0 2.664c.469 0 .862-.257 1.099-.624h13.15c.237.367.63.624 1.099.624a1.333 1.333 0 0 0 .001-2.664zm3.02-8.222c-.469 0-.862.257-1.099.623l-4.968.001h-8.018c-.237-.367-.63-.624-1.099-.624a1.332 1.332 0 1 0 0 2.664c.469 0 .861-.257 1.099-.623h6.66l-2.53 2.64h-5.701c-.237-.366-.63-.623-1.099-.623a1.332 1.332 0 1 0 0 2.664c.469 0 .862-.257 1.099-.623h6.305l3.89-4.058 4.364-.001c.237.366.63.623 1.099.623a1.332 1.332 0 1 0-.002-2.663zm-11.197-7.635c.469 0 .862-.257 1.099-.624h6.451l3.58-3.579h12.441c.237.366.63.623 1.099.623a1.332 1.332 0 1 0 0-2.664c-.469 0-.862.257-1.099.623h-4.553L52.94.624H42.639C42.402.257 42.009 0 41.54 0a1.332 1.332 0 1 0 0 2.664c.469 0 .861-.257 1.099-.623h9.715l3.075 3.074h-6.471l-3.58 3.579h-5.865c-.237-.366-.63-.623-1.099-.623a1.333 1.333 0 0 0 0 2.666zm-1.597 4.85c.469 0 .862-.257 1.099-.624h27.077c.237.367.63.624 1.099.624a1.332 1.332 0 1 0 0-2.664c-.469 0-.861.257-1.099.623h-3.439l-4.123-4.123h-4.962c-.237-.367-.63-.624-1.099-.624a1.332 1.332 0 1 0 0 2.664c.469 0 .861-.257 1.099-.623h4.376l2.705 2.705H37.915c-.237-.366-.63-.623-1.099-.623a1.332 1.332 0 1 0 .001 2.665zm23.379 4.826 3.647 3.647h4.987c.237.366.63.623 1.099.623a1.332 1.332 0 1 0 0-2.664c-.469 0-.862.257-1.099.623h-4.4l-3.647-3.647H54.21c-.237-.366-.63-.623-1.099-.623a1.332 1.332 0 1 0 0 2.664c.469 0 .862-.257 1.099-.623h5.986zm10.421 8.222c.237.367.63.624 1.099.624a1.332 1.332 0 1 0 0-2.664c-.469 0-.861.257-1.099.623H57.194c-.237-.366-.63-.623-1.099-.623a1.332 1.332 0 1 0 0 2.664c.469 0 .862-.257 1.099-.624h13.423zm-10.893 6.964h13.614c.237.366.63.623 1.099.623a1.332 1.332 0 1 0 0-2.664c-.469 0-.862.257-1.099.623H59.724c-.237-.366-.63-.623-1.099-.623a1.332 1.332 0 1 0 0 2.664c.469.001.861-.256 1.099-.623zm6.626 9.954 3.887 4.002h8.551c.237.366.63.623 1.099.623a1.332 1.332 0 1 0 0-2.664c-.469 0-.861.257-1.099.623h-7.952l-2.51-2.584h8.899c.237.366.63.623 1.099.623a1.332 1.332 0 1 0 0-2.664c-.469 0-.862.257-1.099.624h-2.494L70.77 40.17h-8.872c-.237-.367-.63-.624-1.099-.624a1.332 1.332 0 1 0 0 2.664c.469 0 .861-.257 1.099-.623h8.284l2.545 2.548h-9.389c-.237-.367-.63-.624-1.099-.624a1.332 1.332 0 1 0 0 2.664c.469 0 .861-.257 1.099-.623h3.012v.001zm3.697 10.224 5.197 5.198h7.997c.237.366.63.623 1.099.623a1.332 1.332 0 1 0 0-2.664c-.469 0-.862.257-1.099.623h-7.41l-3.78-3.78h9.168c.237.366.63.623 1.099.623a1.332 1.332 0 1 0 0-2.664c-.469 0-.862.257-1.099.623H67.05c-.237-.367-.63-.623-1.099-.623a1.332 1.332 0 1 0 0 2.664c.469 0 .862-.257 1.099-.623h2.997zm64.686-16.232c-.469 0-.862.257-1.099.624h-2.278l-3.94-3.966h-5.624c-.237-.367-.63-.623-1.099-.623a1.332 1.332 0 1 0 0 2.664c.469 0 .861-.257 1.099-.623h5.034l2.532 2.548h-8.953c-.237-.367-.63-.624-1.099-.624a1.332 1.332 0 1 0 0 2.664c.469 0 .861-.257 1.099-.623h3.482l3.964 3.966h4.294c.237.366.63.623 1.099.623a1.332 1.332 0 1 0 0-2.664c-.469 0-.862.257-1.099.624h-3.707l-2.548-2.548h7.744c.237.366.63.623 1.099.623a1.333 1.333 0 0 0 0-2.665zm6.579-17.525c-.469 0-.862.257-1.099.623h-13.679c-.237-.367-.63-.623-1.099-.623a1.332 1.332 0 1 0 0 2.664c.469 0 .862-.257 1.099-.623h13.679c.237.366.63.623 1.099.623a1.332 1.332 0 1 0 0-2.664zm1.805-4.81c-.469 0-.862.257-1.099.623h-3.448l-4.286-4.286h-4.569c-.237-.366-.63-.623-1.099-.623a1.332 1.332 0 1 0 0 2.664c.469 0 .862-.257 1.099-.623h3.982l2.869 2.868h-8.35c-.237-.366-.63-.623-1.099-.623a1.332 1.332 0 1 0 0 2.664c.469 0 .862-.257 1.099-.623h13.802c.237.366.63.623 1.099.623a1.332 1.332 0 1 0 0-2.664zm4.805-12.797c-.469 0-.861.257-1.099.623h-4.324L138.086.624h-3.85c-.237-.367-.63-.624-1.099-.624a1.332 1.332 0 1 0 0 2.664c.469 0 .861-.257 1.099-.623h3.264l2.994 2.994h-7.802c-.237-.366-.63-.623-1.099-.623a1.332 1.332 0 1 0 0 2.664c.469 0 .862-.257 1.099-.624h3.742l4.388 4.389h4.354c.237.366.63.623 1.099.623a1.332 1.332 0 1 0 0-2.664c-.469 0-.862.257-1.099.624h-3.766l-2.971-2.971h8.384c.237.367.63.624 1.099.624a1.332 1.332 0 1 0 0-2.664zM79.345 7.078c.469 0 .862-.257 1.099-.624h14.13c.237.367.63.624 1.099.624a1.332 1.332 0 1 0 0-2.664c-.469 0-.861.257-1.099.623h-7.829l2.995-2.994h3.272c.237.366.63.623 1.099.623a1.332 1.332 0 1 0 0-2.664c-.469 0-.862.257-1.099.624h-3.858L84.74 5.038h-4.297c-.237-.366-.63-.623-1.099-.623a1.333 1.333 0 0 0-.072 2.664l.073-.001zm16.783 2.347h-4.696l-4.123 4.123h-3.817c-.237-.366-.63-.623-1.099-.623a1.332 1.332 0 1 0 0 2.664c.469 0 .862-.257 1.099-.623h7.933l-2.869 2.868H85.1c-.237-.366-.63-.623-1.099-.623a1.332 1.332 0 1 0 0 2.664c.469 0 .862-.257 1.099-.623h4.043l4.286-4.286h4.158c.237.366.63.623 1.099.623a1.332 1.332 0 1 0 0-2.664c-.469 0-.862.257-1.099.623h-8.274l2.705-2.705h4.109c.237.366.63.623 1.099.623a1.332 1.332 0 1 0 0-2.664c-.468-.001-.861.256-1.098.623zm-9.221 13.218c-.237-.367-.63-.623-1.099-.623a1.332 1.332 0 1 0 0 2.664c.469 0 .862-.257 1.099-.623h8.506l-3.156 3.155h-3.633c-.237-.366-.63-.623-1.099-.623a1.332 1.332 0 1 0 0 2.664c.469 0 .862-.257 1.099-.624h4.22l4.573-4.573h3.392c.237.366.63.623 1.099.623a1.332 1.332 0 1 0 0-2.664c-.469 0-.862.257-1.099.623l-13.902.001zm17.411 21.53-4.002-4.004h-6.83c-.237-.367-.63-.624-1.099-.624a1.332 1.332 0 1 0 0 2.664c.469 0 .861-.257 1.099-.623h6.243l2.585 2.586h-7.325c-.237-.367-.63-.624-1.099-.624a1.332 1.332 0 1 0 0 2.664c.469 0 .861-.257 1.099-.623h13.443c.237.366.63.623 1.099.623a1.332 1.332 0 1 0 0-2.664c-.469 0-.862.257-1.099.624l-4.114.001zm-71.58 20.135c-.469 0-.862.257-1.099.623H17.75c-.237-.366-.63-.623-1.099-.623a1.332 1.332 0 1 0 0 2.664c.469 0 .862-.257 1.099-.623h6.64l-3.96 3.959h-4.775c-.237-.366-.63-.623-1.099-.623a1.332 1.332 0 1 0 0 2.664c.469 0 .862-.257 1.099-.623h5.361l5.377-5.377h5.245c.237.366.63.623 1.099.623a1.332 1.332 0 0 0 .001-2.664zm90.68 5.377c-.469 0-.861.257-1.099.623H72.84c-.237-.366-.63-.623-1.099-.623a1.332 1.332 0 1 0 0 2.664c.469 0 .862-.257 1.099-.623h49.479c.237.367.63.623 1.099.623a1.332 1.332 0 1 0 0-2.664zm2.017-5.377c-.469 0-.862.257-1.099.623H94.268c-.237-.366-.63-.623-1.099-.623a1.332 1.332 0 1 0 0 2.664c.469 0 .862-.257 1.099-.623h30.068c.237.366.63.623 1.099.623a1.332 1.332 0 1 0 0-2.664zm6.306-16.794c-.469 0-.861.257-1.099.623h-7.057l-2.755 2.757h-4.177c-.237-.366-.63-.623-1.099-.623a1.332 1.332 0 1 0 0 2.664c.469 0 .862-.257 1.099-.623h4.764l2.755-2.757h6.469c.237.366.63.623 1.099.623a1.333 1.333 0 0 0 .001-2.664zm-2.354 6.304c-.469-.007-.865.245-1.108.608l-5.121-.072-5.204 5.203h-8.794l-5.199-5.198h-5.148c-.237-.367-.63-.623-1.099-.623a1.332 1.332 0 1 0 0 2.664c.469 0 .862-.257 1.099-.623h4.561l3.782 3.78H91.761l-5.374 5.374h-15.5c-.237-.366-.63-.623-1.099-.623a1.332 1.332 0 1 0 0 2.664c.469 0 .862-.257 1.099-.623h16.087l5.374-5.374h34.007c.237.366.63.623 1.099.623a1.332 1.332 0 1 0 0-2.664c-.469 0-.862.257-1.099.623h-6.395l3.779-3.777 4.521.064c.232.37.621.632 1.09.639a1.333 1.333 0 1 0 .037-2.665zM98.655 31.117l-3.073 3.073h-4.34c-.237-.366-.63-.623-1.099-.623a1.332 1.332 0 1 0 0 2.664c.469 0 .862-.257 1.099-.623h4.927l3.073-3.073h4.567c.237.366.63.623 1.099.623a1.332 1.332 0 1 0 0-2.664c-.469 0-.862.257-1.099.623h-5.154zm40.94-4.523c-.469 0-.861.257-1.099.623h-7.302l-3.899 3.899h-3.724c-.237-.366-.63-.623-1.099-.623a1.332 1.332 0 1 0 0 2.664c.469 0 .862-.257 1.099-.623h13.462c.237.366.63.623 1.099.623a1.332 1.332 0 1 0 0-2.664c-.469 0-.862.257-1.099.623H129.3l2.482-2.481h6.714c.237.367.63.624 1.099.624a1.333 1.333 0 0 0 0-2.665z"/></defs><clipPath id="d"><use xlink:href="#c" style="overflow:visible"/></clipPath><path d="M11.934-2.75h151.775v146.109H11.934V-2.75z" style="clip-path:url(#d);fill:url(#Gradient_3_)"/></svg>