<?xml version="1.0" encoding="utf-8"?>
<!-- Generator: Adobe Illustrator 21.0.0, SVG Export Plug-In . SVG Version: 6.00 Build 0)  -->
<svg version="1.1" xmlns="http://www.w3.org/2000/svg" xmlns:xlink="http://www.w3.org/1999/xlink" x="0px" y="0px"
	 viewBox="0 0 283.5 181.4" style="enable-background:new 0 0 283.5 181.4;" xml:space="preserve">
<style type="text/css">
	.Trace{fill:none;stroke:#282828;stroke-width:1.4173;stroke-miterlimit:10;}
	.Start_x0020_Trace{fill:none;stroke:#282828;stroke-width:1.4173;stroke-miterlimit:10;}
	.st0{display:none;}
	.st1{display:inline;fill:#282828;}
	.st2{clip-path:url(#SVGID_2_);}
	.st3{fill:#343434;}
	.st4{opacity:0.65;fill:#FFFFFF;}
	.st5{fill:url(#SVGID_3_);}
	.st6{clip-path:url(#SVGID_5_);}
	.st7{fill:url(#SVGID_6_);}
	.st8{display:none;clip-path:url(#SVGID_5_);fill:#E594FF;}
	.st9{display:none;clip-path:url(#SVGID_5_);}
	.st10{display:inline;}
	.st11{fill:none;stroke:#282828;stroke-width:1.4173;stroke-miterlimit:10;}
	.st12{fill:#282828;}
	.st13{font-family:'Karbon-Bold';}
	.st14{font-size:28.72px;}
</style>
<g id="Background" class="st0">
	<rect x="0" y="-23.4" class="st1" width="283.5" height="226.8"/>
</g>
<g id="Wordmark_2_">
	<defs>
		<path id="SVGID_1_" d="M80.7,145.5L74,128.4h-5.1l-6.6,17.1h4.5l1.2-3.2h6.9l1.1,3.2H80.7z M73.6,138.8h-4.4l2.2-6.1L73.6,138.8z
			 M93.2,145.5v-3.8h-6.5v-13.3h-4.3v17.1H93.2z M99.9,133.3c0.8-0.9,2-1.4,3.5-1.4c2,0,3.7,0.6,5,1.9v-4.4
			c-1.4-0.9-3.1-1.3-5.3-1.3c-2.6,0-4.8,0.8-6.4,2.5c-1.6,1.6-2.5,3.8-2.5,6.4c0,2.7,0.8,4.9,2.4,6.5c1.6,1.6,3.8,2.4,6.6,2.4
			c2.5,0,4.5-0.4,5.8-1.3v-7h-4.2v4.5c-0.3,0.1-0.8,0.1-1.5,0.1c-1.4,0-2.6-0.5-3.4-1.4c-0.9-0.9-1.3-2.2-1.3-3.7
			C98.7,135.4,99.1,134.2,99.9,133.3z M120,145.8c2.5,0,4.6-0.8,6.3-2.5c1.7-1.7,2.6-3.8,2.6-6.3c0-2.6-0.9-4.7-2.6-6.3
			c-1.7-1.7-3.8-2.5-6.3-2.5s-4.6,0.8-6.3,2.5c-1.7,1.7-2.6,3.8-2.6,6.3c0,2.6,0.9,4.7,2.6,6.3C115.4,144.9,117.5,145.8,120,145.8z
			 M120,141.9c-1.3,0-2.4-0.5-3.2-1.4c-0.8-0.9-1.3-2.1-1.3-3.6c0-1.5,0.4-2.7,1.3-3.6c0.8-0.9,1.9-1.4,3.2-1.4
			c1.3,0,2.4,0.5,3.2,1.4c0.8,0.9,1.2,2.1,1.2,3.6c0,1.5-0.4,2.7-1.2,3.6S121.3,141.9,120,141.9z M147,128.4h-4.6l-4.3,12.7
			l-4.4-12.7h-4.6l6.3,17.1h5.2L147,128.4z M148.7,128.4v17.1h4.3v-17.1H148.7z M160.6,145.8c1.9,0,3.5-0.4,4.7-1.3
			c1.2-0.9,1.8-2.2,1.8-4c0-1.5-0.4-2.6-1.1-3.4c-0.7-0.8-1.9-1.5-3.6-2c-1-0.3-1.7-0.5-2.2-0.8c-0.4-0.2-0.6-0.6-0.6-1.1
			c0-0.4,0.2-0.8,0.5-1c0.3-0.2,0.8-0.4,1.4-0.4c1.6,0,3.1,0.6,4.5,1.8v-4.2c-1.4-0.8-3-1.2-4.7-1.2c-1.7,0-3.1,0.5-4.3,1.4
			c-1.1,0.9-1.7,2.2-1.7,3.9c0,1.4,0.4,2.6,1.1,3.4c0.7,0.8,2,1.5,3.7,1.9c0.9,0.2,1.6,0.5,2,0.7c0.4,0.3,0.6,0.6,0.6,1.1
			c0,1-0.8,1.5-2.4,1.5c-1.6,0-3.2-0.6-4.7-1.8v4.2C157.2,145.4,158.7,145.8,160.6,145.8z M169.7,128.4v17.1h4.3v-17.1H169.7z
			 M185.5,145.8c2.5,0,4.6-0.8,6.3-2.5c1.7-1.7,2.6-3.8,2.6-6.3c0-2.6-0.9-4.7-2.6-6.3c-1.7-1.7-3.8-2.5-6.3-2.5
			c-2.5,0-4.6,0.8-6.3,2.5c-1.7,1.7-2.6,3.8-2.6,6.3c0,2.6,0.9,4.7,2.6,6.3C180.9,144.9,183,145.8,185.5,145.8z M185.5,141.9
			c-1.3,0-2.4-0.5-3.2-1.4c-0.8-0.9-1.3-2.1-1.3-3.6c0-1.5,0.4-2.7,1.3-3.6c0.8-0.9,1.9-1.4,3.2-1.4c1.3,0,2.4,0.5,3.2,1.4
			c0.8,0.9,1.2,2.1,1.2,3.6c0,1.5-0.4,2.7-1.2,3.6S186.8,141.9,185.5,141.9z M197.1,128.4v17.1h4.1v-10.3l7.1,10.3h4v-17.1h-4.1
			v10.5l-6.9-10.5H197.1z"/>
	</defs>
	<clipPath id="SVGID_2_">
		<use xlink:href="#SVGID_1_"  style="overflow:visible;"/>
	</clipPath>
	<g class="st2">
		<rect x="60.3" y="30.5" class="st3" width="184.3" height="155.9"/>
		<rect x="60.3" y="30.5" class="st4" width="184.3" height="155.9"/>
		
			<linearGradient id="SVGID_3_" gradientUnits="userSpaceOnUse" x1="212.4409" y1="41.526" x2="313.1754" y2="148.984" gradientTransform="matrix(1 0 0 1 -114.96 8.34)">
			<stop  offset="0" style="stop-color:#62D0FF"/>
			<stop  offset="0.6092" style="stop-color:#9168CA"/>
			<stop  offset="1" style="stop-color:#4F2D7F"/>
		</linearGradient>
		<rect x="60.3" y="30.5" class="st5" width="184.3" height="155.9"/>
	</g>
</g>
<g id="Logomark_2_">
	<defs>
		<path id="SVGID_4_" d="M97.5,95.8c0,0.7-0.6,1.3-1.3,1.3c-0.5,0-0.9-0.3-1.1-0.6h-7.7l-2.4,2.4h-2c-0.2,0.4-0.6,0.6-1.1,0.6
			c-0.7,0-1.3-0.6-1.3-1.3s0.6-1.3,1.3-1.3c0.5,0,0.9,0.3,1.1,0.6h1.4l2.4-2.4h5l-2.2-2.2h-4.2c-0.2,0.4-0.6,0.6-1.1,0.6
			c-0.7,0-1.3-0.6-1.3-1.3s0.6-1.3,1.3-1.3c0.5,0,0.9,0.3,1.1,0.6h4.8l3.7,3.7h1.2c0.2-0.4,0.6-0.6,1.1-0.6
			C96.9,94.4,97.5,95,97.5,95.8z M99.4,85.7c-0.5,0-0.9,0.3-1.1,0.6H87.4c-0.2-0.4-0.6-0.6-1.1-0.6c-0.7,0-1.3,0.6-1.3,1.3
			s0.6,1.3,1.3,1.3c0.5,0,0.9-0.3,1.1-0.6h10.9c0.2,0.4,0.6,0.6,1.1,0.6c0.7,0,1.3-0.6,1.3-1.3S100.1,85.7,99.4,85.7z M102.8,76.6
			c-0.5,0-0.9,0.3-1.1,0.6h-4h-0.3h-6.4c-0.2-0.4-0.6-0.6-1.1-0.6c-0.7,0-1.3,0.6-1.3,1.3c0,0.7,0.6,1.3,1.3,1.3
			c0.5,0,0.9-0.3,1.1-0.6h5l-2.6,2.6h-4c-0.2-0.4-0.6-0.6-1.1-0.6c-0.7,0-1.3,0.6-1.3,1.3s0.6,1.3,1.3,1.3c0.5,0,0.9-0.3,1.1-0.6
			h4.5l4-4h3.7c0.2,0.4,0.6,0.6,1.1,0.6c0.7,0,1.3-0.6,1.3-1.3C104.1,77.2,103.5,76.6,102.8,76.6z M105,70.6c-0.5,0-0.9,0.3-1.1,0.6
			H93.2c-0.2-0.4-0.6-0.6-1.1-0.6c-0.7,0-1.3,0.6-1.3,1.3s0.6,1.3,1.3,1.3c0.5,0,0.9-0.3,1.1-0.6h10.6c0.2,0.4,0.6,0.6,1.1,0.6
			c0.7,0,1.3-0.6,1.3-1.3S105.7,70.6,105,70.6z M106.2,67.1c-0.5,0-0.9,0.3-1.1,0.6H94.6c-0.2-0.4-0.6-0.6-1.1-0.6
			c-0.7,0-1.3,0.6-1.3,1.3s0.6,1.3,1.3,1.3c0.5,0,0.9-0.3,1.1-0.6h10.6c0.2,0.4,0.6,0.6,1.1,0.6c0.7,0,1.3-0.6,1.3-1.3
			S107,67.1,106.2,67.1z M107.5,63.6c-0.5,0-0.9,0.3-1.1,0.6H95.9c-0.2-0.4-0.6-0.6-1.1-0.6c-0.7,0-1.3,0.6-1.3,1.3s0.6,1.3,1.3,1.3
			c0.5,0,0.9-0.3,1.1-0.6h10.5c0.2,0.4,0.6,0.6,1.1,0.6c0.7,0,1.3-0.6,1.3-1.3S108.3,63.6,107.5,63.6z M111.2,53.5
			c-0.5,0-0.9,0.3-1.1,0.6H104l-4.2,4.2h-1.6c-0.2-0.4-0.6-0.6-1.1-0.6c-0.7,0-1.3,0.6-1.3,1.3s0.6,1.3,1.3,1.3
			c0.5,0,0.9-0.3,1.1-0.6h10.4c0.2,0.4,0.6,0.6,1.1,0.6c0.7,0,1.3-0.6,1.3-1.3s-0.6-1.3-1.3-1.3c-0.5,0-0.9,0.3-1.1,0.6h-6.8
			l2.8-2.8h5.5c0.2,0.4,0.6,0.6,1.1,0.6c0.7,0,1.3-0.6,1.3-1.3C112.6,54.1,112,53.5,111.2,53.5z M102,47.8c0.5,0,0.9-0.3,1.1-0.6
			h5.1l3.6-3.6h11.1c0.2,0.4,0.6,0.6,1.1,0.6c0.7,0,1.3-0.6,1.3-1.3s-0.6-1.3-1.3-1.3c-0.5,0-0.9,0.3-1.1,0.6h-3.2l-4.5-4.5h-9
			c-0.2-0.4-0.6-0.6-1.1-0.6c-0.7,0-1.3,0.6-1.3,1.3c0,0.7,0.6,1.3,1.3,1.3c0.5,0,0.9-0.3,1.1-0.6h8.4l3.1,3.1h-6.5l-3.6,3.6h-4.5
			c-0.2-0.4-0.6-0.6-1.1-0.6c-0.7,0-1.3,0.6-1.3,1.3S101.3,47.8,102,47.8z M100.4,51.9c0.5,0,0.9-0.3,1.1-0.6h24.4
			c0.2,0.4,0.6,0.6,1.1,0.6c0.7,0,1.3-0.6,1.3-1.3s-0.6-1.3-1.3-1.3c-0.5,0-0.9,0.3-1.1,0.6h-2.1l-4.1-4.1h-4.9
			c-0.2-0.4-0.6-0.6-1.1-0.6c-0.7,0-1.3,0.6-1.3,1.3s0.6,1.3,1.3,1.3c0.5,0,0.9-0.3,1.1-0.6h4.3l2.7,2.7h-20.3
			c-0.2-0.4-0.6-0.6-1.1-0.6c-0.7,0-1.3,0.6-1.3,1.3S99.7,51.9,100.4,51.9z M121.4,55.6l4.2,4.2h3.7c0.2,0.4,0.6,0.6,1.1,0.6
			c0.7,0,1.3-0.6,1.3-1.3s-0.6-1.3-1.3-1.3c-0.5,0-0.9,0.3-1.1,0.6h-3.1l-4.2-4.2h-4.8c-0.2-0.4-0.6-0.6-1.1-0.6
			c-0.7,0-1.3,0.6-1.3,1.3c0,0.7,0.6,1.3,1.3,1.3c0.5,0,0.9-0.3,1.1-0.6H121.4z M131.6,65.7c0.2,0.4,0.6,0.6,1.1,0.6
			c0.7,0,1.3-0.6,1.3-1.3s-0.6-1.3-1.3-1.3c-0.5,0-0.9,0.3-1.1,0.6h-10.8c-0.2-0.4-0.6-0.6-1.1-0.6c-0.7,0-1.3,0.6-1.3,1.3
			s0.6,1.3,1.3,1.3c0.5,0,0.9-0.3,1.1-0.6H131.6z M123.3,72.6h10.9c0.2,0.4,0.6,0.6,1.1,0.6c0.7,0,1.3-0.6,1.3-1.3s-0.6-1.3-1.3-1.3
			c-0.5,0-0.9,0.3-1.1,0.6h-10.9c-0.2-0.4-0.6-0.6-1.1-0.6c-0.7,0-1.3,0.6-1.3,1.3s0.6,1.3,1.3,1.3C122.7,73.3,123.1,73,123.3,72.6z
			 M130.6,82.6l3.9,4h5.2c0.2,0.4,0.6,0.6,1.1,0.6c0.7,0,1.3-0.6,1.3-1.3c0-0.7-0.6-1.3-1.3-1.3c-0.5,0-0.9,0.3-1.1,0.6h-4.6
			l-2.5-2.6h3.8h0.3h1.5c0.2,0.4,0.6,0.6,1.1,0.6c0.7,0,1.3-0.6,1.3-1.3s-0.6-1.3-1.3-1.3c-0.5,0-0.9,0.3-1.1,0.6H137l-4-4h-7.5
			c-0.2-0.4-0.6-0.6-1.1-0.6c-0.7,0-1.3,0.6-1.3,1.3c0,0.7,0.6,1.3,1.3,1.3c0.5,0,0.9-0.3,1.1-0.6h7l2.5,2.5h-8.1
			c-0.2-0.4-0.6-0.6-1.1-0.6c-0.7,0-1.3,0.6-1.3,1.3s0.6,1.3,1.3,1.3c0.5,0,0.9-0.3,1.1-0.6H130.6z M132.3,92.8l5.2,5.2h8.8
			c0.2,0.4,0.6,0.6,1.1,0.6c0.7,0,1.3-0.6,1.3-1.3s-0.6-1.3-1.3-1.3c-0.5,0-0.9,0.3-1.1,0.6h-8.2l-3.8-3.8h7.8
			c0.2,0.4,0.6,0.6,1.1,0.6c0.7,0,1.3-0.6,1.3-1.3s-0.6-1.3-1.3-1.3c-0.5,0-0.9,0.3-1.1,0.6h-11.5c-0.2-0.4-0.6-0.6-1.1-0.6
			c-0.7,0-1.3,0.6-1.3,1.3s0.6,1.3,1.3,1.3c0.5,0,0.9-0.3,1.1-0.6H132.3z M192.2,85.7c-0.5,0-0.9,0.3-1.1,0.6h-4.9l-5.1,5.1H179
			c-0.2-0.4-0.6-0.6-1.1-0.6c-0.7,0-1.3,0.6-1.3,1.3s0.6,1.3,1.3,1.3c0.5,0,0.9-0.3,1.1-0.6h2.8l5.1-5.1h4.3
			c0.2,0.4,0.6,0.6,1.1,0.6c0.7,0,1.3-0.6,1.3-1.3S193,85.7,192.2,85.7z M190.4,90.7c-0.5,0-0.9,0.3-1.1,0.6h-2.1l-5.2,5.2h-12.2
			l-5.2-5.2h-2.1c-0.2-0.4-0.6-0.6-1.1-0.6c-0.7,0-1.3,0.6-1.3,1.3s0.6,1.3,1.3,1.3c0.5,0,0.9-0.3,1.1-0.6h1.5l3.8,3.8H154l-4.3,4.3
			h-15.7c-0.2-0.4-0.6-0.6-1.1-0.6c-0.7,0-1.3,0.6-1.3,1.3s0.6,1.3,1.3,1.3c0.5,0,0.9-0.3,1.1-0.6h16.2l4.3-4.3h32.7
			c0.2,0.4,0.6,0.6,1.1,0.6c0.7,0,1.3-0.6,1.3-1.3s-0.6-1.3-1.3-1.3c-0.5,0-0.9,0.3-1.1,0.6h-3.4l3.8-3.8h1.5
			c0.2,0.4,0.6,0.6,1.1,0.6c0.7,0,1.3-0.6,1.3-1.3S191.1,90.7,190.4,90.7z M197.2,72.6c-0.5,0-0.9,0.3-1.1,0.6H189l-3.9,4h-1
			c-0.2-0.4-0.6-0.6-1.1-0.6c-0.7,0-1.3,0.6-1.3,1.3c0,0.7,0.6,1.3,1.3,1.3c0.5,0,0.9-0.3,1.1-0.6h6.5l-2.5,2.5h-5.4
			c-0.2-0.4-0.6-0.6-1.1-0.6c-0.7,0-1.3,0.6-1.3,1.3s0.6,1.3,1.3,1.3c0.5,0,0.9-0.3,1.1-0.6h5.9l4-4h2c0.2,0.4,0.6,0.6,1.1,0.6
			c0.7,0,1.3-0.6,1.3-1.3c0-0.7-0.6-1.3-1.3-1.3c-0.5,0-0.9,0.3-1.1,0.6h-7.5l2.5-2.5h6.5c0.2,0.4,0.6,0.6,1.1,0.6
			c0.7,0,1.3-0.6,1.3-1.3S197.9,72.6,197.2,72.6z M200.5,63.6c-0.5,0-0.9,0.3-1.1,0.6h-6.2l-3.5,3.5h-2.5c-0.2-0.4-0.6-0.6-1.1-0.6
			c-0.7,0-1.3,0.6-1.3,1.3s0.6,1.3,1.3,1.3c0.5,0,0.9-0.3,1.1-0.6h10.8c0.2,0.4,0.6,0.6,1.1,0.6c0.7,0,1.3-0.6,1.3-1.3
			s-0.6-1.3-1.3-1.3c-0.5,0-0.9,0.3-1.1,0.6h-6.3l2.1-2.1h5.6c0.2,0.4,0.6,0.6,1.1,0.6c0.7,0,1.3-0.6,1.3-1.3S201.3,63.6,200.5,63.6
			z M202.7,57.7c-0.5,0-0.9,0.3-1.1,0.6h-11c-0.2-0.4-0.6-0.6-1.1-0.6c-0.7,0-1.3,0.6-1.3,1.3s0.6,1.3,1.3,1.3
			c0.5,0,0.9-0.3,1.1-0.6h11c0.2,0.4,0.6,0.6,1.1,0.6c0.7,0,1.3-0.6,1.3-1.3S203.5,57.7,202.7,57.7z M204.3,53.5
			c-0.5,0-0.9,0.3-1.1,0.6h-11.2c-0.2-0.4-0.6-0.6-1.1-0.6c-0.7,0-1.3,0.6-1.3,1.3c0,0.7,0.6,1.3,1.3,1.3c0.5,0,0.9-0.3,1.1-0.6
			h11.2c0.2,0.4,0.6,0.6,1.1,0.6c0.7,0,1.3-0.6,1.3-1.3C205.7,54.1,205.1,53.5,204.3,53.5z M208.9,41.4c-0.5,0-0.9,0.3-1.1,0.6h-3
			l-4.4-4.4h-2.5c-0.2-0.4-0.6-0.6-1.1-0.6c-0.7,0-1.3,0.6-1.3,1.3c0,0.7,0.6,1.3,1.3,1.3c0.5,0,0.9-0.3,1.1-0.6h1.9l3,3h-6.5
			c-0.2-0.4-0.6-0.6-1.1-0.6c-0.7,0-1.3,0.6-1.3,1.3s0.6,1.3,1.3,1.3c0.5,0,0.9-0.3,1.1-0.6h7.9h0.3h3.3c0.2,0.4,0.6,0.6,1.1,0.6
			c0.7,0,1.3-0.6,1.3-1.3S209.6,41.4,208.9,41.4z M142.9,44.1c0.5,0,0.9-0.3,1.1-0.6h3.3h0.3h7.9c0.2,0.4,0.6,0.6,1.1,0.6
			c0.7,0,1.3-0.6,1.3-1.3s-0.6-1.3-1.3-1.3c-0.5,0-0.9,0.3-1.1,0.6H149l3-3h1.9c0.2,0.4,0.6,0.6,1.1,0.6c0.7,0,1.3-0.6,1.3-1.3
			c0-0.7-0.6-1.3-1.3-1.3c-0.5,0-0.9,0.3-1.1,0.6h-2.5l-4.4,4.4h-3c-0.2-0.4-0.6-0.6-1.1-0.6c-0.7,0-1.3,0.6-1.3,1.3
			S142.2,44.1,142.9,44.1z M156.8,45.7h-3.1l-4.1,4.1h-2.8c-0.2-0.4-0.6-0.6-1.1-0.6c-0.7,0-1.3,0.6-1.3,1.3s0.6,1.3,1.3,1.3
			c0.5,0,0.9-0.3,1.1-0.6h6.9l-2.9,2.9h-2.4c-0.2-0.4-0.6-0.6-1.1-0.6c-0.7,0-1.3,0.6-1.3,1.3c0,0.7,0.6,1.3,1.3,1.3
			c0.5,0,0.9-0.3,1.1-0.6h3l4.3-4.3h2.6c0.2,0.4,0.6,0.6,1.1,0.6c0.7,0,1.3-0.6,1.3-1.3s-0.6-1.3-1.3-1.3c-0.5,0-0.9,0.3-1.1,0.6
			h-6.7l2.7-2.7h2.5c0.2,0.4,0.6,0.6,1.1,0.6c0.7,0,1.3-0.6,1.3-1.3s-0.6-1.3-1.3-1.3C157.4,45.1,157,45.4,156.8,45.7z M150,58.4
			c-0.2-0.4-0.6-0.6-1.1-0.6c-0.7,0-1.3,0.6-1.3,1.3s0.6,1.3,1.3,1.3c0.5,0,0.9-0.3,1.1-0.6h11.3c0.2,0.4,0.6,0.6,1.1,0.6
			c0.7,0,1.3-0.6,1.3-1.3s-0.6-1.3-1.3-1.3c-0.5,0-0.9,0.3-1.1,0.6H150z M163.4,64.2h-11.1c-0.2-0.4-0.6-0.6-1.1-0.6
			c-0.7,0-1.3,0.6-1.3,1.3s0.6,1.3,1.3,1.3c0.5,0,0.9-0.3,1.1-0.6h11.1c0.2,0.4,0.6,0.6,1.1,0.6c0.7,0,1.3-0.6,1.3-1.3
			s-0.6-1.3-1.3-1.3C164,63.6,163.6,63.9,163.4,64.2z M162.3,71.2l-3.5-3.5h-5.2c-0.2-0.4-0.6-0.6-1.1-0.6c-0.7,0-1.3,0.6-1.3,1.3
			s0.6,1.3,1.3,1.3c0.5,0,0.9-0.3,1.1-0.6h4.7l2.1,2.1h-5.4c-0.2-0.4-0.6-0.6-1.1-0.6c-0.7,0-1.3,0.6-1.3,1.3s0.6,1.3,1.3,1.3
			c0.5,0,0.9-0.3,1.1-0.6h6.8h0.3h3.9c0.2,0.4,0.6,0.6,1.1,0.6c0.7,0,1.3-0.6,1.3-1.3s-0.6-1.3-1.3-1.3c-0.5,0-0.9,0.3-1.1,0.6
			H162.3z M168,77.2h-10.9c-0.2-0.4-0.6-0.6-1.1-0.6c-0.7,0-1.3,0.6-1.3,1.3c0,0.7,0.6,1.3,1.3,1.3c0.5,0,0.9-0.3,1.1-0.6H168
			c0.2,0.4,0.6,0.6,1.1,0.6c0.7,0,1.3-0.6,1.3-1.3c0-0.7-0.6-1.3-1.3-1.3C168.6,76.6,168.2,76.8,168,77.2z M170.8,91.4l-5.1-5.1
			h-5.2c-0.2-0.4-0.6-0.6-1.1-0.6c-0.7,0-1.3,0.6-1.3,1.3c0,0.7,0.6,1.3,1.3,1.3c0.5,0,0.9-0.3,1.1-0.6h4.6l5.1,5.1h2.8
			c0.2,0.4,0.6,0.6,1.1,0.6c0.7,0,1.3-0.6,1.3-1.3s-0.6-1.3-1.3-1.3c-0.5,0-0.9,0.3-1.1,0.6H170.8z M169.4,81.2h-10.8
			c-0.2-0.4-0.6-0.6-1.1-0.6c-0.7,0-1.3,0.6-1.3,1.3s0.6,1.3,1.3,1.3c0.5,0,0.9-0.3,1.1-0.6h10.8c0.2,0.4,0.6,0.6,1.1,0.6
			c0.7,0,1.3-0.6,1.3-1.3s-0.6-1.3-1.3-1.3C170,80.5,169.6,80.8,169.4,81.2z M93.4,102.2c-0.5,0-0.9,0.3-1.1,0.6H81
			c-0.2-0.4-0.6-0.6-1.1-0.6c-0.7,0-1.3,0.6-1.3,1.3s0.6,1.3,1.3,1.3c0.5,0,0.9-0.3,1.1-0.6h4.7l-3,3h-3.4c-0.2-0.4-0.6-0.6-1.1-0.6
			c-0.7,0-1.3,0.6-1.3,1.3s0.6,1.3,1.3,1.3c0.5,0,0.9-0.3,1.1-0.6h4l4.4-4.4h4.5c0.2,0.4,0.6,0.6,1.1,0.6c0.7,0,1.3-0.6,1.3-1.3
			S94.1,102.2,93.4,102.2z M184.4,106.7c-0.5,0-0.9,0.3-1.1,0.6h-46.8c-0.2-0.4-0.6-0.6-1.1-0.6c-0.7,0-1.3,0.6-1.3,1.3
			s0.6,1.3,1.3,1.3c0.5,0,0.9-0.3,1.1-0.6h46.8c0.2,0.4,0.6,0.6,1.1,0.6c0.7,0,1.3-0.6,1.3-1.3S185.1,106.7,184.4,106.7z M186,102.2
			c-0.5,0-0.9,0.3-1.1,0.6h-12.7l-2-2h-11.9c-0.2-0.4-0.6-0.6-1.1-0.6c-0.7,0-1.3,0.6-1.3,1.3s0.6,1.3,1.3,1.3
			c0.5,0,0.9-0.3,1.1-0.6h11.3l2,2h13.3c0.2,0.4,0.6,0.6,1.1,0.6c0.7,0,1.3-0.6,1.3-1.3S186.8,102.2,186,102.2z"/>
	</defs>
	<clipPath id="SVGID_5_">
		<use xlink:href="#SVGID_4_"  style="overflow:visible;"/>
	</clipPath>
	<g class="st6">
		<rect x="60.3" y="30.5" class="st3" width="184.3" height="155.9"/>
		<rect x="60.3" y="30.5" class="st4" width="184.3" height="155.9"/>
		
			<linearGradient id="SVGID_6_" gradientUnits="userSpaceOnUse" x1="212.4409" y1="41.526" x2="313.1754" y2="148.984" gradientTransform="matrix(1 0 0 1 -114.96 8.34)">
			<stop  offset="0" style="stop-color:#62D0FF"/>
			<stop  offset="0.6092" style="stop-color:#9168CA"/>
			<stop  offset="1" style="stop-color:#4F2D7F"/>
		</linearGradient>
		<rect x="60.3" y="30.5" class="st7" width="184.3" height="155.9"/>
	</g>
	<polygon id="Logomark_3_" class="st8" points="212.4,36.9 185.2,109.4 134.5,109.4 113.6,51.9 92.5,109.4 76.3,109.4 104.4,36.9 
		123,36.9 146.1,95.9 161.4,95.9 139.3,36.9 155.9,36.9 176,93.8 195.9,36.9 	"/>
	<g id="Traces" class="st9">
		<g class="st10">
			<g>
				<polyline class="st11" points="81.9,98.1 84.8,98.1 87.1,95.8 96.3,95.8 				"/>
				<g>
					<circle class="st12" cx="82" cy="98.1" r="1.3"/>
				</g>
				<g>
					<circle class="st12" cx="96.2" cy="95.8" r="1.3"/>
				</g>
			</g>
		</g>
		<g class="st10">
			<g>
				<polyline class="st11" points="84.3,92.1 89.9,92.1 93.6,95.8 				"/>
				<g>
					<circle class="st12" cx="84.3" cy="92.1" r="1.3"/>
				</g>
			</g>
		</g>
		<g class="st10">
			<g>
				<line class="st11" x1="86.2" y1="87.1" x2="99.5" y2="87.1"/>
				<g>
					<circle class="st12" cx="86.3" cy="87.1" r="1.3"/>
				</g>
				<g>
					<circle class="st12" cx="99.4" cy="87.1" r="1.3"/>
				</g>
			</g>
		</g>
		<g class="st10">
			<g>
				<line class="st11" x1="97.6" y1="77.9" x2="89.8" y2="77.9"/>
				<g>
					<circle class="st12" cx="89.8" cy="77.9" r="1.3"/>
				</g>
			</g>
		</g>
		<g class="st10">
			<g>
				<polyline class="st11" points="88.2,81.9 93.6,81.9 97.6,77.9 102.8,77.9 				"/>
				<g>
					<circle class="st12" cx="88.3" cy="81.9" r="1.3"/>
				</g>
				<g>
					<circle class="st12" cx="102.8" cy="77.9" r="1.3"/>
				</g>
			</g>
		</g>
		<g class="st10">
			<g>
				<line class="st11" x1="92.1" y1="71.9" x2="105" y2="71.9"/>
				<g>
					<circle class="st12" cx="92.1" cy="71.9" r="1.3"/>
				</g>
				<g>
					<circle class="st12" cx="105" cy="71.9" r="1.3"/>
				</g>
			</g>
		</g>
		<g class="st10">
			<g>
				<line class="st11" x1="93.4" y1="68.4" x2="106.3" y2="68.4"/>
				<g>
					<circle class="st12" cx="93.5" cy="68.4" r="1.3"/>
				</g>
				<g>
					<circle class="st12" cx="106.2" cy="68.4" r="1.3"/>
				</g>
			</g>
		</g>
		<g class="st10">
			<g>
				<line class="st11" x1="94.8" y1="65" x2="107.6" y2="65"/>
				<g>
					<circle class="st12" cx="94.8" cy="65" r="1.3"/>
				</g>
				<g>
					<circle class="st12" cx="107.5" cy="65" r="1.3"/>
				</g>
			</g>
		</g>
		<g class="st10">
			<g>
				<line class="st11" x1="97.1" y1="59.1" x2="109.8" y2="59.1"/>
				<g>
					<circle class="st12" cx="97.1" cy="59.1" r="1.3"/>
				</g>
				<g>
					<circle class="st12" cx="109.7" cy="59.1" r="1.3"/>
				</g>
			</g>
		</g>
		<g class="st10">
			<g>
				<polyline class="st11" points="111.3,54.8 104.3,54.8 100.1,59 				"/>
				<g>
					<circle class="st12" cx="111.2" cy="54.8" r="1.3"/>
				</g>
			</g>
		</g>
		<g class="st10">
			<g>
				<polyline class="st11" points="105.1,38.4 114.9,38.4 119.4,42.9 				"/>
				<g>
					<circle class="st12" cx="105.1" cy="38.4" r="1.3"/>
				</g>
			</g>
		</g>
		<g class="st10">
			<g>
				<polyline class="st11" points="124.1,42.9 111.5,42.9 107.9,46.4 101.9,46.4 				"/>
				<g>
					<circle class="st12" cx="124" cy="42.9" r="1.3"/>
				</g>
				<g>
					<circle class="st12" cx="102" cy="46.4" r="1.3"/>
				</g>
			</g>
		</g>
		<g class="st10">
			<g>
				<line class="st11" x1="100.4" y1="50.6" x2="127.1" y2="50.6"/>
				<g>
					<circle class="st12" cx="100.4" cy="50.6" r="1.3"/>
				</g>
				<g>
					<circle class="st12" cx="127" cy="50.6" r="1.3"/>
				</g>
			</g>
		</g>
		<g class="st10">
			<g>
				<polyline class="st11" points="113.7,46.4 119.4,46.4 123.5,50.6 				"/>
				<g>
					<circle class="st12" cx="113.7" cy="46.4" r="1.3"/>
				</g>
			</g>
		</g>
		<g class="st10">
			<g>
				<polyline class="st11" points="116,54.8 121.6,54.8 125.9,59.1 130.4,59.1 				"/>
				<g>
					<circle class="st12" cx="116" cy="54.8" r="1.3"/>
				</g>
				<g>
					<circle class="st12" cx="130.4" cy="59.1" r="1.3"/>
				</g>
			</g>
		</g>
		<g class="st10">
			<g>
				<line class="st11" x1="119.6" y1="65" x2="132.7" y2="65"/>
				<g>
					<circle class="st12" cx="119.7" cy="65" r="1.3"/>
				</g>
				<g>
					<circle class="st12" cx="132.7" cy="65" r="1.3"/>
				</g>
			</g>
		</g>
		<g class="st10">
			<g>
				<line class="st11" x1="122.2" y1="71.9" x2="135.4" y2="71.9"/>
				<g>
					<circle class="st12" cx="122.2" cy="71.9" r="1.3"/>
				</g>
				<g>
					<circle class="st12" cx="135.4" cy="71.9" r="1.3"/>
				</g>
			</g>
		</g>
		<g class="st10">
			<g>
				<polyline class="st11" points="124.3,77.9 132.7,77.9 136.7,81.9 139.3,81.9 				"/>
				<g>
					<circle class="st12" cx="124.4" cy="77.9" r="1.3"/>
				</g>
				<g>
					<circle class="st12" cx="139.3" cy="81.9" r="1.3"/>
				</g>
			</g>
		</g>
		<g class="st10">
			<g>
				<line class="st11" x1="136.7" y1="81.9" x2="125.8" y2="81.9"/>
				<g>
					<circle class="st12" cx="125.8" cy="81.9" r="1.3"/>
				</g>
			</g>
		</g>
		<g class="st10">
			<g>
				<polyline class="st11" points="140.9,85.9 134.8,85.9 130.9,81.9 				"/>
				<g>
					<circle class="st12" cx="140.8" cy="85.9" r="1.3"/>
				</g>
			</g>
		</g>
		<g class="st10">
			<g>
				<line class="st11" x1="129.5" y1="92.1" x2="143.3" y2="92.1"/>
				<g>
					<circle class="st12" cx="129.6" cy="92.1" r="1.3"/>
				</g>
				<g>
					<circle class="st12" cx="143.3" cy="92.1" r="1.3"/>
				</g>
			</g>
		</g>
		<g class="st10">
			<g>
				<polyline class="st11" points="147.5,97.3 137.8,97.3 132.6,92.1 				"/>
				<g>
					<circle class="st12" cx="147.4" cy="97.3" r="1.3"/>
				</g>
			</g>
		</g>
		<g class="st10">
			<g>
				<polyline class="st11" points="188.5,97.3 154.3,97.3 150,101.6 132.9,101.6 				"/>
				<g>
					<circle class="st12" cx="188.4" cy="97.3" r="1.3"/>
				</g>
				<g>
					<circle class="st12" cx="133" cy="101.6" r="1.3"/>
				</g>
			</g>
		</g>
		<g class="st10">
			<g>
				<polyline class="st11" points="177.9,92.1 181.5,92.1 186.6,87 192.3,87 				"/>
				<g>
					<circle class="st12" cx="177.9" cy="92.1" r="1.3"/>
				</g>
				<g>
					<circle class="st12" cx="192.2" cy="87" r="1.3"/>
				</g>
			</g>
		</g>
		<g class="st10">
			<g>
				<polyline class="st11" points="182.2,97.3 187.5,92.1 190.4,92.1 				"/>
				<g>
					<circle class="st12" cx="190.4" cy="92.1" r="1.3"/>
				</g>
			</g>
		</g>
		<g class="st10">
			<g>
				<line class="st11" x1="195.7" y1="77.9" x2="182.8" y2="77.9"/>
				<g>
					<circle class="st12" cx="195.7" cy="77.9" r="1.3"/>
				</g>
				<g>
					<circle class="st12" cx="182.9" cy="77.9" r="1.3"/>
				</g>
			</g>
		</g>
		<g class="st10">
			<g>
				<polyline class="st11" points="181.5,81.9 188.3,81.9 192.3,77.8 				"/>
				<g>
					<circle class="st12" cx="181.5" cy="81.9" r="1.3"/>
				</g>
			</g>
		</g>
		<g class="st10">
			<g>
				<polyline class="st11" points="197.2,73.9 189.3,73.9 185.3,77.9 				"/>
				<g>
					<circle class="st12" cx="197.2" cy="73.9" r="1.3"/>
				</g>
			</g>
		</g>
		<g class="st10">
			<g>
				<line class="st11" x1="186.2" y1="68.4" x2="199.3" y2="68.4"/>
				<g>
					<circle class="st12" cx="186.2" cy="68.4" r="1.3"/>
				</g>
				<g>
					<circle class="st12" cx="199.2" cy="68.4" r="1.3"/>
				</g>
			</g>
		</g>
		<g class="st10">
			<g>
				<polyline class="st11" points="200.6,65 193.6,65 189.9,68.6 				"/>
				<g>
					<circle class="st12" cx="200.5" cy="65" r="1.3"/>
				</g>
			</g>
		</g>
		<g class="st10">
			<g>
				<line class="st11" x1="189.4" y1="59.1" x2="202.8" y2="59.1"/>
				<g>
					<circle class="st12" cx="189.5" cy="59.1" r="1.3"/>
				</g>
				<g>
					<circle class="st12" cx="202.7" cy="59.1" r="1.3"/>
				</g>
			</g>
		</g>
		<g class="st10">
			<g>
				<line class="st11" x1="190.9" y1="54.8" x2="204.4" y2="54.8"/>
				<g>
					<circle class="st12" cx="191" cy="54.8" r="1.3"/>
				</g>
				<g>
					<circle class="st12" cx="204.3" cy="54.8" r="1.3"/>
				</g>
			</g>
		</g>
		<g class="st10">
			<g>
				<polyline class="st11" points="196.7,38.4 200.1,38.4 204.5,42.8 208.9,42.8 				"/>
				<g>
					<circle class="st12" cx="196.7" cy="38.4" r="1.3"/>
				</g>
				<g>
					<circle class="st12" cx="208.9" cy="42.8" r="1.3"/>
				</g>
			</g>
		</g>
		<g class="st10">
			<g>
				<line class="st11" x1="195.1" y1="42.8" x2="204.5" y2="42.8"/>
				<g>
					<circle class="st12" cx="195.2" cy="42.8" r="1.3"/>
				</g>
			</g>
		</g>
		<g class="st10">
			<g>
				<polyline class="st11" points="155.1,38.4 151.7,38.4 147.3,42.8 142.9,42.8 				"/>
				<g>
					<circle class="st12" cx="155" cy="38.4" r="1.3"/>
				</g>
				<g>
					<circle class="st12" cx="142.9" cy="42.8" r="1.3"/>
				</g>
			</g>
		</g>
		<g class="st10">
			<g>
				<line class="st11" x1="156.7" y1="42.8" x2="147.3" y2="42.8"/>
				<g>
					<circle class="st12" cx="156.6" cy="42.8" r="1.3"/>
				</g>
			</g>
		</g>
		<g class="st10">
			<g>
				<polyline class="st11" points="158,46.4 154,46.4 149.9,50.6 				"/>
				<g>
					<circle class="st12" cx="157.9" cy="46.4" r="1.3"/>
				</g>
			</g>
		</g>
		<g class="st10">
			<g>
				<line class="st11" x1="145.7" y1="50.6" x2="159.4" y2="50.6"/>
				<g>
					<circle class="st12" cx="145.7" cy="50.6" r="1.3"/>
				</g>
				<g>
					<circle class="st12" cx="159.4" cy="50.6" r="1.3"/>
				</g>
			</g>
		</g>
		<g class="st10">
			<g>
				<polyline class="st11" points="147.3,54.8 151.1,54.8 155.4,50.6 				"/>
				<g>
					<circle class="st12" cx="147.3" cy="54.8" r="1.3"/>
				</g>
			</g>
		</g>
		<g class="st10">
			<g>
				<line class="st11" x1="148.9" y1="59.1" x2="162.4" y2="59.1"/>
				<g>
					<circle class="st12" cx="148.9" cy="59.1" r="1.3"/>
				</g>
				<g>
					<circle class="st12" cx="162.4" cy="59.1" r="1.3"/>
				</g>
			</g>
		</g>
		<g class="st10">
			<g>
				<line class="st11" x1="151.1" y1="65" x2="164.5" y2="65"/>
				<g>
					<circle class="st12" cx="151.1" cy="65" r="1.3"/>
				</g>
				<g>
					<circle class="st12" cx="164.5" cy="65" r="1.3"/>
				</g>
			</g>
		</g>
		<g class="st10">
			<g>
				<polyline class="st11" points="152.4,68.4 158.5,68.4 162,71.9 167,71.9 				"/>
				<g>
					<circle class="st12" cx="152.4" cy="68.4" r="1.3"/>
				</g>
				<g>
					<circle class="st12" cx="166.9" cy="71.9" r="1.3"/>
				</g>
			</g>
		</g>
		<g class="st10">
			<g>
				<line class="st11" x1="153.7" y1="71.9" x2="162" y2="71.9"/>
				<g>
					<circle class="st12" cx="153.7" cy="71.9" r="1.3"/>
				</g>
			</g>
		</g>
		<g class="st10">
			<g>
				<line class="st11" x1="169.1" y1="77.9" x2="155.9" y2="77.9"/>
				<g>
					<circle class="st12" cx="169.1" cy="77.9" r="1.3"/>
				</g>
				<g>
					<circle class="st12" cx="156" cy="77.9" r="1.3"/>
				</g>
			</g>
		</g>
		<g class="st10">
			<g>
				<polyline class="st11" points="174.1,92.1 170.5,92.1 165.4,87 159.4,87 				"/>
				<g>
					<circle class="st12" cx="174.1" cy="92.1" r="1.3"/>
				</g>
				<g>
					<circle class="st12" cx="159.4" cy="87" r="1.3"/>
				</g>
			</g>
		</g>
		<g class="st10">
			<g>
				<line class="st11" x1="157.4" y1="81.9" x2="170.5" y2="81.9"/>
				<g>
					<circle class="st12" cx="157.5" cy="81.9" r="1.3"/>
				</g>
				<g>
					<circle class="st12" cx="170.5" cy="81.9" r="1.3"/>
				</g>
			</g>
		</g>
		<g class="st10">
			<g>
				<polyline class="st11" points="169.4,97.3 164.2,92.1 161.2,92.1 				"/>
				<g>
					<circle class="st12" cx="161.3" cy="92.1" r="1.3"/>
				</g>
			</g>
		</g>
		<g class="st10">
			<g>
				<line class="Trace" x1="93.4" y1="103.6" x2="79.8" y2="103.6"/>
				<g>
					<circle class="st12" cx="93.4" cy="103.6" r="1.3"/>
				</g>
				<g>
					<circle class="st12" cx="79.9" cy="103.6" r="1.3"/>
				</g>
			</g>
		</g>
		<g class="st10">
			<g>
				<polyline class="Start_x0020_Trace" points="78.1,108 83,108 87.4,103.6 				"/>
				<g>
					<circle class="st12" cx="78.2" cy="108" r="1.3"/>
				</g>
			</g>
		</g>
		<g class="st10">
			<g>
				<line class="Trace" x1="135.3" y1="108" x2="184.4" y2="108"/>
				<g>
					<circle class="st12" cx="135.3" cy="108" r="1.3"/>
				</g>
				<g>
					<circle class="st12" cx="184.4" cy="108" r="1.3"/>
				</g>
			</g>
		</g>
		<g class="st10">
			<g>
				<polyline class="Trace" points="186.1,103.6 171.9,103.6 170,101.6 157.2,101.6 				"/>
				<g>
					<circle class="st12" cx="186" cy="103.6" r="1.3"/>
				</g>
				<g>
					<circle class="st12" cx="157.3" cy="101.6" r="1.3"/>
				</g>
			</g>
		</g>
	</g>
</g>
<g id="algovision_1_" class="st0">
	<text id="Wordmark_1_" transform="matrix(1 0 0 1 61.6941 145.488)" class="st10 st13 st14">ALGOVISION</text>
	<g id="Logomark" class="st10">
		<g id="Layer_14">
		</g>
		<g id="Layer_15">
			<g id="Layer_17">
			</g>
			<g id="Layer_16">
				<polygon points="123,36.9 104.4,36.9 76.3,109.4 92.5,109.4 98.1,94.1 98.2,94.1 113.6,51.9 130.1,97.1 130,97.1 134.5,109.4 
					151.4,109.4 				"/>
			</g>
		</g>
		<g id="Layer_13">
			<path d="M185.2,109.4h-18.7l-27.2-72.5h16.6L176,93.8l19.9-56.9h16.5L185.2,109.4z"/>
		</g>
		<g id="Layer_12">
			<rect x="138.7" y="95.9" width="43.9" height="13.5"/>
		</g>
	</g>
</g>
<g id="Guides">
	<path class="st0" d="M76,145.5l-1.1-3.2H68l-1.2,3.2h-4.5l6.6-17.1H74l6.6,17.1H76z M71.5,132.7l-2.2,6.1h4.4L71.5,132.7z"/>
	<path class="st0" d="M201.4,128.4l6.9,10.5v-10.5h4.1v17.1h-4l-7.1-10.3v10.3h-4.1v-17.1H201.4z"/>
</g>
</svg>
