<?xml version="1.0" encoding="utf-8"?>
<!-- Generator: Adobe Illustrator 21.0.0, SVG Export Plug-In . SVG Version: 6.00 Build 0)  -->
<svg version="1.1" xmlns="http://www.w3.org/2000/svg" xmlns:xlink="http://www.w3.org/1999/xlink" x="0px" y="0px"
	 viewBox="0 0 283.5 181.4" style="enable-background:new 0 0 283.5 181.4;" xml:space="preserve">
<style type="text/css">
	.Trace{fill:none;stroke:#282828;stroke-width:1.4173;stroke-miterlimit:10;}
	.Start_x0020_Trace{fill:none;stroke:#282828;stroke-width:1.4173;stroke-miterlimit:10;}
	.st0{display:none;}
	.st1{display:inline;fill:#282828;}
	.st2{clip-path:url(#Wordmark_1_);}
	.st3{fill:#343434;}
	.st4{opacity:0.65;fill:#FFFFFF;}
	.st5{fill:url(#SVGID_1_);}
	.st6{clip-path:url(#Traces_2_);}
	.st7{fill:url(#SVGID_2_);}
	.st8{display:none;clip-path:url(#Traces_2_);fill:#D094FF;}
	.st9{display:none;clip-path:url(#Traces_2_);}
	.st10{display:inline;}
	.st11{fill:none;stroke:#282828;stroke-width:1.4173;stroke-miterlimit:10;}
	.st12{fill:#282828;}
	.st13{font-family:'Karbon-Bold';}
	.st14{font-size:28.72px;}
</style>
<g id="Background" class="st0">
	<rect x="0" class="st1" width="283.5" height="181.4"/>
</g>
<g id="Wordmark_2_">
	<defs>
		<path id="Wordmark_3_" d="M80.7,143.7L74,126.7h-5.1l-6.6,17.1h4.5l1.2-3.2h6.9l1.1,3.2H80.7z M73.6,137h-4.4l2.2-6.1L73.6,137z
			 M93.2,143.7V140h-6.5v-13.3h-4.3v17.1H93.2z M99.9,131.6c0.8-0.9,2-1.4,3.5-1.4c2,0,3.7,0.6,5,1.9v-4.4c-1.4-0.9-3.1-1.3-5.3-1.3
			c-2.6,0-4.8,0.8-6.4,2.5c-1.6,1.6-2.5,3.8-2.5,6.4c0,2.7,0.8,4.9,2.4,6.5c1.6,1.6,3.8,2.4,6.6,2.4c2.5,0,4.5-0.4,5.8-1.3v-7h-4.2
			v4.5c-0.3,0.1-0.8,0.1-1.5,0.1c-1.4,0-2.6-0.5-3.4-1.4c-0.9-0.9-1.3-2.2-1.3-3.7C98.7,133.7,99.1,132.5,99.9,131.6z M120,144
			c2.5,0,4.6-0.8,6.3-2.5c1.7-1.7,2.6-3.8,2.6-6.3c0-2.6-0.9-4.7-2.6-6.3c-1.7-1.7-3.8-2.5-6.3-2.5s-4.6,0.8-6.3,2.5
			c-1.7,1.7-2.6,3.8-2.6,6.3c0,2.6,0.9,4.7,2.6,6.3C115.4,143.2,117.5,144,120,144z M120,140.2c-1.3,0-2.4-0.5-3.2-1.4
			c-0.8-0.9-1.3-2.1-1.3-3.6c0-1.5,0.4-2.7,1.3-3.6c0.8-0.9,1.9-1.4,3.2-1.4c1.3,0,2.4,0.5,3.2,1.4c0.8,0.9,1.2,2.1,1.2,3.6
			c0,1.5-0.4,2.7-1.2,3.6S121.3,140.2,120,140.2z M147,126.7h-4.6l-4.3,12.7l-4.4-12.7h-4.6l6.3,17.1h5.2L147,126.7z M148.7,126.7
			v17.1h4.3v-17.1H148.7z M160.6,144c1.9,0,3.5-0.4,4.7-1.3c1.2-0.9,1.8-2.2,1.8-4c0-1.5-0.4-2.6-1.1-3.4c-0.7-0.8-1.9-1.5-3.6-2
			c-1-0.3-1.7-0.5-2.2-0.8c-0.4-0.2-0.6-0.6-0.6-1.1c0-0.4,0.2-0.8,0.5-1c0.3-0.2,0.8-0.4,1.4-0.4c1.6,0,3.1,0.6,4.5,1.8v-4.2
			c-1.4-0.8-3-1.2-4.7-1.2c-1.7,0-3.1,0.5-4.3,1.4c-1.1,0.9-1.7,2.2-1.7,3.9c0,1.4,0.4,2.6,1.1,3.4c0.7,0.8,2,1.5,3.7,1.9
			c0.9,0.2,1.6,0.5,2,0.7c0.4,0.3,0.6,0.6,0.6,1.1c0,1-0.8,1.5-2.4,1.5c-1.6,0-3.2-0.6-4.7-1.8v4.2C157.2,143.6,158.7,144,160.6,144
			z M169.7,126.7v17.1h4.3v-17.1H169.7z M185.5,144c2.5,0,4.6-0.8,6.3-2.5c1.7-1.7,2.6-3.8,2.6-6.3c0-2.6-0.9-4.7-2.6-6.3
			c-1.7-1.7-3.8-2.5-6.3-2.5c-2.5,0-4.6,0.8-6.3,2.5c-1.7,1.7-2.6,3.8-2.6,6.3c0,2.6,0.9,4.7,2.6,6.3C180.9,143.2,183,144,185.5,144
			z M185.5,140.2c-1.3,0-2.4-0.5-3.2-1.4c-0.8-0.9-1.3-2.1-1.3-3.6c0-1.5,0.4-2.7,1.3-3.6c0.8-0.9,1.9-1.4,3.2-1.4
			c1.3,0,2.4,0.5,3.2,1.4c0.8,0.9,1.2,2.1,1.2,3.6c0,1.5-0.4,2.7-1.2,3.6S186.8,140.2,185.5,140.2z M197.1,126.7v17.1h4.1v-10.3
			l7.1,10.3h4v-17.1h-4.1v10.5l-6.9-10.5H197.1z"/>
	</defs>
	<clipPath id="Wordmark_1_">
		<use xlink:href="#Wordmark_3_"  style="overflow:visible;"/>
	</clipPath>
	<g class="st2">
		<rect x="31.7" y="98.2" class="st3" width="200.3" height="61.7"/>
		<rect x="31.7" y="98.2" class="st4" width="200.3" height="61.7"/>
		
			<linearGradient id="SVGID_1_" gradientUnits="userSpaceOnUse" x1="187.5934" y1="86.5022" x2="296.2638" y2="149.2431" gradientTransform="matrix(1 0 0 1 -114.96 8.34)">
			<stop  offset="0" style="stop-color:#62D0FF"/>
			<stop  offset="0.1078" style="stop-color:#65CAFC"/>
			<stop  offset="0.2489" style="stop-color:#6CBAF4"/>
			<stop  offset="0.4084" style="stop-color:#789FE6"/>
			<stop  offset="0.5803" style="stop-color:#8979D3"/>
			<stop  offset="0.65" style="stop-color:#9168CA"/>
			<stop  offset="0.7819" style="stop-color:#895AAC"/>
			<stop  offset="0.9169" style="stop-color:#834E94"/>
			<stop  offset="1" style="stop-color:#814A8B"/>
		</linearGradient>
		<rect x="31.7" y="98.2" class="st5" width="200.3" height="61.7"/>
	</g>
</g>
<g id="Logomark_2_">
	<defs>
		<path id="Traces_1_" d="M97.5,94c0,0.7-0.6,1.3-1.3,1.3c-0.5,0-0.9-0.3-1.1-0.6h-7.7l-2.4,2.4h-2c-0.2,0.4-0.6,0.6-1.1,0.6
			c-0.7,0-1.3-0.6-1.3-1.3S81.3,95,82,95c0.5,0,0.9,0.3,1.1,0.6h1.4l2.4-2.4h5L89.7,91h-4.2c-0.2,0.4-0.6,0.6-1.1,0.6
			c-0.7,0-1.3-0.6-1.3-1.3s0.6-1.3,1.3-1.3c0.5,0,0.9,0.3,1.1,0.6h4.8l3.7,3.7h1.2c0.2-0.4,0.6-0.6,1.1-0.6
			C96.9,92.7,97.5,93.3,97.5,94z M99.4,84c-0.5,0-0.9,0.3-1.1,0.6H87.4c-0.2-0.4-0.6-0.6-1.1-0.6c-0.7,0-1.3,0.6-1.3,1.3
			s0.6,1.3,1.3,1.3c0.5,0,0.9-0.3,1.1-0.6h10.9c0.2,0.4,0.6,0.6,1.1,0.6c0.7,0,1.3-0.6,1.3-1.3S100.1,84,99.4,84z M102.8,74.8
			c-0.5,0-0.9,0.3-1.1,0.6h-4h-0.3h-6.4c-0.2-0.4-0.6-0.6-1.1-0.6c-0.7,0-1.3,0.6-1.3,1.3c0,0.7,0.6,1.3,1.3,1.3
			c0.5,0,0.9-0.3,1.1-0.6h5l-2.6,2.6h-4c-0.2-0.4-0.6-0.6-1.1-0.6c-0.7,0-1.3,0.6-1.3,1.3s0.6,1.3,1.3,1.3c0.5,0,0.9-0.3,1.1-0.6
			h4.5l4-4h3.7c0.2,0.4,0.6,0.6,1.1,0.6c0.7,0,1.3-0.6,1.3-1.3C104.1,75.4,103.5,74.8,102.8,74.8z M105,68.8c-0.5,0-0.9,0.3-1.1,0.6
			H93.2c-0.2-0.4-0.6-0.6-1.1-0.6c-0.7,0-1.3,0.6-1.3,1.3s0.6,1.3,1.3,1.3c0.5,0,0.9-0.3,1.1-0.6h10.6c0.2,0.4,0.6,0.6,1.1,0.6
			c0.7,0,1.3-0.6,1.3-1.3S105.7,68.8,105,68.8z M106.2,65.3c-0.5,0-0.9,0.3-1.1,0.6H94.6c-0.2-0.4-0.6-0.6-1.1-0.6
			c-0.7,0-1.3,0.6-1.3,1.3s0.6,1.3,1.3,1.3c0.5,0,0.9-0.3,1.1-0.6h10.6c0.2,0.4,0.6,0.6,1.1,0.6c0.7,0,1.3-0.6,1.3-1.3
			S107,65.3,106.2,65.3z M107.5,61.9c-0.5,0-0.9,0.3-1.1,0.6H95.9c-0.2-0.4-0.6-0.6-1.1-0.6c-0.7,0-1.3,0.6-1.3,1.3s0.6,1.3,1.3,1.3
			c0.5,0,0.9-0.3,1.1-0.6h10.5c0.2,0.4,0.6,0.6,1.1,0.6c0.7,0,1.3-0.6,1.3-1.3S108.3,61.9,107.5,61.9z M111.2,51.7
			c-0.5,0-0.9,0.3-1.1,0.6H104l-4.2,4.2h-1.6C98,56.2,97.6,56,97.1,56c-0.7,0-1.3,0.6-1.3,1.3s0.6,1.3,1.3,1.3
			c0.5,0,0.9-0.3,1.1-0.6h10.4c0.2,0.4,0.6,0.6,1.1,0.6c0.7,0,1.3-0.6,1.3-1.3s-0.6-1.3-1.3-1.3c-0.5,0-0.9,0.3-1.1,0.6h-6.8
			l2.8-2.8h5.5c0.2,0.4,0.6,0.6,1.1,0.6c0.7,0,1.3-0.6,1.3-1.3C112.6,52.3,112,51.7,111.2,51.7z M102,46c0.5,0,0.9-0.3,1.1-0.6h5.1
			l3.6-3.6h11.1c0.2,0.4,0.6,0.6,1.1,0.6c0.7,0,1.3-0.6,1.3-1.3s-0.6-1.3-1.3-1.3c-0.5,0-0.9,0.3-1.1,0.6h-3.2l-4.5-4.5h-9
			c-0.2-0.4-0.6-0.6-1.1-0.6c-0.7,0-1.3,0.6-1.3,1.3c0,0.7,0.6,1.3,1.3,1.3c0.5,0,0.9-0.3,1.1-0.6h8.4l3.1,3.1h-6.5l-3.6,3.6h-4.5
			c-0.2-0.4-0.6-0.6-1.1-0.6c-0.7,0-1.3,0.6-1.3,1.3S101.3,46,102,46z M100.4,50.1c0.5,0,0.9-0.3,1.1-0.6h24.4
			c0.2,0.4,0.6,0.6,1.1,0.6c0.7,0,1.3-0.6,1.3-1.3s-0.6-1.3-1.3-1.3c-0.5,0-0.9,0.3-1.1,0.6h-2.1l-4.1-4.1h-4.9
			c-0.2-0.4-0.6-0.6-1.1-0.6c-0.7,0-1.3,0.6-1.3,1.3s0.6,1.3,1.3,1.3c0.5,0,0.9-0.3,1.1-0.6h4.3l2.7,2.7h-20.3
			c-0.2-0.4-0.6-0.6-1.1-0.6c-0.7,0-1.3,0.6-1.3,1.3S99.7,50.1,100.4,50.1z M121.4,53.8l4.2,4.2h3.7c0.2,0.4,0.6,0.6,1.1,0.6
			c0.7,0,1.3-0.6,1.3-1.3s-0.6-1.3-1.3-1.3c-0.5,0-0.9,0.3-1.1,0.6h-3.1l-4.2-4.2h-4.8c-0.2-0.4-0.6-0.6-1.1-0.6
			c-0.7,0-1.3,0.6-1.3,1.3c0,0.7,0.6,1.3,1.3,1.3c0.5,0,0.9-0.3,1.1-0.6H121.4z M131.6,63.9c0.2,0.4,0.6,0.6,1.1,0.6
			c0.7,0,1.3-0.6,1.3-1.3s-0.6-1.3-1.3-1.3c-0.5,0-0.9,0.3-1.1,0.6h-10.8c-0.2-0.4-0.6-0.6-1.1-0.6c-0.7,0-1.3,0.6-1.3,1.3
			s0.6,1.3,1.3,1.3c0.5,0,0.9-0.3,1.1-0.6H131.6z M123.3,70.9h10.9c0.2,0.4,0.6,0.6,1.1,0.6c0.7,0,1.3-0.6,1.3-1.3s-0.6-1.3-1.3-1.3
			c-0.5,0-0.9,0.3-1.1,0.6h-10.9c-0.2-0.4-0.6-0.6-1.1-0.6c-0.7,0-1.3,0.6-1.3,1.3s0.6,1.3,1.3,1.3
			C122.7,71.5,123.1,71.2,123.3,70.9z M130.6,80.8l3.9,4h5.2c0.2,0.4,0.6,0.6,1.1,0.6c0.7,0,1.3-0.6,1.3-1.3c0-0.7-0.6-1.3-1.3-1.3
			c-0.5,0-0.9,0.3-1.1,0.6h-4.6l-2.5-2.6h3.8h0.3h1.5c0.2,0.4,0.6,0.6,1.1,0.6c0.7,0,1.3-0.6,1.3-1.3s-0.6-1.3-1.3-1.3
			c-0.5,0-0.9,0.3-1.1,0.6H137l-4-4h-7.5c-0.2-0.4-0.6-0.6-1.1-0.6c-0.7,0-1.3,0.6-1.3,1.3c0,0.7,0.6,1.3,1.3,1.3
			c0.5,0,0.9-0.3,1.1-0.6h7l2.5,2.5h-8.1c-0.2-0.4-0.6-0.6-1.1-0.6c-0.7,0-1.3,0.6-1.3,1.3s0.6,1.3,1.3,1.3c0.5,0,0.9-0.3,1.1-0.6
			H130.6z M132.3,91l5.2,5.2h8.8c0.2,0.4,0.6,0.6,1.1,0.6c0.7,0,1.3-0.6,1.3-1.3s-0.6-1.3-1.3-1.3c-0.5,0-0.9,0.3-1.1,0.6h-8.2
			l-3.8-3.8h7.8c0.2,0.4,0.6,0.6,1.1,0.6c0.7,0,1.3-0.6,1.3-1.3S144,89,143.3,89c-0.5,0-0.9,0.3-1.1,0.6h-11.5
			c-0.2-0.4-0.6-0.6-1.1-0.6c-0.7,0-1.3,0.6-1.3,1.3s0.6,1.3,1.3,1.3c0.5,0,0.9-0.3,1.1-0.6H132.3z M192.2,83.9
			c-0.5,0-0.9,0.3-1.1,0.6h-4.9l-5.1,5.1H179c-0.2-0.4-0.6-0.6-1.1-0.6c-0.7,0-1.3,0.6-1.3,1.3s0.6,1.3,1.3,1.3
			c0.5,0,0.9-0.3,1.1-0.6h2.8l5.1-5.1h4.3c0.2,0.4,0.6,0.6,1.1,0.6c0.7,0,1.3-0.6,1.3-1.3S193,83.9,192.2,83.9z M190.4,89
			c-0.5,0-0.9,0.3-1.1,0.6h-2.1l-5.2,5.2h-12.2l-5.2-5.2h-2.1c-0.2-0.4-0.6-0.6-1.1-0.6c-0.7,0-1.3,0.6-1.3,1.3s0.6,1.3,1.3,1.3
			c0.5,0,0.9-0.3,1.1-0.6h1.5l3.8,3.8H154l-4.3,4.3h-15.7c-0.2-0.4-0.6-0.6-1.1-0.6c-0.7,0-1.3,0.6-1.3,1.3s0.6,1.3,1.3,1.3
			c0.5,0,0.9-0.3,1.1-0.6h16.2l4.3-4.3h32.7c0.2,0.4,0.6,0.6,1.1,0.6c0.7,0,1.3-0.6,1.3-1.3s-0.6-1.3-1.3-1.3
			c-0.5,0-0.9,0.3-1.1,0.6h-3.4l3.8-3.8h1.5c0.2,0.4,0.6,0.6,1.1,0.6c0.7,0,1.3-0.6,1.3-1.3S191.1,89,190.4,89z M197.2,70.8
			c-0.5,0-0.9,0.3-1.1,0.6H189l-3.9,4h-1c-0.2-0.4-0.6-0.6-1.1-0.6c-0.7,0-1.3,0.6-1.3,1.3c0,0.7,0.6,1.3,1.3,1.3
			c0.5,0,0.9-0.3,1.1-0.6h6.5l-2.5,2.5h-5.4c-0.2-0.4-0.6-0.6-1.1-0.6c-0.7,0-1.3,0.6-1.3,1.3s0.6,1.3,1.3,1.3
			c0.5,0,0.9-0.3,1.1-0.6h5.9l4-4h2c0.2,0.4,0.6,0.6,1.1,0.6c0.7,0,1.3-0.6,1.3-1.3c0-0.7-0.6-1.3-1.3-1.3c-0.5,0-0.9,0.3-1.1,0.6
			h-7.5l2.5-2.5h6.5c0.2,0.4,0.6,0.6,1.1,0.6c0.7,0,1.3-0.6,1.3-1.3S197.9,70.8,197.2,70.8z M200.5,61.9c-0.5,0-0.9,0.3-1.1,0.6
			h-6.2l-3.5,3.5h-2.5c-0.2-0.4-0.6-0.6-1.1-0.6c-0.7,0-1.3,0.6-1.3,1.3s0.6,1.3,1.3,1.3c0.5,0,0.9-0.3,1.1-0.6h10.8
			c0.2,0.4,0.6,0.6,1.1,0.6c0.7,0,1.3-0.6,1.3-1.3s-0.6-1.3-1.3-1.3c-0.5,0-0.9,0.3-1.1,0.6h-6.3l2.1-2.1h5.6
			c0.2,0.4,0.6,0.6,1.1,0.6c0.7,0,1.3-0.6,1.3-1.3S201.3,61.9,200.5,61.9z M202.7,56c-0.5,0-0.9,0.3-1.1,0.6h-11
			c-0.2-0.4-0.6-0.6-1.1-0.6c-0.7,0-1.3,0.6-1.3,1.3s0.6,1.3,1.3,1.3c0.5,0,0.9-0.3,1.1-0.6h11c0.2,0.4,0.6,0.6,1.1,0.6
			c0.7,0,1.3-0.6,1.3-1.3S203.5,56,202.7,56z M204.3,51.7c-0.5,0-0.9,0.3-1.1,0.6h-11.2c-0.2-0.4-0.6-0.6-1.1-0.6
			c-0.7,0-1.3,0.6-1.3,1.3c0,0.7,0.6,1.3,1.3,1.3c0.5,0,0.9-0.3,1.1-0.6h11.2c0.2,0.4,0.6,0.6,1.1,0.6c0.7,0,1.3-0.6,1.3-1.3
			C205.7,52.3,205.1,51.7,204.3,51.7z M208.9,39.7c-0.5,0-0.9,0.3-1.1,0.6h-3l-4.4-4.4h-2.5c-0.2-0.4-0.6-0.6-1.1-0.6
			c-0.7,0-1.3,0.6-1.3,1.3c0,0.7,0.6,1.3,1.3,1.3c0.5,0,0.9-0.3,1.1-0.6h1.9l3,3h-6.5c-0.2-0.4-0.6-0.6-1.1-0.6
			c-0.7,0-1.3,0.6-1.3,1.3s0.6,1.3,1.3,1.3c0.5,0,0.9-0.3,1.1-0.6h7.9h0.3h3.3c0.2,0.4,0.6,0.6,1.1,0.6c0.7,0,1.3-0.6,1.3-1.3
			S209.6,39.7,208.9,39.7z M142.9,42.3c0.5,0,0.9-0.3,1.1-0.6h3.3h0.3h7.9c0.2,0.4,0.6,0.6,1.1,0.6c0.7,0,1.3-0.6,1.3-1.3
			s-0.6-1.3-1.3-1.3c-0.5,0-0.9,0.3-1.1,0.6H149l3-3h1.9c0.2,0.4,0.6,0.6,1.1,0.6c0.7,0,1.3-0.6,1.3-1.3c0-0.7-0.6-1.3-1.3-1.3
			c-0.5,0-0.9,0.3-1.1,0.6h-2.5l-4.4,4.4h-3c-0.2-0.4-0.6-0.6-1.1-0.6c-0.7,0-1.3,0.6-1.3,1.3S142.2,42.3,142.9,42.3z M156.8,44
			h-3.1l-4.1,4.1h-2.8c-0.2-0.4-0.6-0.6-1.1-0.6c-0.7,0-1.3,0.6-1.3,1.3s0.6,1.3,1.3,1.3c0.5,0,0.9-0.3,1.1-0.6h6.9l-2.9,2.9h-2.4
			c-0.2-0.4-0.6-0.6-1.1-0.6c-0.7,0-1.3,0.6-1.3,1.3c0,0.7,0.6,1.3,1.3,1.3c0.5,0,0.9-0.3,1.1-0.6h3l4.3-4.3h2.6
			c0.2,0.4,0.6,0.6,1.1,0.6c0.7,0,1.3-0.6,1.3-1.3s-0.6-1.3-1.3-1.3c-0.5,0-0.9,0.3-1.1,0.6h-6.7l2.7-2.7h2.5
			c0.2,0.4,0.6,0.6,1.1,0.6c0.7,0,1.3-0.6,1.3-1.3s-0.6-1.3-1.3-1.3C157.4,43.3,157,43.6,156.8,44z M150,56.6
			c-0.2-0.4-0.6-0.6-1.1-0.6c-0.7,0-1.3,0.6-1.3,1.3s0.6,1.3,1.3,1.3c0.5,0,0.9-0.3,1.1-0.6h11.3c0.2,0.4,0.6,0.6,1.1,0.6
			c0.7,0,1.3-0.6,1.3-1.3s-0.6-1.3-1.3-1.3c-0.5,0-0.9,0.3-1.1,0.6H150z M163.4,62.5h-11.1c-0.2-0.4-0.6-0.6-1.1-0.6
			c-0.7,0-1.3,0.6-1.3,1.3s0.6,1.3,1.3,1.3c0.5,0,0.9-0.3,1.1-0.6h11.1c0.2,0.4,0.6,0.6,1.1,0.6c0.7,0,1.3-0.6,1.3-1.3
			s-0.6-1.3-1.3-1.3C164,61.9,163.6,62.1,163.4,62.5z M162.3,69.4l-3.5-3.5h-5.2c-0.2-0.4-0.6-0.6-1.1-0.6c-0.7,0-1.3,0.6-1.3,1.3
			s0.6,1.3,1.3,1.3c0.5,0,0.9-0.3,1.1-0.6h4.7l2.1,2.1h-5.4c-0.2-0.4-0.6-0.6-1.1-0.6c-0.7,0-1.3,0.6-1.3,1.3s0.6,1.3,1.3,1.3
			c0.5,0,0.9-0.3,1.1-0.6h6.8h0.3h3.9c0.2,0.4,0.6,0.6,1.1,0.6c0.7,0,1.3-0.6,1.3-1.3s-0.6-1.3-1.3-1.3c-0.5,0-0.9,0.3-1.1,0.6
			H162.3z M168,75.4h-10.9c-0.2-0.4-0.6-0.6-1.1-0.6c-0.7,0-1.3,0.6-1.3,1.3c0,0.7,0.6,1.3,1.3,1.3c0.5,0,0.9-0.3,1.1-0.6H168
			c0.2,0.4,0.6,0.6,1.1,0.6c0.7,0,1.3-0.6,1.3-1.3c0-0.7-0.6-1.3-1.3-1.3C168.6,74.8,168.2,75.1,168,75.4z M170.8,89.6l-5.1-5.1
			h-5.2c-0.2-0.4-0.6-0.6-1.1-0.6c-0.7,0-1.3,0.6-1.3,1.3c0,0.7,0.6,1.3,1.3,1.3c0.5,0,0.9-0.3,1.1-0.6h4.6l5.1,5.1h2.8
			c0.2,0.4,0.6,0.6,1.1,0.6c0.7,0,1.3-0.6,1.3-1.3s-0.6-1.3-1.3-1.3c-0.5,0-0.9,0.3-1.1,0.6H170.8z M169.4,79.4h-10.8
			c-0.2-0.4-0.6-0.6-1.1-0.6c-0.7,0-1.3,0.6-1.3,1.3s0.6,1.3,1.3,1.3c0.5,0,0.9-0.3,1.1-0.6h10.8c0.2,0.4,0.6,0.6,1.1,0.6
			c0.7,0,1.3-0.6,1.3-1.3s-0.6-1.3-1.3-1.3C170,78.8,169.6,79,169.4,79.4z M93.3,100.7c-0.5,0-0.9,0.3-1.1,0.6H80.9
			c-0.2-0.4-0.6-0.6-1.1-0.6c-0.7,0-1.3,0.6-1.3,1.3s0.6,1.3,1.3,1.3c0.5,0,0.9-0.3,1.1-0.6h4.6l-2.9,2.9h-3.4
			c-0.2-0.4-0.6-0.6-1.1-0.6c-0.7,0-1.3,0.6-1.3,1.3s0.6,1.3,1.3,1.3c0.5,0,0.9-0.3,1.1-0.6h4l4.3-4.3h4.6c0.2,0.4,0.6,0.6,1.1,0.6
			c0.7,0,1.3-0.6,1.3-1.3S94,100.7,93.3,100.7z M184.4,104.9c-0.5,0-0.9,0.3-1.1,0.6h-46.8c-0.2-0.4-0.6-0.6-1.1-0.6
			c-0.7,0-1.3,0.6-1.3,1.3s0.6,1.3,1.3,1.3c0.5,0,0.9-0.3,1.1-0.6h46.8c0.2,0.4,0.6,0.6,1.1,0.6c0.7,0,1.3-0.6,1.3-1.3
			S185.1,104.9,184.4,104.9z M186,100.7c-0.5,0-0.9,0.3-1.1,0.6h-12.4l-2.2-2.2h-11.9c-0.2-0.4-0.6-0.6-1.1-0.6
			c-0.7,0-1.3,0.6-1.3,1.3s0.6,1.3,1.3,1.3c0.5,0,0.9-0.3,1.1-0.6h11.4l2.2,2.2h13c0.2,0.4,0.6,0.6,1.1,0.6c0.7,0,1.3-0.6,1.3-1.3
			S186.7,100.7,186,100.7z"/>
	</defs>
	<clipPath id="Traces_2_">
		<use xlink:href="#Traces_1_"  style="overflow:visible;"/>
	</clipPath>
	<g class="st6">
		<rect x="74.2" y="32.5" class="st3" width="151.8" height="146.1"/>
		<rect x="74.2" y="32.5" class="st4" width="151.8" height="146.1"/>
		
			<linearGradient id="SVGID_2_" gradientUnits="userSpaceOnUse" x1="205.7611" y1="62.9908" x2="314.5595" y2="125.8056" gradientTransform="matrix(1 0 0 1 -114.96 8.34)">
			<stop  offset="0" style="stop-color:#62D0FF"/>
			<stop  offset="0.575" style="stop-color:#9168CA"/>
			<stop  offset="0.6712" style="stop-color:#9065C4"/>
			<stop  offset="0.7972" style="stop-color:#8B5DB4"/>
			<stop  offset="0.939" style="stop-color:#855199"/>
			<stop  offset="1" style="stop-color:#814A8B"/>
		</linearGradient>
		<rect x="74.2" y="32.5" class="st7" width="151.8" height="146.1"/>
	</g>
	<polygon id="Logomark_3_" class="st8" points="212.4,35.2 185.2,107.7 134.5,107.7 113.6,50.2 92.5,107.7 76.3,107.7 104.4,35.2 
		123,35.2 146.1,94.1 161.4,94.1 139.3,35.2 155.9,35.2 176,92 195.9,35.2 	"/>
	<g id="Traces" class="st9">
		<g class="st10">
			<g>
				<polyline class="st11" points="81.9,96.4 84.8,96.4 87.1,94 96.3,94 				"/>
				<g>
					<circle class="st12" cx="82" cy="96.4" r="1.3"/>
				</g>
				<g>
					<circle class="st12" cx="96.2" cy="94" r="1.3"/>
				</g>
			</g>
		</g>
		<g class="st10">
			<g>
				<polyline class="st11" points="84.3,90.3 89.9,90.3 93.6,94 				"/>
				<g>
					<circle class="st12" cx="84.3" cy="90.3" r="1.3"/>
				</g>
			</g>
		</g>
		<g class="st10">
			<g>
				<line class="st11" x1="86.2" y1="85.3" x2="99.5" y2="85.3"/>
				<g>
					<circle class="st12" cx="86.3" cy="85.3" r="1.3"/>
				</g>
				<g>
					<circle class="st12" cx="99.4" cy="85.3" r="1.3"/>
				</g>
			</g>
		</g>
		<g class="st10">
			<g>
				<line class="st11" x1="97.6" y1="76.1" x2="89.8" y2="76.1"/>
				<g>
					<circle class="st12" cx="89.8" cy="76.1" r="1.3"/>
				</g>
			</g>
		</g>
		<g class="st10">
			<g>
				<polyline class="st11" points="88.2,80.1 93.6,80.1 97.6,76.1 102.8,76.1 				"/>
				<g>
					<circle class="st12" cx="88.3" cy="80.1" r="1.3"/>
				</g>
				<g>
					<circle class="st12" cx="102.8" cy="76.1" r="1.3"/>
				</g>
			</g>
		</g>
		<g class="st10">
			<g>
				<line class="st11" x1="92.1" y1="70.1" x2="105" y2="70.1"/>
				<g>
					<circle class="st12" cx="92.1" cy="70.1" r="1.3"/>
				</g>
				<g>
					<circle class="st12" cx="105" cy="70.1" r="1.3"/>
				</g>
			</g>
		</g>
		<g class="st10">
			<g>
				<line class="st11" x1="93.4" y1="66.7" x2="106.3" y2="66.7"/>
				<g>
					<circle class="st12" cx="93.5" cy="66.7" r="1.3"/>
				</g>
				<g>
					<circle class="st12" cx="106.2" cy="66.7" r="1.3"/>
				</g>
			</g>
		</g>
		<g class="st10">
			<g>
				<line class="st11" x1="94.8" y1="63.2" x2="107.6" y2="63.2"/>
				<g>
					<circle class="st12" cx="94.8" cy="63.2" r="1.3"/>
				</g>
				<g>
					<circle class="st12" cx="107.5" cy="63.2" r="1.3"/>
				</g>
			</g>
		</g>
		<g class="st10">
			<g>
				<line class="st11" x1="97.1" y1="57.3" x2="109.8" y2="57.3"/>
				<g>
					<circle class="st12" cx="97.1" cy="57.3" r="1.3"/>
				</g>
				<g>
					<circle class="st12" cx="109.7" cy="57.3" r="1.3"/>
				</g>
			</g>
		</g>
		<g class="st10">
			<g>
				<polyline class="st11" points="111.3,53.1 104.3,53.1 100.1,57.2 				"/>
				<g>
					<circle class="st12" cx="111.2" cy="53.1" r="1.3"/>
				</g>
			</g>
		</g>
		<g class="st10">
			<g>
				<polyline class="st11" points="105.1,36.6 114.9,36.6 119.4,41.1 				"/>
				<g>
					<circle class="st12" cx="105.1" cy="36.6" r="1.3"/>
				</g>
			</g>
		</g>
		<g class="st10">
			<g>
				<polyline class="st11" points="124.1,41.1 111.5,41.1 107.9,44.7 101.9,44.7 				"/>
				<g>
					<circle class="st12" cx="124" cy="41.1" r="1.3"/>
				</g>
				<g>
					<circle class="st12" cx="102" cy="44.7" r="1.3"/>
				</g>
			</g>
		</g>
		<g class="st10">
			<g>
				<line class="st11" x1="100.4" y1="48.8" x2="127.1" y2="48.8"/>
				<g>
					<circle class="st12" cx="100.4" cy="48.8" r="1.3"/>
				</g>
				<g>
					<circle class="st12" cx="127" cy="48.8" r="1.3"/>
				</g>
			</g>
		</g>
		<g class="st10">
			<g>
				<polyline class="st11" points="113.7,44.7 119.4,44.7 123.5,48.8 				"/>
				<g>
					<circle class="st12" cx="113.7" cy="44.7" r="1.3"/>
				</g>
			</g>
		</g>
		<g class="st10">
			<g>
				<polyline class="st11" points="116,53.1 121.6,53.1 125.9,57.3 130.4,57.3 				"/>
				<g>
					<circle class="st12" cx="116" cy="53.1" r="1.3"/>
				</g>
				<g>
					<circle class="st12" cx="130.4" cy="57.3" r="1.3"/>
				</g>
			</g>
		</g>
		<g class="st10">
			<g>
				<line class="st11" x1="119.6" y1="63.2" x2="132.7" y2="63.2"/>
				<g>
					<circle class="st12" cx="119.7" cy="63.2" r="1.3"/>
				</g>
				<g>
					<circle class="st12" cx="132.7" cy="63.2" r="1.3"/>
				</g>
			</g>
		</g>
		<g class="st10">
			<g>
				<line class="st11" x1="122.2" y1="70.1" x2="135.4" y2="70.1"/>
				<g>
					<circle class="st12" cx="122.2" cy="70.1" r="1.3"/>
				</g>
				<g>
					<circle class="st12" cx="135.4" cy="70.1" r="1.3"/>
				</g>
			</g>
		</g>
		<g class="st10">
			<g>
				<polyline class="st11" points="124.3,76.1 132.7,76.1 136.7,80.1 139.3,80.1 				"/>
				<g>
					<circle class="st12" cx="124.4" cy="76.1" r="1.3"/>
				</g>
				<g>
					<circle class="st12" cx="139.3" cy="80.1" r="1.3"/>
				</g>
			</g>
		</g>
		<g class="st10">
			<g>
				<line class="st11" x1="136.7" y1="80.1" x2="125.8" y2="80.1"/>
				<g>
					<circle class="st12" cx="125.8" cy="80.1" r="1.3"/>
				</g>
			</g>
		</g>
		<g class="st10">
			<g>
				<polyline class="st11" points="140.9,84.1 134.8,84.1 130.9,80.1 				"/>
				<g>
					<circle class="st12" cx="140.8" cy="84.1" r="1.3"/>
				</g>
			</g>
		</g>
		<g class="st10">
			<g>
				<line class="st11" x1="129.5" y1="90.3" x2="143.3" y2="90.3"/>
				<g>
					<circle class="st12" cx="129.6" cy="90.3" r="1.3"/>
				</g>
				<g>
					<circle class="st12" cx="143.3" cy="90.3" r="1.3"/>
				</g>
			</g>
		</g>
		<g class="st10">
			<g>
				<polyline class="st11" points="147.5,95.5 137.8,95.5 132.6,90.4 				"/>
				<g>
					<circle class="st12" cx="147.4" cy="95.5" r="1.3"/>
				</g>
			</g>
		</g>
		<g class="st10">
			<g>
				<polyline class="st11" points="188.5,95.5 154.3,95.5 150,99.8 132.9,99.8 				"/>
				<g>
					<circle class="st12" cx="188.4" cy="95.5" r="1.3"/>
				</g>
				<g>
					<circle class="st12" cx="133" cy="99.8" r="1.3"/>
				</g>
			</g>
		</g>
		<g class="st10">
			<g>
				<polyline class="st11" points="177.9,90.3 181.5,90.3 186.6,85.3 192.3,85.3 				"/>
				<g>
					<circle class="st12" cx="177.9" cy="90.3" r="1.3"/>
				</g>
				<g>
					<circle class="st12" cx="192.2" cy="85.3" r="1.3"/>
				</g>
			</g>
		</g>
		<g class="st10">
			<g>
				<polyline class="st11" points="182.2,95.5 187.5,90.3 190.4,90.3 				"/>
				<g>
					<circle class="st12" cx="190.4" cy="90.3" r="1.3"/>
				</g>
			</g>
		</g>
		<g class="st10">
			<g>
				<line class="st11" x1="195.7" y1="76.1" x2="182.8" y2="76.1"/>
				<g>
					<circle class="st12" cx="195.7" cy="76.1" r="1.3"/>
				</g>
				<g>
					<circle class="st12" cx="182.9" cy="76.1" r="1.3"/>
				</g>
			</g>
		</g>
		<g class="st10">
			<g>
				<polyline class="st11" points="181.5,80.1 188.3,80.1 192.3,76.1 				"/>
				<g>
					<circle class="st12" cx="181.5" cy="80.1" r="1.3"/>
				</g>
			</g>
		</g>
		<g class="st10">
			<g>
				<polyline class="st11" points="197.2,72.2 189.3,72.2 185.3,76.1 				"/>
				<g>
					<circle class="st12" cx="197.2" cy="72.2" r="1.3"/>
				</g>
			</g>
		</g>
		<g class="st10">
			<g>
				<line class="st11" x1="186.2" y1="66.7" x2="199.3" y2="66.7"/>
				<g>
					<circle class="st12" cx="186.2" cy="66.7" r="1.3"/>
				</g>
				<g>
					<circle class="st12" cx="199.2" cy="66.7" r="1.3"/>
				</g>
			</g>
		</g>
		<g class="st10">
			<g>
				<polyline class="st11" points="200.6,63.2 193.6,63.2 189.9,66.9 				"/>
				<g>
					<circle class="st12" cx="200.5" cy="63.2" r="1.3"/>
				</g>
			</g>
		</g>
		<g class="st10">
			<g>
				<line class="st11" x1="189.4" y1="57.3" x2="202.8" y2="57.3"/>
				<g>
					<circle class="st12" cx="189.5" cy="57.3" r="1.3"/>
				</g>
				<g>
					<circle class="st12" cx="202.7" cy="57.3" r="1.3"/>
				</g>
			</g>
		</g>
		<g class="st10">
			<g>
				<line class="st11" x1="190.9" y1="53.1" x2="204.4" y2="53.1"/>
				<g>
					<circle class="st12" cx="191" cy="53.1" r="1.3"/>
				</g>
				<g>
					<circle class="st12" cx="204.3" cy="53.1" r="1.3"/>
				</g>
			</g>
		</g>
		<g class="st10">
			<g>
				<polyline class="st11" points="196.7,36.6 200.1,36.6 204.5,41 208.9,41 				"/>
				<g>
					<circle class="st12" cx="196.7" cy="36.6" r="1.3"/>
				</g>
				<g>
					<circle class="st12" cx="208.9" cy="41" r="1.3"/>
				</g>
			</g>
		</g>
		<g class="st10">
			<g>
				<line class="st11" x1="195.1" y1="41" x2="204.5" y2="41"/>
				<g>
					<circle class="st12" cx="195.2" cy="41" r="1.3"/>
				</g>
			</g>
		</g>
		<g class="st10">
			<g>
				<polyline class="st11" points="155.1,36.6 151.7,36.6 147.3,41 142.9,41 				"/>
				<g>
					<circle class="st12" cx="155" cy="36.6" r="1.3"/>
				</g>
				<g>
					<circle class="st12" cx="142.9" cy="41" r="1.3"/>
				</g>
			</g>
		</g>
		<g class="st10">
			<g>
				<line class="st11" x1="156.7" y1="41" x2="147.3" y2="41"/>
				<g>
					<circle class="st12" cx="156.6" cy="41" r="1.3"/>
				</g>
			</g>
		</g>
		<g class="st10">
			<g>
				<polyline class="st11" points="158,44.7 154,44.7 149.9,48.8 				"/>
				<g>
					<circle class="st12" cx="157.9" cy="44.7" r="1.3"/>
				</g>
			</g>
		</g>
		<g class="st10">
			<g>
				<line class="st11" x1="145.7" y1="48.8" x2="159.4" y2="48.8"/>
				<g>
					<circle class="st12" cx="145.7" cy="48.8" r="1.3"/>
				</g>
				<g>
					<circle class="st12" cx="159.4" cy="48.8" r="1.3"/>
				</g>
			</g>
		</g>
		<g class="st10">
			<g>
				<polyline class="st11" points="147.3,53.1 151.1,53.1 155.4,48.8 				"/>
				<g>
					<circle class="st12" cx="147.3" cy="53.1" r="1.3"/>
				</g>
			</g>
		</g>
		<g class="st10">
			<g>
				<line class="st11" x1="148.9" y1="57.3" x2="162.4" y2="57.3"/>
				<g>
					<circle class="st12" cx="148.9" cy="57.3" r="1.3"/>
				</g>
				<g>
					<circle class="st12" cx="162.4" cy="57.3" r="1.3"/>
				</g>
			</g>
		</g>
		<g class="st10">
			<g>
				<line class="st11" x1="151.1" y1="63.2" x2="164.5" y2="63.2"/>
				<g>
					<circle class="st12" cx="151.1" cy="63.2" r="1.3"/>
				</g>
				<g>
					<circle class="st12" cx="164.5" cy="63.2" r="1.3"/>
				</g>
			</g>
		</g>
		<g class="st10">
			<g>
				<polyline class="st11" points="152.4,66.7 158.5,66.7 162,70.2 167,70.2 				"/>
				<g>
					<circle class="st12" cx="152.4" cy="66.7" r="1.3"/>
				</g>
				<g>
					<circle class="st12" cx="166.9" cy="70.2" r="1.3"/>
				</g>
			</g>
		</g>
		<g class="st10">
			<g>
				<line class="st11" x1="153.7" y1="70.2" x2="162" y2="70.2"/>
				<g>
					<circle class="st12" cx="153.7" cy="70.2" r="1.3"/>
				</g>
			</g>
		</g>
		<g class="st10">
			<g>
				<line class="st11" x1="169.1" y1="76.1" x2="155.9" y2="76.1"/>
				<g>
					<circle class="st12" cx="169.1" cy="76.1" r="1.3"/>
				</g>
				<g>
					<circle class="st12" cx="156" cy="76.1" r="1.3"/>
				</g>
			</g>
		</g>
		<g class="st10">
			<g>
				<polyline class="st11" points="174.1,90.3 170.5,90.3 165.4,85.3 159.4,85.3 				"/>
				<g>
					<circle class="st12" cx="174.1" cy="90.3" r="1.3"/>
				</g>
				<g>
					<circle class="st12" cx="159.4" cy="85.3" r="1.3"/>
				</g>
			</g>
		</g>
		<g class="st10">
			<g>
				<line class="st11" x1="157.4" y1="80.1" x2="170.5" y2="80.1"/>
				<g>
					<circle class="st12" cx="157.5" cy="80.1" r="1.3"/>
				</g>
				<g>
					<circle class="st12" cx="170.5" cy="80.1" r="1.3"/>
				</g>
			</g>
		</g>
		<g class="st10">
			<g>
				<polyline class="st11" points="169.4,95.5 164.2,90.3 161.2,90.3 				"/>
				<g>
					<circle class="st12" cx="161.3" cy="90.3" r="1.3"/>
				</g>
			</g>
		</g>
		<g class="st10">
			<g>
				<line class="Trace" x1="79.7" y1="102" x2="93.3" y2="102"/>
				<g>
					<circle class="st12" cx="79.8" cy="102" r="1.3"/>
				</g>
				<g>
					<circle class="st12" cx="93.3" cy="102" r="1.3"/>
				</g>
			</g>
		</g>
		<g class="st10">
			<g>
				<polyline class="Start_x0020_Trace" points="78.1,106.3 83,106.3 87.3,102 				"/>
				<g>
					<circle class="st12" cx="78.2" cy="106.3" r="1.3"/>
				</g>
			</g>
		</g>
		<g class="st10">
			<g>
				<line class="st11" x1="135.3" y1="106.3" x2="184.4" y2="106.3"/>
				<g>
					<circle class="st12" cx="135.3" cy="106.3" r="1.3"/>
				</g>
				<g>
					<circle class="st12" cx="184.4" cy="106.3" r="1.3"/>
				</g>
			</g>
		</g>
		<g class="st10">
			<g>
				<polyline class="Trace" points="157.2,99.8 170,99.8 172.2,102 186,102 				"/>
				<g>
					<circle class="st12" cx="157.3" cy="99.8" r="1.3"/>
				</g>
				<g>
					<circle class="st12" cx="186" cy="102" r="1.3"/>
				</g>
			</g>
		</g>
	</g>
</g>
<g id="algovision_1_" class="st0">
	<text id="Wordmark_4_" transform="matrix(1 0 0 1 61.6941 143.7163)" class="st10 st13 st14">ALGOVISION</text>
	<g id="Logomark" class="st10">
		<g id="Layer_14">
		</g>
		<g id="Layer_15">
			<g id="Layer_17">
			</g>
			<g id="Layer_16">
				<polygon points="123,35.2 104.4,35.2 76.3,107.7 92.5,107.7 98.1,92.3 98.2,92.3 113.6,50.2 130.1,95.3 130,95.3 134.5,107.7 
					151.4,107.7 				"/>
			</g>
		</g>
		<g id="Layer_13">
			<path d="M185.2,107.7h-18.7l-27.2-72.5h16.6L176,92l19.9-56.9h16.5L185.2,107.7z"/>
		</g>
		<g id="Layer_12">
			<rect x="138.7" y="94.1" width="43.9" height="13.5"/>
		</g>
	</g>
</g>
<g id="Guides">
	<path class="st0" d="M76,143.7l-1.1-3.2H68l-1.2,3.2h-4.5l6.6-17.1H74l6.6,17.1H76z M71.5,130.9l-2.2,6.1h4.4L71.5,130.9z"/>
	<path class="st0" d="M201.4,126.7l6.9,10.5v-10.5h4.1v17.1h-4l-7.1-10.3v10.3h-4.1v-17.1H201.4z"/>
</g>
</svg>
