<svg xmlns="http://www.w3.org/2000/svg" xml:space="preserve" style="enable-background:new 0 0 283.465 181.417" viewBox="0 0 283.465 181.417"><style>.st0{fill:none;stroke:#9bbbff;stroke-width:1.4173;stroke-miterlimit:10}.st1{fill:#9bbbff}</style><switch><g><g id="Logomark_2_"><g id="Traces"><path d="m80.662 96.367 4.108-.001 2.375-2.375h10.399" class="st0"/><circle cx="80.662" cy="96.367" r="1.332" class="st1"/><circle cx="97.544" cy="93.991" r="1.332" class="st1"/><path d="M83.002 90.325h6.944l3.686 3.686" class="st0"/><circle cx="83.002" cy="90.325" r="1.332" class="st1"/><path d="M84.946 85.304h15.789" class="st0"/><circle cx="84.946" cy="85.304" r="1.332" class="st1"/><circle cx="100.735" cy="85.304" r="1.332" class="st1"/><path d="M97.637 76.134h-9.141" class="st0"/><circle cx="88.496" cy="76.134" r="1.332" class="st1"/><path d="M86.947 80.137h6.688l4.002-4.003h6.466" class="st0"/><circle cx="86.947" cy="80.137" r="1.332" class="st1"/><circle cx="104.103" cy="76.134" r="1.332" class="st1"/><path d="M107.439 67.051h-5.548l-3.098 3.097-7.98-.001" class="st0"/><circle cx="107.439" cy="67.051" r="1.332" class="st1"/><circle cx="90.813" cy="70.147" r="1.332" class="st1"/><path d="M93.511 63.183h15.349" class="st0"/><circle cx="93.511" cy="63.183" r="1.332" class="st1"/><circle cx="108.86" cy="63.183" r="1.332" class="st1"/><path d="M111.88 54.961h-5.765l-3.889 4.059h-7.103" class="st0"/><circle cx="111.88" cy="54.961" r="1.332" class="st1"/><circle cx="95.123" cy="59.02" r="1.332" class="st1"/><path d="M103.809 36.589h11.107l4.492 4.493" class="st0"/><circle cx="103.809" cy="36.589" r="1.332" class="st1"/><path d="M125.353 41.082H111.52l-3.58 3.58h-7.257" class="st0"/><circle cx="125.353" cy="41.082" r="1.332" class="st1"/><circle cx="100.683" cy="44.662" r="1.332" class="st1"/><path d="M99.086 49.512h29.276" class="st0"/><circle cx="99.086" cy="49.512" r="1.332" class="st1"/><circle cx="128.362" cy="49.512" r="1.332" class="st1"/><path d="m113.64 45.388 5.768.001 4.118 4.117" class="st0"/><circle cx="113.64" cy="45.388" r="1.332" class="st1"/><path d="M115.38 54.961h7.379l3.647 3.647h5.793" class="st0"/><circle cx="115.38" cy="54.961" r="1.332" class="st1"/><circle cx="132.199" cy="58.608" r="1.332" class="st1"/><path d="M118.365 63.183h15.62" class="st0"/><circle cx="118.365" cy="63.183" r="1.332" class="st1"/><circle cx="133.985" cy="63.183" r="1.332" class="st1"/><path d="M120.894 70.147h15.812" class="st0"/><circle cx="120.894" cy="70.147" r="1.332" class="st1"/><circle cx="136.706" cy="70.147" r="1.332" class="st1"/><path d="M123.067 76.134h9.677l3.962 3.966h3.887" class="st0"/><circle cx="123.067" cy="76.134" r="1.332" class="st1"/><circle cx="140.593" cy="80.1" r="1.332" class="st1"/><path d="M136.706 80.1h-12.199" class="st0"/><circle cx="124.507" cy="80.1" r="1.332" class="st1"/><path d="M142.156 84.103h-9.35l-3.852-3.966" class="st0"/><circle cx="142.156" cy="84.103" r="1.332" class="st1"/><path d="M128.219 90.325h16.367" class="st0"/><circle cx="128.219" cy="90.325" r="1.332" class="st1"/><circle cx="144.586" cy="90.325" r="1.332" class="st1"/><path d="M146.609 95.523h-8.803l-5.169-5.169" class="st0"/><circle cx="146.609" cy="95.523" r="1.332" class="st1"/><path d="M189.723 95.523h-35.399l-5.374 5.374h-16.892" class="st0"/><circle cx="189.723" cy="95.523" r="1.332" class="st1"/><circle cx="132.058" cy="100.897" r="1.332" class="st1"/><path d="M181.574 76.134h15.428" class="st0"/><circle cx="181.574" cy="76.134" r="1.332" class="st1"/><circle cx="197.002" cy="76.134" r="1.332" class="st1"/><path d="M195.513 80.1h-5.1l-4.024-4.024" class="st0"/><circle cx="195.513" cy="80.1" r="1.332" class="st1"/><path d="M182.961 72.169h6.429l3.94 3.965" class="st0"/><circle cx="182.961" cy="72.169" r="1.332" class="st1"/><path d="M184.741 67.082H200.4" class="st0"/><circle cx="184.74" cy="67.082" r="1.332" class="st1"/><circle cx="200.4" cy="67.082" r="1.332" class="st1"/><path d="M187.704 58.609h15.877" class="st0"/><circle cx="187.704" cy="58.609" r="1.332" class="st1"/><circle cx="203.581" cy="58.609" r="1.332" class="st1"/><path d="M189.386 53.8h16" class="st0"/><circle cx="189.386" cy="53.8" r="1.332" class="st1"/><circle cx="205.386" cy="53.8" r="1.332" class="st1"/><path d="M195.406 36.589h4.656l4.413 4.413h5.716" class="st0"/><circle cx="195.406" cy="36.589" r="1.332" class="st1"/><circle cx="210.191" cy="41.002" r="1.332" class="st1"/><path d="M193.862 41.002h10.613" class="st0"/><circle cx="193.862" cy="41.002" r="1.332" class="st1"/><path d="M156.38 36.589h-4.664l-4.414 4.413h-5.688" class="st0"/><circle cx="156.38" cy="36.589" r="1.332" class="st1"/><circle cx="141.614" cy="41.002" r="1.332" class="st1"/><path d="M157.942 41.002H147.33" class="st0"/><circle cx="157.942" cy="41.002" r="1.332" class="st1"/><path d="M159.496 45.39h-5.501l-4.124 4.124" class="st0"/><circle cx="159.496" cy="45.39" r="1.332" class="st1"/><path d="M144.662 49.514h16.294" class="st0"/><circle cx="144.662" cy="49.514" r="1.332" class="st1"/><circle cx="160.956" cy="49.514" r="1.332" class="st1"/><path d="M146.272 53.8h4.848l4.247-4.247" class="st0"/><circle cx="146.271" cy="53.8" r="1.332" class="st1"/><path d="M148.077 58.609h16.1" class="st0"/><circle cx="148.077" cy="58.609" r="1.332" class="st1"/><circle cx="164.177" cy="58.609" r="1.332" class="st1"/><path d="M149.794 63.183h5.026l4.558-4.558" class="st0"/><circle cx="149.794" cy="63.183" r="1.332" class="st1"/><path d="M154.656 76.134h7.636l3.957 3.96" class="st0"/><circle cx="154.656" cy="76.134" r="1.332" class="st1"/><path d="M156.16 80.138h15.64" class="st0"/><circle cx="156.16" cy="80.138" r="1.332" class="st1"/><circle cx="171.8" cy="80.138" r="1.332" class="st1"/><path d="M78.92 100.897h16.087" class="st0"/><circle cx="78.92" cy="100.897" r="1.332" class="st1"/><circle cx="95.007" cy="100.897" r="1.332" class="st1"/><path d="M76.826 106.275h6.167l5.377-5.378" class="st0"/><circle cx="76.826" cy="106.275" r="1.332" class="st1"/><path d="M134.01 106.275h51.677" class="st0"/><circle cx="134.01" cy="106.275" r="1.332" class="st1"/><circle cx="185.687" cy="106.275" r="1.332" class="st1"/><path d="M208.543 45.39h-5.158l-4.39-4.389" class="st0"/><circle cx="208.543" cy="45.39" r="1.332" class="st1"/><path d="M155.438 100.897h32.266" class="st0"/><circle cx="155.438" cy="100.897" r="1.332" class="st1"/><circle cx="187.704" cy="100.897" r="1.332" class="st1"/><path d="M159.984 90.325h5.953l5.171 5.169" class="st0"/><circle cx="159.984" cy="90.325" r="1.332" class="st1"/><path d="M106.115 54.961h-9.42" class="st0"/><circle cx="96.695" cy="54.961" r="1.332" class="st1"/><path d="M194.01 84.103h-7.862l-2.755 2.756h-5.57" class="st0"/><circle cx="194.01" cy="84.103" r="1.332" class="st1"/><circle cx="177.823" cy="86.859" r="1.332" class="st1"/><path d="m191.638 90.407-5.921-.083-5.17 5.169" class="st0"/><circle cx="191.638" cy="90.407" r="1.332" class="st1" transform="rotate(-89.192 191.634 90.409)"/><path d="M152.412 70.156h5.733l3.073-3.073h5.959" class="st0"/><circle cx="152.412" cy="70.156" r="1.332" class="st1"/><circle cx="167.177" cy="67.083" r="1.332" class="st1"/><path d="M201.864 63.183h-8.107l-3.841 3.84" class="st0"/><circle cx="201.864" cy="63.183" r="1.332" class="st1"/><path d="M190.885 49.514h5.375l4.213 4.213" class="st0"/><circle cx="190.885" cy="49.514" r="1.332" class="st1"/></g></g><g id="Wordmark_2_"><path id="Wordmark_3_" d="m80.678 143.716-6.634-17.06h-5.141l-6.634 17.06h4.509l1.178-3.245h6.893l1.149 3.245h4.68zm-7.065-6.721h-4.365l2.211-6.06 2.154 6.06zm19.587 6.721v-3.762h-6.491v-13.297H82.43v17.06H93.2zm6.72-12.163c.842-.909 2.001-1.364 3.475-1.364 1.991 0 3.657.623 4.998 1.867v-4.395c-1.378-.861-3.141-1.292-5.285-1.292-2.623 0-4.753.818-6.39 2.456-1.637 1.637-2.456 3.758-2.456 6.361 0 2.738.809 4.892 2.427 6.462 1.618 1.57 3.815 2.355 6.591 2.355 2.546 0 4.471-.431 5.773-1.292v-6.979h-4.193v4.452c-.326.096-.814.144-1.465.144-1.417 0-2.561-.464-3.432-1.393-.872-.929-1.307-2.178-1.307-3.748 0-1.513.421-2.724 1.264-3.634zm20.075 12.45c2.508 0 4.619-.828 6.333-2.484 1.713-1.656 2.57-3.767 2.57-6.333 0-2.565-.857-4.676-2.57-6.333-1.714-1.656-3.825-2.484-6.333-2.484s-4.614.828-6.318 2.484c-1.704 1.657-2.556 3.768-2.556 6.333 0 2.566.852 4.677 2.556 6.333 1.704 1.657 3.81 2.484 6.318 2.484zm0-3.848c-1.302 0-2.375-.46-3.217-1.379-.843-.919-1.264-2.115-1.264-3.59 0-1.474.421-2.671 1.264-3.59.842-.919 1.915-1.379 3.217-1.379 1.321 0 2.398.459 3.231 1.379.833.919 1.25 2.116 1.25 3.59 0 1.475-.417 2.671-1.25 3.59s-1.91 1.379-3.231 1.379zm26.997-13.499h-4.566l-4.337 12.723-4.394-12.723H129.1l6.347 17.06h5.198l6.347-17.06zm1.751 0v17.06h4.279v-17.06h-4.279zm11.861 17.347c1.933 0 3.513-.445 4.74-1.335 1.225-.89 1.838-2.216 1.838-3.978 0-1.455-.355-2.604-1.063-3.446-.709-.842-1.926-1.494-3.648-1.953-1.016-.268-1.733-.526-2.154-.775-.421-.249-.632-.622-.632-1.12 0-.421.163-.756.488-1.005.325-.249.803-.373 1.436-.373 1.59 0 3.102.593 4.537 1.78v-4.193c-1.396-.823-2.967-1.235-4.709-1.235-1.724 0-3.141.469-4.251 1.407-1.111.938-1.666 2.23-1.666 3.877 0 1.436.374 2.576 1.12 3.418.747.843 1.991 1.484 3.734 1.924.938.23 1.608.474 2.01.732.402.259.604.627.604 1.106 0 1.015-.805 1.522-2.413 1.522-1.589 0-3.159-.583-4.71-1.752v4.193c1.302.804 2.882 1.206 4.739 1.206zm9.076-17.347v17.06h4.279v-17.06h-4.279zm15.825 17.347c2.508 0 4.618-.828 6.332-2.484 1.714-1.656 2.57-3.767 2.57-6.333 0-2.565-.856-4.676-2.57-6.333-1.714-1.656-3.824-2.484-6.332-2.484-2.509 0-4.615.828-6.318 2.484-1.705 1.657-2.557 3.768-2.557 6.333 0 2.566.852 4.677 2.557 6.333 1.703 1.657 3.809 2.484 6.318 2.484zm0-3.848c-1.303 0-2.375-.46-3.217-1.379-.843-.919-1.264-2.115-1.264-3.59 0-1.474.421-2.671 1.264-3.59.842-.919 1.914-1.379 3.217-1.379 1.32 0 2.397.459 3.23 1.379.833.919 1.249 2.116 1.249 3.59 0 1.475-.416 2.671-1.249 3.59s-1.909 1.379-3.23 1.379zm11.573-13.499v17.06h4.136v-10.253l7.122 10.253h4.05v-17.06h-4.136v10.454l-6.864-10.454h-4.308z" class="st1"/></g></g></switch></svg>