<?xml version="1.0" encoding="utf-8"?>
<!-- Generator: Adobe Illustrator 21.0.0, SVG Export Plug-In . SVG Version: 6.00 Build 0)  -->
<svg version="1.1" id="Layer_1" xmlns="http://www.w3.org/2000/svg" xmlns:xlink="http://www.w3.org/1999/xlink" x="0px" y="0px"
	 viewBox="0 0 150.117 108.746" style="enable-background:new 0 0 150.117 108.746;" xml:space="preserve">
<style type="text/css">
	.st0{fill:#B8B8B8;}
	.st1{clip-path:url(#SVGID_2_);fill:url(#Gradient_2_);}
	.st2{clip-path:url(#SVGID_4_);fill:url(#Gradient_3_);}
</style>
<g>
	<g id="Wordmark_2_">
		<g>
			<path id="Wordmark_3_" class="st0" d="M18.409,108.459l-6.634-17.06H6.634L0,108.459h4.509l1.178-3.245h6.893l1.149,3.245H18.409
				z M11.344,101.738H6.979l2.211-6.06L11.344,101.738z M30.931,108.459v-3.762H24.44V91.4h-4.279v17.06h10.77V108.459z
				 M37.651,96.296c0.842-0.909,2.001-1.364,3.475-1.364c1.991,0,3.657,0.623,4.998,1.867v-4.395
				c-1.378-0.861-3.141-1.292-5.285-1.292c-2.623,0-4.753,0.818-6.39,2.456c-1.637,1.637-2.456,3.758-2.456,6.361
				c0,2.738,0.809,4.892,2.427,6.462s3.815,2.355,6.591,2.355c2.546,0,4.471-0.431,5.773-1.292v-6.979h-4.193v4.452
				c-0.326,0.096-0.814,0.144-1.465,0.144c-1.417,0-2.561-0.464-3.432-1.393c-0.872-0.929-1.307-2.178-1.307-3.748
				C36.387,98.417,36.808,97.206,37.651,96.296L37.651,96.296z M57.726,108.746c2.508,0,4.619-0.828,6.333-2.484
				c1.713-1.656,2.57-3.767,2.57-6.333c0-2.565-0.857-4.676-2.57-6.333c-1.714-1.656-3.825-2.484-6.333-2.484
				s-4.614,0.828-6.318,2.484c-1.704,1.657-2.556,3.768-2.556,6.333c0,2.566,0.852,4.677,2.556,6.333
				C53.112,107.919,55.218,108.746,57.726,108.746z M57.726,104.898c-1.302,0-2.375-0.46-3.217-1.379
				c-0.843-0.919-1.264-2.115-1.264-3.59c0-1.474,0.421-2.671,1.264-3.59c0.842-0.919,1.915-1.379,3.217-1.379
				c1.321,0,2.398,0.459,3.231,1.379c0.833,0.919,1.25,2.116,1.25,3.59c0,1.475-0.417,2.671-1.25,3.59
				S59.047,104.898,57.726,104.898z M84.723,91.399h-4.566l-4.337,12.723l-4.394-12.723h-4.595l6.347,17.06h5.198L84.723,91.399
				L84.723,91.399z M86.474,91.399v17.06h4.279v-17.06C90.753,91.399,86.474,91.399,86.474,91.399z M98.335,108.746
				c1.933,0,3.513-0.445,4.74-1.335c1.225-0.89,1.838-2.216,1.838-3.978c0-1.455-0.355-2.604-1.063-3.446
				c-0.709-0.842-1.926-1.494-3.648-1.953c-1.016-0.268-1.733-0.526-2.154-0.775s-0.632-0.622-0.632-1.12
				c0-0.421,0.163-0.756,0.488-1.005c0.325-0.249,0.803-0.373,1.436-0.373c1.59,0,3.102,0.593,4.537,1.78v-4.193
				c-1.396-0.823-2.967-1.235-4.709-1.235c-1.724,0-3.141,0.469-4.251,1.407c-1.111,0.938-1.666,2.23-1.666,3.877
				c0,1.436,0.374,2.576,1.12,3.418c0.747,0.843,1.991,1.484,3.734,1.924c0.938,0.23,1.608,0.474,2.01,0.732
				c0.402,0.259,0.604,0.627,0.604,1.106c0,1.015-0.805,1.522-2.413,1.522c-1.589,0-3.159-0.583-4.71-1.752v4.193
				C94.898,108.344,96.478,108.746,98.335,108.746L98.335,108.746z M107.411,91.399v17.06h4.279v-17.06H107.411z M123.236,108.746
				c2.508,0,4.618-0.828,6.332-2.484c1.714-1.656,2.57-3.767,2.57-6.333c0-2.565-0.856-4.676-2.57-6.333
				c-1.714-1.656-3.824-2.484-6.332-2.484c-2.509,0-4.615,0.828-6.318,2.484c-1.705,1.657-2.557,3.768-2.557,6.333
				c0,2.566,0.852,4.677,2.557,6.333C118.621,107.919,120.727,108.746,123.236,108.746L123.236,108.746z M123.236,104.898
				c-1.303,0-2.375-0.46-3.217-1.379c-0.843-0.919-1.264-2.115-1.264-3.59c0-1.474,0.421-2.671,1.264-3.59
				c0.842-0.919,1.914-1.379,3.217-1.379c1.32,0,2.397,0.459,3.23,1.379c0.833,0.919,1.249,2.116,1.249,3.59
				c0,1.475-0.416,2.671-1.249,3.59S124.557,104.898,123.236,104.898z M134.809,91.399v17.06h4.136V98.206l7.122,10.253h4.05v-17.06
				h-4.136v10.454l-6.864-10.454H134.809z"/>
		</g>
		<g>
			<defs>
				<path id="SVGID_1_" d="M18.409,108.459l-6.634-17.06H6.634L0,108.459h4.509l1.178-3.245h6.893l1.149,3.245H18.409z
					 M11.344,101.738H6.979l2.211-6.06L11.344,101.738z M30.931,108.459v-3.762H24.44V91.4h-4.279v17.06h10.77V108.459z
					 M37.651,96.296c0.842-0.909,2.001-1.364,3.475-1.364c1.991,0,3.657,0.623,4.998,1.867v-4.395
					c-1.378-0.861-3.141-1.292-5.285-1.292c-2.623,0-4.753,0.818-6.39,2.456c-1.637,1.637-2.456,3.758-2.456,6.361
					c0,2.738,0.809,4.892,2.427,6.462s3.815,2.355,6.591,2.355c2.546,0,4.471-0.431,5.773-1.292v-6.979h-4.193v4.452
					c-0.326,0.096-0.814,0.144-1.465,0.144c-1.417,0-2.561-0.464-3.432-1.393c-0.872-0.929-1.307-2.178-1.307-3.748
					C36.387,98.417,36.808,97.206,37.651,96.296L37.651,96.296z M57.726,108.746c2.508,0,4.619-0.828,6.333-2.484
					c1.713-1.656,2.57-3.767,2.57-6.333c0-2.565-0.857-4.676-2.57-6.333c-1.714-1.656-3.825-2.484-6.333-2.484
					s-4.614,0.828-6.318,2.484c-1.704,1.657-2.556,3.768-2.556,6.333c0,2.566,0.852,4.677,2.556,6.333
					C53.112,107.919,55.218,108.746,57.726,108.746z M57.726,104.898c-1.302,0-2.375-0.46-3.217-1.379
					c-0.843-0.919-1.264-2.115-1.264-3.59c0-1.474,0.421-2.671,1.264-3.59c0.842-0.919,1.915-1.379,3.217-1.379
					c1.321,0,2.398,0.459,3.231,1.379c0.833,0.919,1.25,2.116,1.25,3.59c0,1.475-0.417,2.671-1.25,3.59
					S59.047,104.898,57.726,104.898z M84.723,91.399h-4.566l-4.337,12.723l-4.394-12.723h-4.595l6.347,17.06h5.198L84.723,91.399
					L84.723,91.399z M86.474,91.399v17.06h4.279v-17.06C90.753,91.399,86.474,91.399,86.474,91.399z M98.335,108.746
					c1.933,0,3.513-0.445,4.74-1.335c1.225-0.89,1.838-2.216,1.838-3.978c0-1.455-0.355-2.604-1.063-3.446
					c-0.709-0.842-1.926-1.494-3.648-1.953c-1.016-0.268-1.733-0.526-2.154-0.775s-0.632-0.622-0.632-1.12
					c0-0.421,0.163-0.756,0.488-1.005c0.325-0.249,0.803-0.373,1.436-0.373c1.59,0,3.102,0.593,4.537,1.78v-4.193
					c-1.396-0.823-2.967-1.235-4.709-1.235c-1.724,0-3.141,0.469-4.251,1.407c-1.111,0.938-1.666,2.23-1.666,3.877
					c0,1.436,0.374,2.576,1.12,3.418c0.747,0.843,1.991,1.484,3.734,1.924c0.938,0.23,1.608,0.474,2.01,0.732
					c0.402,0.259,0.604,0.627,0.604,1.106c0,1.015-0.805,1.522-2.413,1.522c-1.589,0-3.159-0.583-4.71-1.752v4.193
					C94.898,108.344,96.478,108.746,98.335,108.746L98.335,108.746z M107.411,91.399v17.06h4.279v-17.06H107.411z M123.236,108.746
					c2.508,0,4.618-0.828,6.332-2.484c1.714-1.656,2.57-3.767,2.57-6.333c0-2.565-0.856-4.676-2.57-6.333
					c-1.714-1.656-3.824-2.484-6.332-2.484c-2.509,0-4.615,0.828-6.318,2.484c-1.705,1.657-2.557,3.768-2.557,6.333
					c0,2.566,0.852,4.677,2.557,6.333C118.621,107.919,120.727,108.746,123.236,108.746L123.236,108.746z M123.236,104.898
					c-1.303,0-2.375-0.46-3.217-1.379c-0.843-0.919-1.264-2.115-1.264-3.59c0-1.474,0.421-2.671,1.264-3.59
					c0.842-0.919,1.914-1.379,3.217-1.379c1.32,0,2.397,0.459,3.23,1.379c0.833,0.919,1.249,2.116,1.249,3.59
					c0,1.475-0.416,2.671-1.249,3.59S124.557,104.898,123.236,104.898z M134.809,91.399v17.06h4.136V98.206l7.122,10.253h4.05
					v-17.06h-4.136v10.454l-6.864-10.454H134.809z"/>
			</defs>
			<clipPath id="SVGID_2_">
				<use xlink:href="#SVGID_1_"  style="overflow:visible;"/>
			</clipPath>
			
				<linearGradient id="Gradient_2_" gradientUnits="userSpaceOnUse" x1="125.324" y1="-230.079" x2="233.995" y2="-292.82" gradientTransform="matrix(1 0 0 -1 -114.96 -170.494)">
				<stop  offset="0" style="stop-color:#62D0FF"/>
				<stop  offset="0.132" style="stop-color:#66CEFF"/>
				<stop  offset="0.254" style="stop-color:#71CAFF"/>
				<stop  offset="0.37" style="stop-color:#83C1FF"/>
				<stop  offset="0.484" style="stop-color:#9DB6FF"/>
				<stop  offset="0.596" style="stop-color:#BFA7FF"/>
				<stop  offset="0.625" style="stop-color:#C9A3FF"/>
				<stop  offset="0.846" style="stop-color:#D3A1EA"/>
				<stop  offset="1" style="stop-color:#D7A0E1"/>
			</linearGradient>
			<path id="Gradient_1_" class="st1" d="M-30.541,62.942h200.25v61.667h-200.25V62.942z"/>
		</g>
	</g>
	<g id="Logomark_2_">
		<g>
			<defs>
				<path id="SVGID_3_" d="M36.607,58.734c0,0.736-0.597,1.332-1.332,1.332c-0.469,0-0.862-0.257-1.099-0.623h-9.007l-2.375,2.375
					h-3.302c-0.237,0.367-0.63,0.624-1.099,0.624c-0.736,0-1.332-0.596-1.332-1.332s0.596-1.332,1.332-1.332
					c0.469,0,0.861,0.257,1.099,0.623h2.715l2.375-2.375h5.05l-2.249-2.248h-5.552c-0.237,0.366-0.63,0.623-1.099,0.623
					c-0.736,0-1.332-0.596-1.332-1.332s0.596-1.332,1.332-1.332c0.469,0,0.862,0.257,1.099,0.623h6.139l3.666,3.666h2.539
					c0.237-0.366,0.63-0.623,1.099-0.623c0.735-0.002,1.331,0.592,1.333,1.327C36.607,58.731,36.607,58.733,36.607,58.734z
					 M38.466,48.714c-0.469,0-0.862,0.257-1.099,0.623H23.776c-0.237-0.366-0.63-0.623-1.099-0.623
					c-0.736,0-1.332,0.596-1.332,1.332s0.596,1.332,1.332,1.332c0.469,0,0.862-0.257,1.099-0.623h13.591
					c0.237,0.366,0.63,0.623,1.099,0.623c0.736,0,1.332-0.596,1.332-1.332S39.202,48.714,38.466,48.714z M41.834,39.545
					c-0.469,0-0.862,0.257-1.099,0.624H27.327c-0.237-0.367-0.63-0.624-1.099-0.624c-0.736,0-1.332,0.596-1.332,1.332
					s0.596,1.332,1.332,1.332c0.469,0,0.861-0.257,1.099-0.623h6.33l-2.584,2.584h-5.296c-0.237-0.366-0.63-0.623-1.099-0.623
					c-0.736,0-1.332,0.596-1.332,1.332s0.596,1.332,1.332,1.332c0.469,0,0.862-0.257,1.099-0.624h5.882l4.002-4.002h5.074
					c0.237,0.366,0.63,0.623,1.099,0.623c0.735-0.02,1.315-0.633,1.295-1.368C43.11,40.133,42.541,39.564,41.834,39.545z
					 M45.17,30.462c-0.469,0-0.861,0.257-1.099,0.623h-4.743l-3.097,3.096h-6.588c-0.237-0.366-0.63-0.623-1.099-0.623
					c-0.736,0-1.332,0.596-1.332,1.332s0.596,1.332,1.332,1.332c0.469,0,0.862-0.257,1.099-0.623h7.174l3.098-3.097h4.155
					c0.237,0.367,0.63,0.624,1.099,0.624c0.736,0,1.332-0.596,1.332-1.332C46.502,31.059,45.906,30.462,45.17,30.462z
					 M46.591,26.594c-0.469,0-0.861,0.257-1.099,0.623H32.341c-0.237-0.366-0.63-0.623-1.099-0.623
					c-0.736,0.001-1.331,0.598-1.33,1.334c0.001,0.734,0.596,1.329,1.33,1.33c0.469,0,0.862-0.257,1.099-0.624h13.15
					c0.237,0.367,0.63,0.624,1.099,0.624c0.736,0,1.332-0.596,1.333-1.332S47.327,26.594,46.591,26.594z M49.611,18.372
					c-0.469,0-0.862,0.257-1.099,0.623l-4.968,0.001h-8.018c-0.237-0.367-0.63-0.624-1.099-0.624c-0.736,0-1.332,0.596-1.332,1.332
					s0.596,1.332,1.332,1.332l0,0c0.469,0,0.861-0.257,1.099-0.623h6.66l-2.53,2.64h-5.701c-0.237-0.366-0.63-0.623-1.099-0.623
					c-0.736,0-1.332,0.596-1.332,1.332s0.596,1.332,1.332,1.332l0,0c0.469,0,0.862-0.257,1.099-0.623h6.305l3.89-4.058l4.364-0.001
					c0.237,0.366,0.63,0.623,1.099,0.623c0.735,0.02,1.347-0.561,1.367-1.296s-0.561-1.347-1.296-1.367
					C49.66,18.371,49.635,18.371,49.611,18.372z M38.414,10.737c0.469,0,0.862-0.257,1.099-0.624h6.451l3.58-3.579h12.441
					c0.237,0.366,0.63,0.623,1.099,0.623c0.736,0,1.332-0.596,1.332-1.332s-0.596-1.332-1.332-1.332
					c-0.469,0-0.862,0.257-1.099,0.623h-4.553L52.94,0.624H42.639C42.402,0.257,42.009,0,41.54,0c-0.736,0-1.332,0.596-1.332,1.332
					s0.596,1.332,1.332,1.332l0,0c0.469,0,0.861-0.257,1.099-0.623h9.715l3.075,3.074h-6.471l-3.58,3.579h-5.865
					c-0.237-0.366-0.63-0.623-1.099-0.623c-0.736,0-1.333,0.597-1.333,1.333S37.678,10.737,38.414,10.737z M36.817,15.587
					c0.469,0,0.862-0.257,1.099-0.624h27.077c0.237,0.367,0.63,0.624,1.099,0.624c0.736,0,1.332-0.596,1.332-1.332
					s-0.596-1.332-1.332-1.332c-0.469,0-0.861,0.257-1.099,0.623h-3.439l-4.123-4.123h-4.962c-0.237-0.367-0.63-0.624-1.099-0.624
					c-0.736,0-1.332,0.596-1.332,1.332s0.596,1.332,1.332,1.332l0,0c0.469,0,0.861-0.257,1.099-0.623h4.376l2.705,2.705H37.915
					c-0.237-0.366-0.63-0.623-1.099-0.623c-0.736,0-1.332,0.597-1.332,1.333S36.081,15.587,36.817,15.587
					C36.817,15.587,36.817,15.587,36.817,15.587z M60.196,20.413l3.647,3.647h4.987c0.237,0.366,0.63,0.623,1.099,0.623
					c0.736,0,1.332-0.596,1.332-1.332s-0.596-1.332-1.332-1.332c-0.469,0-0.862,0.257-1.099,0.623h-4.4l-3.647-3.647H54.21
					c-0.237-0.366-0.63-0.623-1.099-0.623c-0.736,0-1.332,0.596-1.332,1.332s0.596,1.332,1.332,1.332
					c0.469,0,0.862-0.257,1.099-0.623C54.21,20.413,60.196,20.413,60.196,20.413z M70.617,28.635
					c0.237,0.367,0.63,0.624,1.099,0.624c0.736,0,1.332-0.596,1.332-1.332s-0.596-1.332-1.332-1.332
					c-0.469,0-0.861,0.257-1.099,0.623H57.194c-0.237-0.366-0.63-0.623-1.099-0.623c-0.736,0-1.332,0.596-1.332,1.332
					s0.596,1.332,1.332,1.332l0,0c0.469,0,0.862-0.257,1.099-0.624C57.194,28.635,70.617,28.635,70.617,28.635z M59.724,35.599
					h13.614c0.237,0.366,0.63,0.623,1.099,0.623c0.736,0,1.332-0.596,1.332-1.332s-0.596-1.332-1.332-1.332
					c-0.469,0-0.862,0.257-1.099,0.623H59.724c-0.237-0.366-0.63-0.623-1.099-0.623c-0.736,0-1.332,0.596-1.332,1.332
					s0.596,1.332,1.332,1.332l0,0C59.094,36.223,59.486,35.966,59.724,35.599z M66.35,45.553l3.887,4.002h8.551
					c0.237,0.366,0.63,0.623,1.099,0.623c0.736,0,1.332-0.596,1.332-1.332s-0.596-1.332-1.332-1.332
					c-0.469,0-0.861,0.257-1.099,0.623h-7.952l-2.51-2.584h8.899c0.237,0.366,0.63,0.623,1.099,0.623
					c0.736,0,1.332-0.596,1.332-1.332s-0.596-1.332-1.332-1.332c-0.469,0-0.862,0.257-1.099,0.624h-2.494L70.77,40.17h-8.872
					c-0.237-0.367-0.63-0.624-1.099-0.624c-0.736,0-1.332,0.596-1.332,1.332s0.596,1.332,1.332,1.332
					c0.469,0,0.861-0.257,1.099-0.623h8.284l2.545,2.548h-9.389c-0.237-0.367-0.63-0.624-1.099-0.624
					c-0.736,0-1.332,0.596-1.332,1.332s0.596,1.332,1.332,1.332c0.469,0,0.861-0.257,1.099-0.623h3.012L66.35,45.553z
					 M70.047,55.777l5.197,5.198h7.997c0.237,0.366,0.63,0.623,1.099,0.623c0.736,0,1.332-0.596,1.332-1.332
					s-0.596-1.332-1.332-1.332c-0.469,0-0.862,0.257-1.099,0.623h-7.41l-3.78-3.78h9.168c0.237,0.366,0.63,0.623,1.099,0.623
					c0.736,0,1.332-0.596,1.332-1.332s-0.596-1.332-1.332-1.332c-0.469,0-0.862,0.257-1.099,0.623H67.05
					c-0.237-0.367-0.63-0.623-1.099-0.623c-0.736,0-1.332,0.596-1.332,1.332s0.596,1.332,1.332,1.332
					c0.469,0,0.862-0.257,1.099-0.623H70.047L70.047,55.777z M134.733,39.545c-0.469,0-0.862,0.257-1.099,0.624h-2.278l-3.94-3.966
					h-5.624c-0.237-0.367-0.63-0.623-1.099-0.623c-0.736,0-1.332,0.596-1.332,1.332s0.596,1.332,1.332,1.332l0,0
					c0.469,0,0.861-0.257,1.099-0.623h5.034l2.532,2.548h-8.953c-0.237-0.367-0.63-0.624-1.099-0.624
					c-0.736,0-1.332,0.596-1.332,1.332s0.596,1.332,1.332,1.332c0.469,0,0.861-0.257,1.099-0.623h3.482l3.964,3.966h4.294
					c0.237,0.366,0.63,0.623,1.099,0.623c0.736,0,1.332-0.596,1.332-1.332s-0.596-1.332-1.332-1.332
					c-0.469,0-0.862,0.257-1.099,0.624h-3.707l-2.548-2.548h7.744c0.237,0.366,0.63,0.623,1.099,0.623
					c0.736,0,1.333-0.597,1.333-1.333C136.065,40.142,135.469,39.545,134.733,39.545z M141.312,22.02
					c-0.469,0-0.862,0.257-1.099,0.623h-13.679c-0.237-0.367-0.63-0.623-1.099-0.623c-0.736,0-1.332,0.596-1.332,1.332
					s0.596,1.332,1.332,1.332l0,0c0.469,0,0.862-0.257,1.099-0.623h13.679c0.237,0.366,0.63,0.623,1.099,0.623
					c0.736,0,1.332-0.596,1.332-1.332S142.048,22.02,141.312,22.02z M143.117,17.21c-0.469,0-0.862,0.257-1.099,0.623h-3.448
					l-4.286-4.286h-4.569c-0.237-0.366-0.63-0.623-1.099-0.623c-0.736,0-1.332,0.596-1.332,1.332s0.596,1.332,1.332,1.332l0,0
					c0.469,0,0.862-0.257,1.099-0.623h3.982l2.869,2.868h-8.35c-0.237-0.366-0.63-0.623-1.099-0.623
					c-0.736,0-1.332,0.596-1.332,1.332s0.596,1.332,1.332,1.332c0.469,0,0.862-0.257,1.099-0.623h13.802
					c0.237,0.366,0.63,0.623,1.099,0.623c0.736,0,1.332-0.596,1.332-1.332S143.853,17.21,143.117,17.21z M147.922,4.413
					c-0.469,0-0.861,0.257-1.099,0.623h-4.324l-4.413-4.412h-3.85C133.999,0.257,133.606,0,133.137,0
					c-0.736,0-1.332,0.596-1.332,1.332s0.596,1.332,1.332,1.332l0,0c0.469,0,0.861-0.257,1.099-0.623h3.264l2.994,2.994h-7.802
					c-0.237-0.366-0.63-0.623-1.099-0.623c-0.736,0-1.332,0.596-1.332,1.332s0.596,1.332,1.332,1.332l0,0
					c0.469,0,0.862-0.257,1.099-0.624h3.742l4.388,4.389h4.354c0.237,0.366,0.63,0.623,1.099,0.623c0.736,0,1.332-0.596,1.332-1.332
					S147.011,8.8,146.275,8.8c-0.469,0-0.862,0.257-1.099,0.624h-3.766l-2.971-2.971h8.384c0.237,0.367,0.63,0.624,1.099,0.624
					c0.736,0,1.332-0.596,1.332-1.332S148.658,4.413,147.922,4.413z M79.345,7.078c0.469,0,0.862-0.257,1.099-0.624h14.13
					c0.237,0.367,0.63,0.624,1.099,0.624c0.736,0,1.332-0.596,1.332-1.332s-0.596-1.332-1.332-1.332
					c-0.469,0-0.861,0.257-1.099,0.623h-7.829l2.995-2.994h3.272c0.237,0.366,0.63,0.623,1.099,0.623
					c0.736,0,1.332-0.596,1.332-1.332s-0.596-1.332-1.332-1.332c-0.469,0-0.862,0.257-1.099,0.624h-3.858L84.74,5.038h-4.297
					c-0.237-0.366-0.63-0.623-1.099-0.623c-0.735-0.02-1.348,0.56-1.368,1.296s0.56,1.348,1.296,1.368
					C79.296,7.079,79.321,7.079,79.345,7.078L79.345,7.078z M96.128,9.425h-4.696l-4.123,4.123h-3.817
					c-0.237-0.366-0.63-0.623-1.099-0.623c-0.736,0-1.332,0.596-1.332,1.332s0.596,1.332,1.332,1.332l0,0
					c0.469,0,0.862-0.257,1.099-0.623h7.933l-2.869,2.868H85.1c-0.237-0.366-0.63-0.623-1.099-0.623
					c-0.736,0-1.332,0.596-1.332,1.332s0.596,1.332,1.332,1.332c0.469,0,0.862-0.257,1.099-0.623h4.043l4.286-4.286h4.158
					c0.237,0.366,0.63,0.623,1.099,0.623c0.736,0,1.332-0.596,1.332-1.332s-0.596-1.332-1.332-1.332
					c-0.469,0-0.862,0.257-1.099,0.623h-8.274l2.705-2.705h4.109c0.237,0.366,0.63,0.623,1.099,0.623
					c0.736,0,1.332-0.596,1.332-1.332s-0.596-1.332-1.332-1.332C96.758,8.801,96.365,9.058,96.128,9.425L96.128,9.425z
					 M86.907,22.643c-0.237-0.367-0.63-0.623-1.099-0.623c-0.736,0-1.332,0.596-1.332,1.332s0.596,1.332,1.332,1.332l0,0
					c0.469,0,0.862-0.257,1.099-0.623h8.506l-3.156,3.155h-3.633c-0.237-0.366-0.63-0.623-1.099-0.623
					c-0.736,0-1.332,0.596-1.332,1.332s0.596,1.332,1.332,1.332c0.469,0,0.862-0.257,1.099-0.624h4.22l4.573-4.573h3.392
					c0.237,0.366,0.63,0.623,1.099,0.623c0.736,0,1.332-0.596,1.332-1.332s-0.596-1.332-1.332-1.332
					c-0.469,0-0.862,0.257-1.099,0.623L86.907,22.643L86.907,22.643z M104.318,44.173l-4.002-4.004h-6.83
					c-0.237-0.367-0.63-0.624-1.099-0.624c-0.736,0-1.332,0.596-1.332,1.332s0.596,1.332,1.332,1.332
					c0.469,0,0.861-0.257,1.099-0.623h6.243l2.585,2.586h-7.325c-0.237-0.367-0.63-0.624-1.099-0.624
					c-0.736,0-1.332,0.596-1.332,1.332s0.596,1.332,1.332,1.332c0.469,0,0.861-0.257,1.099-0.623h13.443
					c0.237,0.366,0.63,0.623,1.099,0.623c0.736,0,1.332-0.596,1.332-1.332s-0.596-1.332-1.332-1.332
					c-0.469,0-0.862,0.257-1.099,0.624L104.318,44.173L104.318,44.173z M32.738,64.308c-0.469,0-0.862,0.257-1.099,0.623H17.75
					c-0.237-0.366-0.63-0.623-1.099-0.623c-0.736,0-1.332,0.596-1.332,1.332s0.596,1.332,1.332,1.332
					c0.469,0,0.862-0.257,1.099-0.623h6.64l-3.96,3.959h-4.775c-0.237-0.366-0.63-0.623-1.099-0.623
					c-0.736,0-1.332,0.596-1.332,1.332s0.596,1.332,1.332,1.332c0.469,0,0.862-0.257,1.099-0.623h5.361l5.377-5.377h5.245
					c0.237,0.366,0.63,0.623,1.099,0.623c0.736,0,1.332-0.596,1.332-1.332C34.07,64.905,33.474,64.308,32.738,64.308z
					 M123.418,69.685c-0.469,0-0.861,0.257-1.099,0.623H72.84c-0.237-0.366-0.63-0.623-1.099-0.623
					c-0.736,0-1.332,0.596-1.332,1.332s0.596,1.332,1.332,1.332c0.469,0,0.862-0.257,1.099-0.623h49.479
					c0.237,0.367,0.63,0.623,1.099,0.623c0.736,0,1.332-0.596,1.332-1.332S124.154,69.685,123.418,69.685z M125.435,64.308
					c-0.469,0-0.862,0.257-1.099,0.623H94.268c-0.237-0.366-0.63-0.623-1.099-0.623c-0.736,0-1.332,0.596-1.332,1.332
					s0.596,1.332,1.332,1.332l0,0c0.469,0,0.862-0.257,1.099-0.623h30.068c0.237,0.366,0.63,0.623,1.099,0.623
					c0.736,0,1.332-0.596,1.332-1.332S126.171,64.308,125.435,64.308z M131.741,47.514c-0.469,0-0.861,0.257-1.099,0.623h-7.057
					l-2.755,2.757h-4.177c-0.237-0.366-0.63-0.623-1.099-0.623c-0.736,0-1.332,0.596-1.332,1.332s0.596,1.332,1.332,1.332
					c0.469,0,0.862-0.257,1.099-0.623h4.764l2.755-2.757h6.469c0.237,0.366,0.63,0.623,1.099,0.623c0.736,0,1.332-0.596,1.333-1.331
					S132.477,47.514,131.741,47.514z M129.387,53.818c-0.469-0.007-0.865,0.245-1.108,0.608l-5.121-0.072l-5.204,5.203h-8.794
					l-5.199-5.198h-5.148c-0.237-0.367-0.63-0.623-1.099-0.623c-0.736,0-1.332,0.596-1.332,1.332s0.596,1.332,1.332,1.332
					c0.469,0,0.862-0.257,1.099-0.623h4.561l3.782,3.78H91.761l-5.374,5.374h-15.5c-0.237-0.366-0.63-0.623-1.099-0.623
					c-0.736,0-1.332,0.596-1.332,1.332s0.596,1.332,1.332,1.332c0.469,0,0.862-0.257,1.099-0.623h16.087l5.374-5.374h34.007
					c0.237,0.366,0.63,0.623,1.099,0.623c0.736,0,1.332-0.596,1.332-1.332s-0.596-1.332-1.332-1.332
					c-0.469,0-0.862,0.257-1.099,0.623h-6.395l3.779-3.777l4.521,0.064c0.232,0.37,0.621,0.632,1.09,0.639
					c0.736,0.01,1.341-0.578,1.351-1.314C130.711,54.433,130.123,53.828,129.387,53.818L129.387,53.818L129.387,53.818z
					 M98.655,31.117l-3.073,3.073h-4.34c-0.237-0.366-0.63-0.623-1.099-0.623c-0.736,0-1.332,0.596-1.332,1.332
					s0.596,1.332,1.332,1.332c0.469,0,0.862-0.257,1.099-0.623h4.927l3.073-3.073h4.567c0.237,0.366,0.63,0.623,1.099,0.623
					c0.736,0,1.332-0.596,1.332-1.332s-0.596-1.332-1.332-1.332c-0.469,0-0.862,0.257-1.099,0.623H98.655z M139.595,26.594
					c-0.469,0-0.861,0.257-1.099,0.623h-7.302l-3.899,3.899h-3.724c-0.237-0.366-0.63-0.623-1.099-0.623
					c-0.736,0-1.332,0.596-1.332,1.332s0.596,1.332,1.332,1.332l0,0c0.469,0,0.862-0.257,1.099-0.623h13.462
					c0.237,0.366,0.63,0.623,1.099,0.623c0.736,0,1.332-0.596,1.332-1.332s-0.596-1.332-1.332-1.332
					c-0.469,0-0.862,0.257-1.099,0.623H129.3l2.482-2.481h6.714c0.237,0.367,0.63,0.624,1.099,0.624
					c0.736,0,1.333-0.597,1.333-1.333S140.331,26.594,139.595,26.594z"/>
			</defs>
			<clipPath id="SVGID_4_">
				<use xlink:href="#SVGID_3_"  style="overflow:visible;"/>
			</clipPath>
			
				<linearGradient id="Gradient_3_" gradientUnits="userSpaceOnUse" x1="143.4921" y1="-206.5678" x2="252.2911" y2="-269.3828" gradientTransform="matrix(1 0 0 -1 -114.96 -170.494)">
				<stop  offset="0" style="stop-color:#6BD3FF"/>
				<stop  offset="0.575" style="stop-color:#C9A3FF"/>
				<stop  offset="0.728" style="stop-color:#CCA2F9"/>
				<stop  offset="0.927" style="stop-color:#D3A1E9"/>
				<stop  offset="1" style="stop-color:#D7A0E1"/>
			</linearGradient>
			<path id="Gradient" class="st2" d="M11.934-2.75h151.775v146.109H11.934V-2.75z"/>
		</g>
	</g>
</g>
</svg>
