G04*
G04 #@! TF.GenerationSoftware,Altium Limited,Altium Designer,23.8.1 (32)*
G04*
G04 Layer_Color=16711935*
%FSLAX25Y25*%
%MOIN*%
G70*
G04*
G04 #@! TF.SameCoordinates,0DE2839E-6DB8-40D6-88C8-AA8B4B5F9229*
G04*
G04*
G04 #@! TF.FilePolarity,Positive*
G04*
G01*
G75*
%ADD10C,0.01000*%
D10*
X337000Y198843D02*
X336962Y199864D01*
X336848Y200879D01*
X336658Y201882D01*
X336393Y202869D01*
X336056Y203833D01*
X335648Y204769D01*
X335171Y205672D01*
X334627Y206536D01*
X334021Y207358D01*
X333354Y208132D01*
X332632Y208854D01*
X331858Y209521D01*
X331036Y210127D01*
X330172Y210670D01*
X329269Y211148D01*
X328333Y211556D01*
X327369Y211893D01*
X326382Y212158D01*
X325379Y212348D01*
X324364Y212462D01*
X323343Y212500D01*
X0Y13657D02*
X38Y12637D01*
X153Y11622D01*
X343Y10618D01*
X607Y9632D01*
X944Y8668D01*
X1352Y7732D01*
X1830Y6829D01*
X2373Y5964D01*
X2980Y5142D01*
X3646Y4368D01*
X4368Y3646D01*
X5142Y2980D01*
X5964Y2373D01*
X6829Y1830D01*
X7732Y1352D01*
X8668Y944D01*
X9632Y607D01*
X10618Y343D01*
X11622Y153D01*
X12637Y38D01*
X13657Y0D01*
X323343D02*
X324364Y38D01*
X325379Y153D01*
X326382Y343D01*
X327369Y607D01*
X328333Y944D01*
X329269Y1352D01*
X330172Y1830D01*
X331036Y2373D01*
X331858Y2980D01*
X332632Y3646D01*
X333354Y4368D01*
X334021Y5142D01*
X334627Y5964D01*
X335170Y6829D01*
X335648Y7732D01*
X336056Y8668D01*
X336393Y9632D01*
X336658Y10618D01*
X336848Y11622D01*
X336962Y12636D01*
X337000Y13657D01*
X13657Y212500D02*
X12637Y212462D01*
X11622Y212348D01*
X10618Y212158D01*
X9632Y211893D01*
X8668Y211556D01*
X7732Y211148D01*
X6829Y210670D01*
X5964Y210127D01*
X5142Y209521D01*
X4368Y208854D01*
X3646Y208132D01*
X2980Y207358D01*
X2373Y206536D01*
X1830Y205672D01*
X1352Y204769D01*
X944Y203833D01*
X607Y202869D01*
X343Y201882D01*
X153Y200879D01*
X38Y199864D01*
X0Y198843D01*
X0D02*
X0Y13657D01*
X337000D02*
Y198843D01*
X13657Y212500D02*
X323343D01*
X13657Y0D02*
X323343D01*
M02*
