G04*
G04 #@! TF.GenerationSoftware,Altium Limited,Altium Designer,23.8.1 (32)*
G04*
G04 Layer_Physical_Order=2*
G04 Layer_Color=16711680*
%FSLAX25Y25*%
%MOIN*%
G70*
G04*
G04 #@! TF.SameCoordinates,0DE2839E-6DB8-40D6-88C8-AA8B4B5F9229*
G04*
G04*
G04 #@! TF.FilePolarity,Positive*
G04*
G01*
G75*
G36*
X324105Y210461D02*
X325615Y210262D01*
X327086Y209868D01*
X328493Y209285D01*
X329812Y208524D01*
X331020Y207597D01*
X332097Y206520D01*
X333024Y205311D01*
X333785Y203993D01*
X334368Y202586D01*
X334762Y201115D01*
X334961Y199605D01*
Y198843D01*
X334961Y13657D01*
X334961Y12896D01*
X334762Y11386D01*
X334368Y9915D01*
X333785Y8508D01*
X333024Y7189D01*
X332097Y5980D01*
X331020Y4904D01*
X329812Y3976D01*
X328493Y3215D01*
X327086Y2632D01*
X325615Y2238D01*
X324105Y2039D01*
X323343D01*
X13657Y2039D01*
X12896Y2039D01*
X11386Y2238D01*
X9915Y2632D01*
X8508Y3215D01*
X7189Y3976D01*
X5980Y4904D01*
X4904Y5980D01*
X3976Y7189D01*
X3215Y8508D01*
X2632Y9915D01*
X2238Y11386D01*
X2039Y12896D01*
Y13657D01*
X2039Y198843D01*
X2039Y199605D01*
X2238Y201115D01*
X2632Y202586D01*
X3215Y203993D01*
X3976Y205311D01*
X4904Y206520D01*
X5980Y207597D01*
X7189Y208524D01*
X8508Y209285D01*
X9915Y209868D01*
X11386Y210262D01*
X12896Y210461D01*
X13657D01*
X323343Y210461D01*
X324105Y210461D01*
D02*
G37*
M02*
