G04*
G04 #@! TF.GenerationSoftware,Altium Limited,Altium Designer,23.8.1 (32)*
G04*
G04 Layer_Physical_Order=2*
G04 Layer_Color=16711680*
%FSLAX25Y25*%
%MOIN*%
G70*
G04*
G04 #@! TF.SameCoordinates,475EB795-6623-4B10-B830-88ECEB9CBB52*
G04*
G04*
G04 #@! TF.FilePolarity,Positive*
G04*
G01*
G75*
G36*
X325243Y210838D02*
X327096Y210393D01*
X328857Y209664D01*
X330482Y208668D01*
X331931Y207431D01*
X333168Y205981D01*
X334164Y204357D01*
X334893Y202596D01*
X335338Y200743D01*
X335483Y198904D01*
X335471Y198843D01*
Y13657D01*
X335483Y13596D01*
X335338Y11757D01*
X334893Y9904D01*
X334164Y8144D01*
X333168Y6519D01*
X331931Y5070D01*
X330482Y3832D01*
X328857Y2836D01*
X327096Y2107D01*
X325243Y1662D01*
X323404Y1517D01*
X323343Y1529D01*
X13657D01*
X13596Y1517D01*
X11757Y1662D01*
X9904Y2107D01*
X8144Y2836D01*
X6519Y3832D01*
X5070Y5070D01*
X3832Y6519D01*
X2836Y8144D01*
X2107Y9904D01*
X1662Y11757D01*
X1517Y13596D01*
X1529Y13657D01*
X1529Y198344D01*
X1529Y198843D01*
X1551Y199334D01*
X1662Y200743D01*
X2107Y202596D01*
X2836Y204357D01*
X3832Y205981D01*
X5070Y207431D01*
X6519Y208668D01*
X8144Y209664D01*
X9904Y210393D01*
X11757Y210838D01*
X13596Y210983D01*
X13657Y210971D01*
X323343D01*
X323404Y210983D01*
X325243Y210838D01*
D02*
G37*
M02*
