G04*
G04 #@! TF.GenerationSoftware,Altium Limited,Altium Designer,23.8.1 (32)*
G04*
G04 Layer_Physical_Order=1*
G04 Layer_Color=255*
%FSLAX25Y25*%
%MOIN*%
G70*
G04*
G04 #@! TF.SameCoordinates,CE9800D7-1F77-4EEC-8F02-302C35C224A9*
G04*
G04*
G04 #@! TF.FilePolarity,Positive*
G04*
G01*
G75*
G36*
X325243Y210838D02*
X327096Y210393D01*
X328857Y209664D01*
X330482Y208668D01*
X331931Y207431D01*
X333168Y205981D01*
X334164Y204357D01*
X334893Y202596D01*
X335338Y200743D01*
X335483Y198904D01*
X335471Y198843D01*
Y13657D01*
X335483Y13596D01*
X335338Y11757D01*
X334893Y9904D01*
X334164Y8144D01*
X333168Y6519D01*
X331931Y5070D01*
X330482Y3832D01*
X328857Y2836D01*
X327096Y2107D01*
X325243Y1662D01*
X323404Y1517D01*
X323343Y1529D01*
X13657D01*
X13596Y1517D01*
X11757Y1662D01*
X9904Y2107D01*
X8144Y2836D01*
X6519Y3832D01*
X5070Y5070D01*
X3832Y6519D01*
X2836Y8144D01*
X2107Y9904D01*
X1662Y11757D01*
X1517Y13596D01*
X1529Y13657D01*
X1529Y198344D01*
X1529Y198843D01*
X1551Y199334D01*
X1662Y200743D01*
X2107Y202596D01*
X2836Y204357D01*
X3832Y205981D01*
X5070Y207431D01*
X6519Y208668D01*
X8144Y209664D01*
X9904Y210393D01*
X11757Y210838D01*
X13596Y210983D01*
X13657Y210971D01*
X323343D01*
X323404Y210983D01*
X325243Y210838D01*
D02*
G37*
%LPC*%
G36*
X74809Y85786D02*
X74741Y85772D01*
X74672Y85776D01*
X74548Y85731D01*
X74420Y85704D01*
X74014Y85530D01*
X73989Y85513D01*
X73960Y85505D01*
X73869Y85460D01*
X72830Y85439D01*
X72645Y85398D01*
X72460Y85361D01*
X72451Y85355D01*
X72441Y85353D01*
X72286Y85245D01*
X72129Y85140D01*
X69938Y82948D01*
X69121Y82966D01*
X69051Y83013D01*
X68948Y83102D01*
X68887Y83122D01*
X68834Y83158D01*
X68700Y83184D01*
X68570Y83227D01*
X68106Y83285D01*
X68049Y83281D01*
X67992Y83293D01*
X67852Y83267D01*
X67709Y83257D01*
X67658Y83231D01*
X67601Y83220D01*
X67311Y83104D01*
X67275Y83081D01*
X67234Y83070D01*
X67118Y83012D01*
X66804Y82768D01*
X66804Y82768D01*
X66732Y82641D01*
X66708Y82618D01*
X66628Y82499D01*
X66536Y82389D01*
X66519Y82334D01*
X66487Y82287D01*
X66459Y82146D01*
X66416Y82010D01*
X66358Y81488D01*
X66362Y81437D01*
X66351Y81388D01*
X66379Y81240D01*
X66392Y81091D01*
X66415Y81046D01*
X66424Y80996D01*
X66540Y80707D01*
X66579Y80648D01*
X66601Y80581D01*
X66686Y80482D01*
X66757Y80373D01*
X66815Y80333D01*
X66861Y80280D01*
X67122Y80077D01*
X67212Y80032D01*
X67292Y79970D01*
X67408Y79912D01*
X67478Y79893D01*
X67541Y79857D01*
X67715Y79799D01*
X67804Y79788D01*
X67888Y79758D01*
X67999Y79763D01*
X68110Y79749D01*
X68196Y79773D01*
X68285Y79777D01*
X68749Y79893D01*
X68818Y79925D01*
X68892Y79940D01*
X68996Y80010D01*
X69060Y80040D01*
X72143Y80068D01*
X72336Y79607D01*
X71427Y78698D01*
X70637Y78670D01*
X70576Y78711D01*
X70491Y78790D01*
X70412Y78820D01*
X70341Y78867D01*
X70227Y78890D01*
X70119Y78931D01*
X69771Y78989D01*
X69680Y78986D01*
X69591Y79003D01*
X69483Y78980D01*
X69373Y78976D01*
X69291Y78939D01*
X69202Y78920D01*
X68796Y78746D01*
X68759Y78721D01*
X68716Y78708D01*
X68596Y78609D01*
X68468Y78521D01*
X68443Y78483D01*
X68408Y78455D01*
X68147Y78136D01*
X68116Y78078D01*
X68072Y78030D01*
X68024Y77904D01*
X67960Y77785D01*
X67954Y77719D01*
X67931Y77658D01*
X67873Y77310D01*
X67875Y77232D01*
X67859Y77155D01*
X67881Y77035D01*
X67885Y76912D01*
X67918Y76841D01*
X67932Y76764D01*
X68048Y76474D01*
X68071Y76438D01*
X68083Y76397D01*
X68141Y76280D01*
X68158Y76259D01*
X68166Y76232D01*
X68279Y76102D01*
X68384Y75966D01*
X68409Y75953D01*
X68427Y75932D01*
X68687Y75729D01*
X68821Y75554D01*
X68853Y75297D01*
X68795Y74834D01*
X68808Y74647D01*
X68817Y74460D01*
X68875Y74228D01*
X68907Y74159D01*
X68922Y74085D01*
X68992Y73981D01*
X69045Y73868D01*
X69101Y73817D01*
X69143Y73754D01*
X69462Y73435D01*
X69576Y73359D01*
X69679Y73270D01*
X69722Y72920D01*
X69664Y72456D01*
X69673Y72341D01*
X69662Y72227D01*
X69687Y72145D01*
X69693Y72060D01*
X69744Y71956D01*
X69778Y71846D01*
X69981Y71469D01*
X70053Y71383D01*
X70109Y71285D01*
X70178Y71231D01*
X70235Y71163D01*
X70334Y71110D01*
X70351Y71096D01*
X70361Y71087D01*
X70381Y71074D01*
X70423Y71041D01*
X70424Y71040D01*
X70458Y71002D01*
X70579Y70941D01*
X70692Y70866D01*
X70755Y70853D01*
X70814Y70824D01*
X70993Y70775D01*
X71181Y70400D01*
X71200Y70266D01*
X71200Y70238D01*
X71162Y70192D01*
X71122Y70116D01*
X71065Y70051D01*
X71029Y69942D01*
X70976Y69841D01*
X70967Y69755D01*
X70940Y69673D01*
X70882Y69209D01*
X70886Y69152D01*
X70874Y69095D01*
X70900Y68955D01*
X70911Y68812D01*
X70936Y68761D01*
X70947Y68704D01*
X71063Y68414D01*
X71094Y68366D01*
X71111Y68311D01*
X71202Y68200D01*
X71280Y68081D01*
X71327Y68048D01*
X71364Y68004D01*
X71683Y67743D01*
X71691Y67738D01*
X71636Y67296D01*
X71640Y67238D01*
X71628Y67182D01*
X71654Y67041D01*
X71664Y66899D01*
X71690Y66847D01*
X71701Y66791D01*
X71817Y66501D01*
X71840Y66465D01*
X71851Y66423D01*
X71909Y66307D01*
X71909Y66307D01*
X72045Y66132D01*
X72153Y65993D01*
X72153Y65993D01*
X72280Y65921D01*
X72303Y65898D01*
X72394Y65837D01*
X72354Y65677D01*
X72344Y65481D01*
X72334Y65286D01*
X72392Y64880D01*
X72434Y64759D01*
X72459Y64634D01*
X72500Y64573D01*
X72524Y64504D01*
X72609Y64409D01*
X72680Y64303D01*
X72970Y64013D01*
X72981Y64006D01*
X72989Y63995D01*
X73146Y63895D01*
X73301Y63792D01*
X73314Y63789D01*
X73325Y63783D01*
X73702Y63638D01*
X73743Y63630D01*
X73884Y63384D01*
X73933Y63147D01*
X73931Y63106D01*
X73929Y63095D01*
X73876Y63016D01*
X73784Y62907D01*
X73766Y62852D01*
X73735Y62805D01*
X73707Y62664D01*
X73664Y62527D01*
X73606Y62006D01*
X73607Y61985D01*
X73602Y61965D01*
X73624Y61787D01*
X73640Y61609D01*
X73649Y61591D01*
X73651Y61571D01*
X73738Y61310D01*
X73757Y61278D01*
X73764Y61242D01*
X73829Y61144D01*
X73836Y61121D01*
X73868Y61083D01*
X73936Y60964D01*
X73965Y60941D01*
X73985Y60911D01*
X74014Y60882D01*
X74057Y60854D01*
X74089Y60814D01*
X74408Y60553D01*
X74476Y60517D01*
X74525Y60473D01*
X74512Y60448D01*
X74504Y60362D01*
X74477Y60280D01*
X74419Y59816D01*
X74423Y59759D01*
X74411Y59702D01*
X74437Y59562D01*
X74448Y59419D01*
X74473Y59368D01*
X74484Y59311D01*
X74600Y59021D01*
X74631Y58973D01*
X74648Y58918D01*
X74739Y58807D01*
X74817Y58688D01*
X74864Y58655D01*
X74901Y58611D01*
X75220Y58350D01*
X75242Y58338D01*
X75258Y58320D01*
X75417Y58245D01*
X75530Y58094D01*
X75619Y57744D01*
X75619Y57674D01*
X75600Y57576D01*
X75561Y57483D01*
X75503Y57193D01*
X75503Y57021D01*
X75494Y56849D01*
X75523Y56646D01*
X75571Y56510D01*
X75604Y56369D01*
X75749Y56050D01*
X75804Y55973D01*
X75842Y55886D01*
X75919Y55813D01*
X75981Y55727D01*
X76061Y55677D01*
X76130Y55611D01*
X76424Y55424D01*
X76451Y55406D01*
X76455Y55402D01*
X76552Y55251D01*
X76640Y55056D01*
X76645Y54799D01*
X76609Y54736D01*
X76551Y54562D01*
X76539Y54473D01*
X76509Y54389D01*
X76515Y54278D01*
X76501Y54167D01*
X76525Y54081D01*
X76529Y53992D01*
X76587Y53760D01*
X76604Y53724D01*
X76609Y53685D01*
X76667Y53511D01*
X76703Y53448D01*
X76722Y53377D01*
X76780Y53262D01*
X76837Y53189D01*
X76794Y52995D01*
X76604Y52692D01*
X76599Y52688D01*
X74238Y52679D01*
X74045Y52639D01*
X73852Y52601D01*
X73850Y52600D01*
X73848Y52600D01*
X73684Y52489D01*
X73521Y52380D01*
X72799Y51658D01*
X72559Y51663D01*
X72472Y51680D01*
X72260Y51777D01*
X72145Y52067D01*
X72121Y52103D01*
X72110Y52144D01*
X72052Y52260D01*
X71938Y52407D01*
X71808Y52574D01*
X71808Y52574D01*
X71808Y52574D01*
X71681Y52646D01*
X71658Y52670D01*
X71544Y52746D01*
X71441Y52835D01*
X71380Y52855D01*
X71327Y52891D01*
X71193Y52918D01*
X71063Y52961D01*
X70600Y53019D01*
X70413Y53005D01*
X70226Y52996D01*
X70207Y52991D01*
X69969Y53234D01*
X69876Y53424D01*
X70004Y53757D01*
X70023Y53868D01*
X70061Y53973D01*
X70057Y54062D01*
X70072Y54149D01*
X70047Y54259D01*
X70042Y54371D01*
X69984Y54602D01*
X69944Y54687D01*
X69923Y54777D01*
X69778Y55096D01*
X69692Y55215D01*
X69620Y55342D01*
X69577Y55375D01*
X69546Y55419D01*
X69421Y55496D01*
X69377Y55531D01*
X69339Y55569D01*
X69225Y55645D01*
X69122Y55734D01*
X69061Y55755D01*
X69008Y55790D01*
X68874Y55817D01*
X68744Y55860D01*
X68421Y55900D01*
X68253Y56316D01*
X68247Y56416D01*
X68300Y56510D01*
X68324Y56533D01*
X68404Y56653D01*
X68496Y56762D01*
X68513Y56817D01*
X68545Y56864D01*
X68573Y57005D01*
X68616Y57142D01*
X68674Y57664D01*
X68670Y57714D01*
X68680Y57764D01*
X68653Y57911D01*
X68640Y58060D01*
X68617Y58105D01*
X68608Y58155D01*
X68492Y58445D01*
X68488Y58450D01*
X68487Y58456D01*
X68380Y58617D01*
X68275Y58778D01*
X68269Y58782D01*
X68266Y58787D01*
X68092Y58961D01*
X68081Y58968D01*
X68073Y58979D01*
X67916Y59079D01*
X67761Y59182D01*
X67747Y59345D01*
X67804Y59867D01*
X67800Y59917D01*
X67811Y59967D01*
X67783Y60114D01*
X67770Y60263D01*
X67747Y60308D01*
X67738Y60358D01*
X67622Y60648D01*
X67590Y60696D01*
X67574Y60751D01*
X67483Y60862D01*
X67405Y60982D01*
X67357Y61014D01*
X67321Y61059D01*
X67002Y61320D01*
X66934Y61356D01*
X66876Y61408D01*
X66760Y61449D01*
X66651Y61506D01*
X66574Y61514D01*
X66501Y61540D01*
X66095Y61598D01*
X66028Y61594D01*
X65963Y61608D01*
X65831Y61583D01*
X65697Y61576D01*
X65637Y61547D01*
X65572Y61535D01*
X65282Y61419D01*
X65277Y61416D01*
X65270Y61414D01*
X65144Y61330D01*
X63366Y63107D01*
X63289Y63158D01*
X63206Y63215D01*
X63199Y63229D01*
X63442Y63658D01*
X63528Y63636D01*
X63674Y63600D01*
X63724Y63598D01*
X63771Y63581D01*
X63921Y63588D01*
X64071Y63581D01*
X64118Y63598D01*
X64168Y63600D01*
X64400Y63658D01*
X64521Y63715D01*
X64648Y63756D01*
X64909Y63901D01*
X64990Y63969D01*
X65082Y64022D01*
X65140Y64097D01*
X65213Y64158D01*
X65261Y64252D01*
X65270Y64265D01*
X65309Y64303D01*
X65364Y64386D01*
X65435Y64457D01*
X65474Y64550D01*
X65530Y64634D01*
X65549Y64732D01*
X65588Y64824D01*
X65646Y65114D01*
X65646Y65286D01*
X65655Y65458D01*
X65597Y65864D01*
X65555Y65985D01*
X65530Y66110D01*
X65489Y66171D01*
X65465Y66239D01*
X65380Y66334D01*
X65309Y66441D01*
X64990Y66760D01*
X64871Y66839D01*
X64761Y66932D01*
X64706Y66949D01*
X64659Y66981D01*
X64518Y67009D01*
X64381Y67052D01*
X63860Y67110D01*
X63752Y67101D01*
X63644Y67111D01*
X63556Y67084D01*
X63463Y67076D01*
X63367Y67026D01*
X63264Y66994D01*
X62894Y66795D01*
X57668Y66770D01*
X57565Y66839D01*
X57455Y66932D01*
X57401Y66949D01*
X57353Y66981D01*
X57213Y67009D01*
X57076Y67052D01*
X56554Y67110D01*
X56503Y67106D01*
X56454Y67116D01*
X56307Y67089D01*
X56158Y67076D01*
X56112Y67053D01*
X56063Y67043D01*
X55773Y66927D01*
X55768Y66924D01*
X55761Y66923D01*
X55601Y66816D01*
X55439Y66710D01*
X55436Y66705D01*
X55431Y66702D01*
X55344Y66615D01*
X55253Y66479D01*
X55208Y66421D01*
X55199Y66412D01*
X55185Y66392D01*
X55152Y66350D01*
X55152Y66349D01*
X55113Y66315D01*
X55053Y66194D01*
X54978Y66081D01*
X54965Y66017D01*
X54936Y65959D01*
X54849Y65640D01*
X54843Y65562D01*
X54820Y65488D01*
X54830Y65366D01*
X54821Y65243D01*
X54846Y65169D01*
X54852Y65092D01*
X54968Y64686D01*
X54995Y64634D01*
X55006Y64576D01*
X55085Y64458D01*
X55150Y64332D01*
X55195Y64294D01*
X55228Y64245D01*
X55372Y64100D01*
X55443Y64053D01*
X55501Y63991D01*
X55704Y63846D01*
X55867Y63773D01*
X56028Y63692D01*
X56203Y63645D01*
X56213Y63635D01*
X56312Y63484D01*
X56402Y63264D01*
X56404Y63250D01*
X56409Y63100D01*
X56387Y63078D01*
X56323Y62981D01*
X56243Y62897D01*
X56213Y62817D01*
X56166Y62747D01*
X56143Y62633D01*
X56102Y62524D01*
X56044Y62177D01*
X56045Y62168D01*
X56042Y62159D01*
X56051Y61969D01*
X56057Y61779D01*
X56061Y61771D01*
X56061Y61762D01*
X56119Y61530D01*
X56176Y61409D01*
X56217Y61282D01*
X56362Y61021D01*
X56430Y60940D01*
X56483Y60848D01*
X56558Y60790D01*
X56619Y60717D01*
X56944Y60448D01*
X56935Y60362D01*
X56908Y60280D01*
X56850Y59816D01*
X56854Y59759D01*
X56842Y59702D01*
X56868Y59562D01*
X56879Y59419D01*
X56905Y59368D01*
X56915Y59311D01*
X57031Y59021D01*
X57063Y58973D01*
X57079Y58918D01*
X57170Y58807D01*
X57248Y58688D01*
X57296Y58655D01*
X57332Y58611D01*
X57651Y58350D01*
X57673Y58338D01*
X57690Y58320D01*
X57848Y58245D01*
X58002Y58163D01*
X58027Y58160D01*
X58049Y58150D01*
X58281Y58092D01*
X58478Y58082D01*
X58673Y58072D01*
X59079Y58129D01*
X59199Y58172D01*
X59325Y58197D01*
X59385Y58237D01*
X59454Y58262D01*
X59549Y58347D01*
X59572Y58362D01*
X60843Y58397D01*
X61180Y58060D01*
X61225Y58003D01*
X61316Y57867D01*
X62620Y56562D01*
X62763Y56467D01*
X62899Y56364D01*
X62927Y56357D01*
X62951Y56341D01*
X63119Y56308D01*
X63285Y56265D01*
X64328Y56207D01*
X64357Y56211D01*
X64385Y56206D01*
X65588D01*
X65742Y56104D01*
X65753Y56086D01*
X65478Y55588D01*
X61649Y55605D01*
X61610Y55637D01*
X61541Y55674D01*
X61483Y55725D01*
X61367Y55766D01*
X61259Y55824D01*
X61181Y55832D01*
X61108Y55857D01*
X60702Y55915D01*
X60636Y55912D01*
X60571Y55926D01*
X60439Y55901D01*
X60305Y55894D01*
X60245Y55865D01*
X60179Y55853D01*
X59890Y55737D01*
X59854Y55713D01*
X59812Y55702D01*
X59696Y55644D01*
X59607Y55575D01*
X59508Y55522D01*
X59452Y55454D01*
X59382Y55400D01*
X59326Y55302D01*
X59254Y55216D01*
X59052Y54839D01*
X59026Y54754D01*
X58982Y54678D01*
X58924Y54504D01*
X58908Y54377D01*
X58874Y54254D01*
X58883Y54181D01*
X58874Y54109D01*
X58908Y53986D01*
X58924Y53859D01*
X58982Y53685D01*
X58997Y53658D01*
X59003Y53629D01*
X59119Y53339D01*
X59150Y53290D01*
X59167Y53235D01*
X59258Y53125D01*
X59336Y53005D01*
X59383Y52973D01*
X59420Y52928D01*
X59738Y52667D01*
X59782Y52644D01*
X59817Y52609D01*
X59956Y52551D01*
X60090Y52480D01*
X60139Y52476D01*
X60184Y52457D01*
X60474Y52399D01*
X60517Y52399D01*
X60558Y52386D01*
X60715Y52399D01*
X60872Y52398D01*
X60912Y52415D01*
X60954Y52418D01*
X61360Y52534D01*
X61412Y52561D01*
X61470Y52573D01*
X61588Y52651D01*
X61669Y52693D01*
X61786Y52700D01*
X63529Y50957D01*
X63486Y50826D01*
X63424Y50705D01*
X63250Y50529D01*
X63185Y50542D01*
X63048Y50585D01*
X62526Y50643D01*
X62452Y50637D01*
X62379Y50649D01*
X62256Y50620D01*
X62130Y50609D01*
X62064Y50575D01*
X61992Y50558D01*
X61673Y50413D01*
X61576Y50344D01*
X61470Y50291D01*
X61416Y50229D01*
X61350Y50181D01*
X61287Y50080D01*
X61209Y49991D01*
X60977Y49585D01*
X60945Y49489D01*
X60895Y49401D01*
X60837Y49227D01*
X60821Y49101D01*
X60788Y48977D01*
X60797Y48905D01*
X60788Y48833D01*
X60821Y48709D01*
X60837Y48582D01*
X60883Y48446D01*
X60931Y48252D01*
X60964Y48183D01*
X60979Y48109D01*
X61048Y48005D01*
X61101Y47892D01*
X61158Y47841D01*
X61200Y47778D01*
X61432Y47546D01*
X61443Y47539D01*
X61450Y47528D01*
X61608Y47429D01*
X61762Y47325D01*
X61775Y47322D01*
X61787Y47315D01*
X62164Y47170D01*
X62274Y47151D01*
X62379Y47114D01*
X62468Y47118D01*
X62514Y47110D01*
X62628Y46943D01*
X62725Y46628D01*
X62475Y46379D01*
X62399Y46265D01*
X62310Y46162D01*
X62290Y46101D01*
X62254Y46048D01*
X62228Y45914D01*
X62185Y45784D01*
X62127Y45320D01*
X62131Y45263D01*
X62119Y45206D01*
X62145Y45066D01*
X62155Y44924D01*
X62181Y44872D01*
X62192Y44815D01*
X62308Y44525D01*
X62331Y44489D01*
X62342Y44448D01*
X62400Y44332D01*
X62471Y44240D01*
X62527Y44138D01*
X62592Y44085D01*
X62644Y44018D01*
X62745Y43960D01*
X62835Y43887D01*
X63328Y43626D01*
X63493Y43577D01*
X63655Y43519D01*
X63683Y43520D01*
X63709Y43512D01*
X63880Y43530D01*
X64052Y43538D01*
X64516Y43654D01*
X64585Y43686D01*
X64659Y43701D01*
X64763Y43771D01*
X64829Y43802D01*
X69551Y43856D01*
X90117D01*
X90358Y43711D01*
X90463Y43673D01*
X90561Y43618D01*
X90734Y43560D01*
X90823Y43549D01*
X90907Y43519D01*
X91018Y43524D01*
X91129Y43510D01*
X91215Y43534D01*
X91304Y43538D01*
X91536Y43596D01*
X91620Y43636D01*
X91711Y43657D01*
X92030Y43802D01*
X92149Y43887D01*
X92276Y43960D01*
X92309Y44003D01*
X92353Y44034D01*
X92430Y44159D01*
X92464Y44203D01*
X92503Y44241D01*
X92579Y44355D01*
X92668Y44458D01*
X92688Y44519D01*
X92724Y44572D01*
X92750Y44706D01*
X92793Y44836D01*
X92851Y45300D01*
X92838Y45486D01*
X92829Y45673D01*
X92797Y45940D01*
X92997Y46201D01*
X93048Y46257D01*
X93111Y46299D01*
X93256Y46444D01*
X93326Y46548D01*
X93410Y46641D01*
X93584Y46931D01*
X93621Y47036D01*
X93677Y47133D01*
X93735Y47307D01*
X93746Y47395D01*
X93776Y47479D01*
X93770Y47591D01*
X93784Y47701D01*
X93761Y47787D01*
X93757Y47877D01*
X93699Y48109D01*
X93682Y48144D01*
X93677Y48184D01*
X93619Y48358D01*
X93582Y48421D01*
X93563Y48491D01*
X93505Y48607D01*
X93488Y48629D01*
X93480Y48655D01*
X93367Y48785D01*
X93261Y48921D01*
X93264Y48994D01*
X93296Y49121D01*
X93526Y49491D01*
X93650Y49535D01*
X93778Y49562D01*
X94184Y49736D01*
X94221Y49762D01*
X94264Y49775D01*
X94384Y49874D01*
X94512Y49961D01*
X94536Y49999D01*
X94571Y50028D01*
X94832Y50347D01*
X94855Y50390D01*
X94890Y50425D01*
X94948Y50564D01*
X95019Y50698D01*
X95024Y50747D01*
X95043Y50792D01*
X95101Y51082D01*
X95101Y51125D01*
X95114Y51166D01*
X95101Y51323D01*
X95101Y51480D01*
X95085Y51520D01*
X95081Y51562D01*
X94965Y51968D01*
X94958Y51983D01*
X95044Y52391D01*
X95175Y52570D01*
X95183Y52577D01*
X95300Y52612D01*
X95361Y52662D01*
X95433Y52695D01*
X95514Y52785D01*
X95609Y52862D01*
X95899Y53210D01*
X95908Y53226D01*
X95922Y53238D01*
X96003Y53400D01*
X96089Y53559D01*
X96091Y53578D01*
X96099Y53594D01*
X96186Y53913D01*
X96192Y53991D01*
X96215Y54065D01*
X96205Y54187D01*
X96214Y54310D01*
X96189Y54384D01*
X96183Y54461D01*
X96087Y54798D01*
X96074Y54890D01*
X96162Y55185D01*
X96305Y55407D01*
X96306Y55408D01*
X96318Y55414D01*
X96478Y55521D01*
X96640Y55626D01*
X96643Y55631D01*
X96648Y55635D01*
X96735Y55722D01*
X96782Y55792D01*
X96844Y55850D01*
X96989Y56053D01*
X97063Y56217D01*
X97143Y56377D01*
X97230Y56696D01*
X97235Y56774D01*
X97259Y56848D01*
X97249Y56971D01*
X97258Y57093D01*
X97233Y57167D01*
X97227Y57244D01*
X97111Y57650D01*
X97084Y57703D01*
X97072Y57761D01*
X96994Y57878D01*
X96929Y58004D01*
X96884Y58042D01*
X96851Y58091D01*
X96706Y58236D01*
X96602Y58306D01*
X96510Y58390D01*
X96220Y58564D01*
X96115Y58601D01*
X96018Y58657D01*
X95844Y58714D01*
X95739Y58728D01*
X95638Y58760D01*
X95543Y58752D01*
X95449Y58764D01*
X95347Y58736D01*
X95241Y58728D01*
X94836Y58612D01*
X94783Y58585D01*
X94725Y58573D01*
X94414Y58966D01*
X94414Y58966D01*
X96049Y60602D01*
X96393Y60593D01*
X96441Y60553D01*
X96510Y60517D01*
X96567Y60465D01*
X96684Y60424D01*
X96793Y60366D01*
X96870Y60359D01*
X96943Y60333D01*
X97349Y60275D01*
X97415Y60278D01*
X97480Y60265D01*
X97612Y60289D01*
X97746Y60296D01*
X97806Y60325D01*
X97872Y60338D01*
X98162Y60453D01*
X98167Y60457D01*
X98173Y60458D01*
X98334Y60565D01*
X98495Y60670D01*
X98498Y60676D01*
X98504Y60679D01*
X98765Y60940D01*
X98844Y61059D01*
X98937Y61169D01*
X98954Y61224D01*
X98986Y61271D01*
X99014Y61412D01*
X99057Y61548D01*
X99115Y62070D01*
X99111Y62121D01*
X99121Y62170D01*
X99094Y62318D01*
X99081Y62467D01*
X99058Y62512D01*
X99048Y62562D01*
X99005Y62671D01*
X99235Y62799D01*
X99316Y62868D01*
X99408Y62920D01*
X99466Y62995D01*
X99538Y63056D01*
X99586Y63151D01*
X99596Y63163D01*
X99634Y63201D01*
X99705Y63308D01*
X99791Y63403D01*
X99815Y63472D01*
X99855Y63532D01*
X99880Y63657D01*
X99923Y63778D01*
X99981Y64184D01*
X99977Y64251D01*
X99991Y64316D01*
X99966Y64447D01*
X99959Y64581D01*
X99930Y64641D01*
X99918Y64707D01*
X99802Y64997D01*
X99799Y65002D01*
X99797Y65008D01*
X99753Y65074D01*
X99753Y65076D01*
X99775Y65284D01*
X99801Y65382D01*
X99944Y65632D01*
X99953Y65636D01*
X100263Y65777D01*
X100359Y65847D01*
X100466Y65899D01*
X100519Y65961D01*
X100586Y66009D01*
X100649Y66110D01*
X100726Y66200D01*
X100958Y66606D01*
X100990Y66701D01*
X101040Y66789D01*
X101098Y66963D01*
X101114Y67090D01*
X101148Y67213D01*
X101139Y67285D01*
X101148Y67357D01*
X101114Y67481D01*
X101098Y67608D01*
X101053Y67743D01*
X101100Y67782D01*
X101220Y67860D01*
X101253Y67908D01*
X101297Y67944D01*
X101558Y68263D01*
X101599Y68340D01*
X101655Y68405D01*
X101691Y68513D01*
X101745Y68614D01*
X101753Y68700D01*
X101781Y68782D01*
X101839Y69246D01*
X101834Y69304D01*
X101846Y69360D01*
X101820Y69501D01*
X101810Y69643D01*
X101784Y69695D01*
X101774Y69751D01*
X101658Y70041D01*
X101626Y70090D01*
X101609Y70144D01*
X101543Y70225D01*
X101569Y70430D01*
X101641Y70644D01*
X101720Y70750D01*
X101739Y70771D01*
X101756Y70774D01*
X102046Y70890D01*
X102082Y70914D01*
X102124Y70925D01*
X102240Y70983D01*
X102261Y71000D01*
X102288Y71009D01*
X102418Y71121D01*
X102554Y71227D01*
X102568Y71251D01*
X102588Y71269D01*
X102791Y71530D01*
X102808Y71563D01*
X102834Y71588D01*
X102896Y71739D01*
X102970Y71886D01*
X102972Y71922D01*
X102986Y71956D01*
X103044Y72246D01*
X103044Y72418D01*
X103054Y72590D01*
X102996Y72996D01*
X102953Y73116D01*
X102933Y73218D01*
X103031Y73284D01*
X103144Y73337D01*
X103195Y73393D01*
X103258Y73435D01*
X103577Y73754D01*
X103657Y73874D01*
X103749Y73983D01*
X103767Y74038D01*
X103798Y74085D01*
X103826Y74226D01*
X103870Y74362D01*
X103928Y74884D01*
X103912Y75064D01*
X103903Y75244D01*
X103845Y75476D01*
X103813Y75545D01*
X103798Y75619D01*
X103729Y75723D01*
X103675Y75836D01*
X103619Y75887D01*
X103577Y75950D01*
X103432Y76095D01*
X103362Y76142D01*
X103304Y76204D01*
X103101Y76349D01*
X102937Y76422D01*
X102777Y76503D01*
X102458Y76590D01*
X102380Y76595D01*
X102306Y76619D01*
X102183Y76609D01*
X102061Y76617D01*
X101987Y76592D01*
X101909Y76586D01*
X101504Y76470D01*
X101451Y76443D01*
X101393Y76432D01*
X101276Y76353D01*
X101202Y76315D01*
X100481Y76278D01*
X95779D01*
X95679Y76349D01*
X95516Y76422D01*
X95355Y76503D01*
X95036Y76590D01*
X94958Y76595D01*
X94884Y76619D01*
X94762Y76609D01*
X94639Y76617D01*
X94565Y76592D01*
X94488Y76586D01*
X94082Y76470D01*
X94029Y76443D01*
X93972Y76432D01*
X93854Y76353D01*
X93728Y76288D01*
X93690Y76244D01*
X93641Y76211D01*
X93380Y75950D01*
X93300Y75831D01*
X93208Y75721D01*
X93191Y75666D01*
X93159Y75619D01*
X93131Y75478D01*
X93088Y75341D01*
X93030Y74820D01*
X93045Y74640D01*
X93054Y74460D01*
X93112Y74228D01*
X92988Y73999D01*
X92889Y73914D01*
X92780Y73842D01*
X92740Y73784D01*
X92687Y73738D01*
X92484Y73478D01*
X92439Y73387D01*
X92377Y73308D01*
X92319Y73192D01*
X92300Y73121D01*
X92264Y73058D01*
X92206Y72884D01*
X92195Y72796D01*
X92165Y72712D01*
X92170Y72600D01*
X92156Y72490D01*
X92180Y72404D01*
X92184Y72314D01*
X92242Y72083D01*
X92272Y72019D01*
X92285Y71951D01*
X92400Y71661D01*
X92432Y71613D01*
X92449Y71558D01*
X92540Y71447D01*
X92617Y71328D01*
X92665Y71295D01*
X92702Y71251D01*
X93020Y70990D01*
X93078Y70959D01*
X93126Y70914D01*
X93252Y70866D01*
X93371Y70803D01*
X93437Y70797D01*
X93498Y70773D01*
X93846Y70715D01*
X93925Y70718D01*
X94002Y70701D01*
X94122Y70724D01*
X94244Y70728D01*
X94315Y70760D01*
X94393Y70774D01*
X94683Y70890D01*
X94718Y70914D01*
X94760Y70925D01*
X94876Y70983D01*
X95331Y70900D01*
X95322Y70355D01*
X93749Y68781D01*
X93091Y68755D01*
X93080Y68762D01*
X92926Y68865D01*
X92913Y68868D01*
X92901Y68875D01*
X92524Y69020D01*
X92398Y69042D01*
X92275Y69081D01*
X92203Y69075D01*
X92133Y69087D01*
X92007Y69059D01*
X91878Y69048D01*
X91473Y68932D01*
X91420Y68906D01*
X91362Y68894D01*
X91245Y68815D01*
X91119Y68751D01*
X91081Y68706D01*
X91032Y68673D01*
X90713Y68354D01*
X90637Y68240D01*
X90547Y68137D01*
X90527Y68076D01*
X90492Y68023D01*
X90465Y67889D01*
X90422Y67760D01*
X90364Y67296D01*
X90368Y67238D01*
X90356Y67182D01*
X90382Y67041D01*
X90393Y66899D01*
X90418Y66847D01*
X90429Y66791D01*
X90545Y66501D01*
X90548Y66496D01*
X90550Y66489D01*
X90657Y66329D01*
X90762Y66167D01*
X90767Y66164D01*
X90771Y66158D01*
X91032Y65898D01*
X91151Y65818D01*
X91261Y65725D01*
X91315Y65708D01*
X91362Y65676D01*
X91503Y65649D01*
X91640Y65605D01*
X92162Y65547D01*
X92212Y65552D01*
X92262Y65541D01*
X92324Y65553D01*
X92677Y65192D01*
X92691Y65114D01*
X91152Y63575D01*
X91042Y63628D01*
X90887Y63710D01*
X90863Y63712D01*
X90840Y63723D01*
X90608Y63781D01*
X90413Y63790D01*
X90217Y63801D01*
X89811Y63743D01*
X89690Y63701D01*
X89565Y63676D01*
X89504Y63635D01*
X89436Y63611D01*
X89341Y63526D01*
X89234Y63455D01*
X88944Y63165D01*
X88937Y63154D01*
X88926Y63146D01*
X88827Y62989D01*
X88723Y62834D01*
X88721Y62821D01*
X88714Y62810D01*
X88569Y62433D01*
X88547Y62306D01*
X88507Y62183D01*
X88513Y62112D01*
X88501Y62041D01*
X88529Y61915D01*
X88540Y61787D01*
X88654Y61386D01*
X88604Y61371D01*
X88493Y61280D01*
X88373Y61202D01*
X88341Y61155D01*
X88296Y61118D01*
X88035Y60799D01*
X88004Y60741D01*
X87959Y60693D01*
X87912Y60567D01*
X87848Y60448D01*
X87842Y60383D01*
X87819Y60321D01*
X87761Y59973D01*
X87762Y59947D01*
X87754Y59922D01*
X87768Y59749D01*
X87773Y59576D01*
X87784Y59552D01*
X87786Y59526D01*
X87902Y59120D01*
X87952Y59022D01*
X87984Y58918D01*
X88042Y58847D01*
X88084Y58766D01*
X88167Y58695D01*
X88237Y58611D01*
X88556Y58350D01*
X88624Y58313D01*
X88682Y58262D01*
X88798Y58221D01*
X88907Y58163D01*
X88984Y58155D01*
X89057Y58129D01*
X89463Y58072D01*
X89530Y58075D01*
X89595Y58061D01*
X89727Y58086D01*
X89860Y58093D01*
X89920Y58122D01*
X89986Y58134D01*
X90276Y58250D01*
X90312Y58274D01*
X90353Y58285D01*
X90469Y58343D01*
X90489Y58358D01*
X90977Y58367D01*
X91187Y57870D01*
X88905Y55588D01*
X88547Y55597D01*
X88475Y55645D01*
X88372Y55734D01*
X88311Y55755D01*
X88258Y55790D01*
X88124Y55817D01*
X87994Y55860D01*
X87530Y55918D01*
X87473Y55914D01*
X87416Y55926D01*
X87276Y55899D01*
X87134Y55889D01*
X87082Y55863D01*
X87025Y55853D01*
X86735Y55737D01*
X86687Y55705D01*
X86632Y55689D01*
X86522Y55598D01*
X86457Y55556D01*
X86443Y55569D01*
X86330Y55645D01*
X86226Y55734D01*
X86166Y55755D01*
X86113Y55790D01*
X85979Y55817D01*
X85849Y55860D01*
X85385Y55918D01*
X85328Y55914D01*
X85271Y55926D01*
X85131Y55899D01*
X84988Y55889D01*
X84937Y55863D01*
X84880Y55853D01*
X84590Y55737D01*
X84585Y55733D01*
X84579Y55732D01*
X84418Y55625D01*
X84408Y55619D01*
X83979Y55598D01*
X81668Y57909D01*
X81875Y58409D01*
X82347D01*
X82448Y58342D01*
X82551Y58253D01*
X82612Y58232D01*
X82665Y58197D01*
X82799Y58170D01*
X82929Y58127D01*
X83393Y58069D01*
X83450Y58073D01*
X83507Y58061D01*
X83647Y58087D01*
X83789Y58098D01*
X83841Y58124D01*
X83898Y58134D01*
X84188Y58250D01*
X84236Y58281D01*
X84291Y58298D01*
X84401Y58389D01*
X84521Y58467D01*
X84554Y58514D01*
X84598Y58551D01*
X84859Y58870D01*
X84900Y58946D01*
X84956Y59012D01*
X84992Y59120D01*
X85046Y59221D01*
X85054Y59307D01*
X85082Y59389D01*
X85140Y59853D01*
X85136Y59911D01*
X85148Y59967D01*
X85121Y60107D01*
X85111Y60250D01*
X85085Y60301D01*
X85075Y60358D01*
X84959Y60648D01*
X84927Y60696D01*
X84911Y60751D01*
X84820Y60862D01*
X84742Y60982D01*
X84694Y61014D01*
X84658Y61059D01*
X84339Y61320D01*
X84317Y61331D01*
X84300Y61350D01*
X84226Y61384D01*
X84326Y61643D01*
X84348Y61770D01*
X84387Y61892D01*
X84381Y61964D01*
X84393Y62035D01*
X84365Y62161D01*
X84355Y62289D01*
X84239Y62695D01*
X84212Y62747D01*
X84200Y62805D01*
X84122Y62923D01*
X84057Y63049D01*
X84012Y63087D01*
X83979Y63136D01*
X83660Y63455D01*
X83547Y63531D01*
X83443Y63620D01*
X83383Y63640D01*
X83329Y63676D01*
X83195Y63702D01*
X83066Y63745D01*
X83021Y63751D01*
X82808Y64281D01*
X82888Y64378D01*
X82932Y64461D01*
X82992Y64532D01*
X83024Y64635D01*
X83075Y64729D01*
X83084Y64822D01*
X83112Y64911D01*
X83170Y65433D01*
X83165Y65490D01*
X83176Y65546D01*
Y65604D01*
X83169Y65640D01*
X83174Y65676D01*
X83138Y65807D01*
X83136Y65830D01*
X83128Y65844D01*
X83099Y65994D01*
X83078Y66024D01*
X83069Y66060D01*
X83011Y66176D01*
X82910Y66305D01*
X82819Y66441D01*
X82501Y66760D01*
X82387Y66836D01*
X82284Y66925D01*
X82223Y66945D01*
X82170Y66981D01*
X82036Y67007D01*
X81906Y67050D01*
X81442Y67108D01*
X81256Y67095D01*
X81068Y67086D01*
X80837Y67028D01*
X80768Y66996D01*
X80694Y66981D01*
X80590Y66911D01*
X80477Y66858D01*
X80438Y66815D01*
X79290Y66781D01*
X79056Y67015D01*
X79152Y67603D01*
X79165Y67614D01*
X79403Y67584D01*
X79456Y67556D01*
X79533Y67548D01*
X79606Y67523D01*
X80012Y67465D01*
X80079Y67468D01*
X80144Y67454D01*
X80275Y67479D01*
X80409Y67486D01*
X80469Y67515D01*
X80535Y67527D01*
X80825Y67643D01*
X80861Y67667D01*
X80902Y67678D01*
X81018Y67736D01*
X81332Y67980D01*
X81332Y67980D01*
X81404Y68106D01*
X81428Y68130D01*
X81431Y68135D01*
X81437Y68139D01*
X81542Y68300D01*
X81649Y68461D01*
X81650Y68467D01*
X81654Y68472D01*
X81770Y68762D01*
X81782Y68828D01*
X81811Y68888D01*
X81818Y69021D01*
X81842Y69153D01*
X81829Y69218D01*
X81832Y69285D01*
X81774Y69691D01*
X81732Y69811D01*
X81707Y69937D01*
X81666Y69997D01*
X81642Y70066D01*
X81557Y70161D01*
X81486Y70268D01*
X81447Y70306D01*
X81259Y70549D01*
X81133Y70621D01*
X81109Y70644D01*
X80995Y70720D01*
X80892Y70810D01*
X80831Y70830D01*
X80778Y70865D01*
X80644Y70892D01*
X80515Y70935D01*
X80310Y71465D01*
X80394Y71568D01*
X80418Y71612D01*
X80452Y71646D01*
X80510Y71786D01*
X80581Y71919D01*
X80586Y71968D01*
X80605Y72014D01*
X80663Y72304D01*
X80663Y72347D01*
X80676Y72387D01*
X80663Y72544D01*
X80664Y72702D01*
X80647Y72741D01*
X80644Y72784D01*
X80528Y73190D01*
X80478Y73287D01*
X80446Y73392D01*
X80388Y73462D01*
X80346Y73544D01*
X80263Y73614D01*
X80193Y73699D01*
X79874Y73960D01*
X79798Y74000D01*
X79732Y74057D01*
X79624Y74093D01*
X79523Y74147D01*
X79437Y74155D01*
X79355Y74182D01*
X78891Y74240D01*
X78834Y74236D01*
X78777Y74248D01*
X78637Y74222D01*
X78494Y74212D01*
X78443Y74186D01*
X78386Y74175D01*
X78096Y74059D01*
X78091Y74056D01*
X78084Y74054D01*
X77925Y73948D01*
X76257Y73900D01*
X74400D01*
X74208Y74362D01*
X75609Y75763D01*
X76209Y75787D01*
X76283Y75729D01*
X76341Y75700D01*
X76390Y75656D01*
X76518Y75611D01*
X76639Y75550D01*
X76704Y75546D01*
X76765Y75524D01*
X77171Y75466D01*
X77244Y75470D01*
X77315Y75456D01*
X77373D01*
X77520Y75485D01*
X77568Y75488D01*
X77591Y75499D01*
X77752Y75529D01*
X78042Y75645D01*
X78090Y75676D01*
X78145Y75693D01*
X78255Y75784D01*
X78375Y75862D01*
X78408Y75909D01*
X78452Y75946D01*
X78713Y76265D01*
X78749Y76333D01*
X78801Y76391D01*
X78842Y76507D01*
X78900Y76616D01*
X78907Y76693D01*
X78933Y76766D01*
X78991Y77172D01*
X78987Y77239D01*
X79001Y77304D01*
X78977Y77436D01*
X78970Y77569D01*
X78941Y77629D01*
X78929Y77695D01*
X78812Y77985D01*
X78789Y78021D01*
X78778Y78062D01*
X78720Y78178D01*
X78690Y78216D01*
X78673Y78262D01*
X78569Y78373D01*
X78476Y78492D01*
X78466Y78498D01*
X78424Y78527D01*
X78400Y78552D01*
X78197Y78697D01*
X78054Y78781D01*
X78081Y78916D01*
X78124Y79045D01*
X78182Y79509D01*
X78178Y79567D01*
X78190Y79623D01*
X78163Y79764D01*
X78153Y79906D01*
X78127Y79957D01*
X78117Y80014D01*
X78001Y80304D01*
X77969Y80352D01*
X77953Y80408D01*
X77862Y80518D01*
X77784Y80638D01*
X77736Y80670D01*
X77700Y80715D01*
X77381Y80976D01*
X77375Y80979D01*
X77376Y80983D01*
X77434Y81215D01*
X77443Y81395D01*
X77459Y81575D01*
X77430Y81836D01*
X77388Y81967D01*
X77363Y82102D01*
X77247Y82392D01*
X77209Y82450D01*
X77187Y82517D01*
X77101Y82616D01*
X77030Y82725D01*
X76972Y82765D01*
X76926Y82818D01*
X76665Y83021D01*
X76546Y83188D01*
X76556Y83615D01*
X76572Y83662D01*
X76588Y83789D01*
X76622Y83912D01*
X76612Y83984D01*
X76622Y84057D01*
X76588Y84180D01*
X76572Y84307D01*
X76526Y84443D01*
X76478Y84637D01*
X76445Y84706D01*
X76430Y84780D01*
X76361Y84884D01*
X76308Y84997D01*
X76252Y85048D01*
X76209Y85111D01*
X76064Y85256D01*
X75961Y85325D01*
X75868Y85409D01*
X75578Y85583D01*
X75437Y85634D01*
X75301Y85698D01*
X75069Y85756D01*
X74938Y85763D01*
X74809Y85786D01*
D02*
G37*
G36*
X47092Y85784D02*
X47006Y85760D01*
X46917Y85756D01*
X46685Y85698D01*
X46649Y85681D01*
X46610Y85676D01*
X46436Y85618D01*
X46373Y85582D01*
X46302Y85563D01*
X46186Y85505D01*
X46165Y85488D01*
X46138Y85479D01*
X46008Y85367D01*
X45872Y85261D01*
X45858Y85237D01*
X45838Y85219D01*
X45634Y84958D01*
X45601Y84892D01*
X45553Y84836D01*
X45513Y84716D01*
X45456Y84602D01*
X45451Y84529D01*
X45428Y84459D01*
X45370Y83995D01*
X45383Y83808D01*
X45392Y83621D01*
X45450Y83389D01*
X45483Y83320D01*
X45497Y83246D01*
X45567Y83142D01*
X45620Y83029D01*
X45676Y82978D01*
X45718Y82915D01*
X46037Y82596D01*
X46157Y82517D01*
X46266Y82424D01*
X46321Y82407D01*
X46368Y82376D01*
X46509Y82348D01*
X46646Y82304D01*
X47168Y82246D01*
X47218Y82250D01*
X47268Y82240D01*
X47415Y82267D01*
X47564Y82280D01*
X47609Y82304D01*
X47659Y82313D01*
X47949Y82429D01*
X48038Y82487D01*
X48137Y82528D01*
X48145Y82535D01*
X49051Y82547D01*
X49245Y82086D01*
X48080Y80921D01*
X46403Y80941D01*
X46360Y80976D01*
X46284Y81016D01*
X46219Y81073D01*
X46110Y81109D01*
X46009Y81163D01*
X45923Y81171D01*
X45841Y81198D01*
X45377Y81256D01*
X45191Y81243D01*
X45003Y81234D01*
X44772Y81176D01*
X44703Y81143D01*
X44629Y81128D01*
X44525Y81059D01*
X44412Y81006D01*
X44361Y80949D01*
X44298Y80907D01*
X43979Y80589D01*
X43899Y80469D01*
X43807Y80359D01*
X43790Y80305D01*
X43758Y80258D01*
X43730Y80117D01*
X43687Y79980D01*
X43628Y79458D01*
X43633Y79408D01*
X43622Y79358D01*
X43650Y79211D01*
X43663Y79062D01*
X43701Y78809D01*
X43541Y78702D01*
X43379Y78597D01*
X43375Y78592D01*
X43370Y78588D01*
X43109Y78327D01*
X43029Y78208D01*
X42937Y78098D01*
X42920Y78044D01*
X42888Y77996D01*
X42860Y77856D01*
X42817Y77719D01*
X42759Y77197D01*
X42774Y77017D01*
X42783Y76837D01*
X42841Y76605D01*
X42873Y76537D01*
X42888Y76462D01*
X42958Y76358D01*
X43011Y76245D01*
X43067Y76195D01*
X43109Y76131D01*
X43428Y75813D01*
X43511Y75757D01*
X43582Y75686D01*
X43675Y75648D01*
X43759Y75591D01*
X43857Y75572D01*
X43949Y75534D01*
X44239Y75476D01*
X44411Y75476D01*
X44530Y75469D01*
X44629Y75337D01*
X44754Y74985D01*
X43686Y73918D01*
X43635Y73960D01*
X43559Y74000D01*
X43493Y74057D01*
X43385Y74093D01*
X43284Y74147D01*
X43198Y74155D01*
X43116Y74182D01*
X42652Y74240D01*
X42594Y74236D01*
X42538Y74248D01*
X42398Y74222D01*
X42255Y74212D01*
X42204Y74186D01*
X42147Y74175D01*
X41857Y74059D01*
X41809Y74028D01*
X41754Y74011D01*
X41643Y73920D01*
X41524Y73842D01*
X41491Y73795D01*
X41447Y73758D01*
X41186Y73439D01*
X41149Y73371D01*
X41097Y73313D01*
X41056Y73197D01*
X40999Y73088D01*
X40991Y73011D01*
X40965Y72938D01*
X40907Y72532D01*
X40911Y72465D01*
X40897Y72400D01*
X40922Y72268D01*
X40929Y72135D01*
X40958Y72075D01*
X40970Y72009D01*
X41086Y71719D01*
X41109Y71683D01*
X41121Y71642D01*
X41179Y71526D01*
X41216Y71478D01*
X41175Y71222D01*
X41000Y70941D01*
X40887Y70913D01*
X40766Y70856D01*
X40639Y70815D01*
X40378Y70670D01*
X40297Y70601D01*
X40205Y70549D01*
X40147Y70474D01*
X40075Y70412D01*
X40026Y70318D01*
X40017Y70306D01*
X39978Y70268D01*
X39914Y70171D01*
X39834Y70086D01*
X39804Y70007D01*
X39757Y69937D01*
X39734Y69823D01*
X39693Y69714D01*
X39635Y69366D01*
X39636Y69357D01*
X39633Y69349D01*
X39642Y69159D01*
X39648Y68969D01*
X39652Y68960D01*
X39652Y68951D01*
X39693Y68788D01*
X39657Y68771D01*
X39575Y68681D01*
X39481Y68605D01*
X39191Y68257D01*
X39182Y68241D01*
X39168Y68229D01*
X39087Y68067D01*
X39001Y67908D01*
X38999Y67889D01*
X38991Y67873D01*
X38904Y67554D01*
X38898Y67476D01*
X38874Y67402D01*
X38884Y67279D01*
X38876Y67157D01*
X38901Y67083D01*
X38907Y67005D01*
X38952Y66849D01*
X38902Y66816D01*
X38740Y66710D01*
X38737Y66705D01*
X38732Y66702D01*
X38645Y66615D01*
X38554Y66479D01*
X38509Y66421D01*
X38500Y66412D01*
X38486Y66392D01*
X38454Y66350D01*
X38453Y66349D01*
X38414Y66315D01*
X38354Y66194D01*
X38279Y66081D01*
X38266Y66017D01*
X38237Y65959D01*
X38150Y65640D01*
X38144Y65562D01*
X38121Y65488D01*
X38131Y65366D01*
X38122Y65243D01*
X38147Y65169D01*
X38153Y65092D01*
X38269Y64686D01*
X38296Y64634D01*
X38307Y64576D01*
X38386Y64458D01*
X38451Y64332D01*
X38496Y64294D01*
X38499Y64290D01*
X38435Y64009D01*
X38431Y63998D01*
X38296Y63771D01*
X38104Y63723D01*
X37983Y63666D01*
X37856Y63625D01*
X37595Y63480D01*
X37514Y63411D01*
X37422Y63359D01*
X37364Y63284D01*
X37291Y63223D01*
X37243Y63128D01*
X37233Y63116D01*
X37195Y63078D01*
X37130Y62981D01*
X37051Y62897D01*
X37021Y62817D01*
X36974Y62747D01*
X36951Y62633D01*
X36910Y62524D01*
X36852Y62177D01*
X36852Y62168D01*
X36849Y62159D01*
X36859Y61969D01*
X36865Y61779D01*
X36825Y61313D01*
X36705Y61214D01*
X36577Y61127D01*
X36553Y61089D01*
X36518Y61060D01*
X36257Y60741D01*
X36226Y60683D01*
X36181Y60635D01*
X36133Y60509D01*
X36070Y60390D01*
X36064Y60325D01*
X36040Y60263D01*
X35982Y59915D01*
X35985Y59837D01*
X35969Y59760D01*
X35991Y59640D01*
X35995Y59518D01*
X36027Y59446D01*
X36042Y59369D01*
X36132Y59143D01*
X36138Y59112D01*
X36133Y58994D01*
X36082Y58820D01*
X35947Y58598D01*
X35902Y58555D01*
X35887Y58544D01*
X35827Y58520D01*
X35822Y58517D01*
X35815Y58515D01*
X35655Y58408D01*
X35493Y58303D01*
X35490Y58298D01*
X35484Y58294D01*
X35311Y58120D01*
X35303Y58109D01*
X35292Y58102D01*
X35193Y57944D01*
X35089Y57789D01*
X35087Y57776D01*
X35080Y57765D01*
X34935Y57388D01*
X34925Y57329D01*
X34899Y57275D01*
X34891Y57135D01*
X34867Y56996D01*
X34881Y56938D01*
X34877Y56878D01*
X34935Y56472D01*
X34978Y56352D01*
X34980Y56338D01*
X35002Y56226D01*
X34868Y55887D01*
X34722Y55733D01*
X34700Y55725D01*
X34605Y55640D01*
X34499Y55569D01*
X34180Y55250D01*
X34100Y55131D01*
X34008Y55021D01*
X33990Y54967D01*
X33959Y54919D01*
X33931Y54779D01*
X33887Y54642D01*
X33830Y54120D01*
X33834Y54069D01*
X33823Y54020D01*
X33851Y53873D01*
X33863Y53724D01*
X33887Y53679D01*
X33896Y53629D01*
X34012Y53339D01*
X34044Y53290D01*
X34060Y53236D01*
X34151Y53125D01*
X34198Y53053D01*
X34197Y53010D01*
X34177Y52873D01*
X34171Y52855D01*
X34093Y52655D01*
X34000Y52538D01*
X33990Y52536D01*
X33848Y52526D01*
X33796Y52500D01*
X33739Y52490D01*
X33450Y52374D01*
X33401Y52342D01*
X33346Y52326D01*
X33236Y52235D01*
X33116Y52157D01*
X33084Y52109D01*
X33039Y52073D01*
X32778Y51754D01*
X32742Y51685D01*
X32690Y51628D01*
X32649Y51512D01*
X32591Y51403D01*
X32584Y51326D01*
X32558Y51252D01*
X32500Y50846D01*
X32504Y50780D01*
X32490Y50715D01*
X32514Y50583D01*
X32522Y50449D01*
X32550Y50389D01*
X32563Y50324D01*
X32679Y50034D01*
X32682Y50029D01*
X32683Y50022D01*
X32757Y49911D01*
X32759Y49821D01*
X32730Y49697D01*
X32703Y49626D01*
X32593Y49409D01*
X32541Y49362D01*
X32522Y49359D01*
X32232Y49243D01*
X32227Y49239D01*
X32220Y49238D01*
X32060Y49131D01*
X31898Y49026D01*
X31895Y49020D01*
X31890Y49017D01*
X31803Y48930D01*
X31756Y48860D01*
X31694Y48802D01*
X31549Y48599D01*
X31475Y48435D01*
X31395Y48274D01*
X31308Y47956D01*
X31302Y47878D01*
X31279Y47804D01*
X31289Y47681D01*
X31280Y47559D01*
X31305Y47485D01*
X31311Y47407D01*
X31334Y47326D01*
X31293Y46861D01*
X31132Y46754D01*
X30971Y46648D01*
X30967Y46643D01*
X30962Y46640D01*
X30875Y46553D01*
X30806Y46449D01*
X30722Y46356D01*
X30548Y46066D01*
X30510Y45961D01*
X30455Y45864D01*
X30397Y45690D01*
X30386Y45602D01*
X30355Y45518D01*
X30361Y45406D01*
X30347Y45296D01*
X30370Y45210D01*
X30375Y45121D01*
X30491Y44657D01*
X30523Y44588D01*
X30538Y44514D01*
X30607Y44410D01*
X30661Y44297D01*
X30717Y44246D01*
X30759Y44183D01*
X30904Y44038D01*
X31008Y43969D01*
X31100Y43885D01*
X31390Y43711D01*
X31532Y43660D01*
X31668Y43596D01*
X31899Y43538D01*
X32030Y43532D01*
X32159Y43508D01*
X32227Y43522D01*
X32297Y43519D01*
X32420Y43563D01*
X32548Y43590D01*
X32954Y43764D01*
X32979Y43781D01*
X33009Y43789D01*
X33093Y43831D01*
X35001Y43856D01*
X35189Y43896D01*
X35378Y43933D01*
X35383Y43937D01*
X35390Y43938D01*
X35549Y44047D01*
X35709Y44154D01*
X37739Y46184D01*
X39570Y46225D01*
X39798Y46088D01*
X39939Y46038D01*
X40075Y45973D01*
X40307Y45915D01*
X40438Y45909D01*
X40567Y45885D01*
X40635Y45899D01*
X40704Y45896D01*
X40828Y45940D01*
X40956Y45967D01*
X41362Y46141D01*
X41387Y46158D01*
X41416Y46167D01*
X41532Y46224D01*
X41846Y46468D01*
X41918Y46595D01*
X41942Y46618D01*
X41997Y46701D01*
X42068Y46772D01*
X42107Y46865D01*
X42163Y46949D01*
X42182Y47047D01*
X42221Y47139D01*
X42279Y47429D01*
X42279Y47602D01*
X42288Y47774D01*
X42230Y48179D01*
X42188Y48300D01*
X42163Y48425D01*
X42122Y48486D01*
X42098Y48555D01*
X42013Y48650D01*
X41942Y48756D01*
X41623Y49075D01*
X41504Y49155D01*
X41394Y49247D01*
X41340Y49264D01*
X41292Y49296D01*
X41151Y49324D01*
X41015Y49367D01*
X40493Y49425D01*
X40442Y49421D01*
X40393Y49431D01*
X40245Y49404D01*
X40096Y49391D01*
X40051Y49368D01*
X40001Y49359D01*
X39712Y49243D01*
X39706Y49239D01*
X39700Y49238D01*
X39638Y49196D01*
X36857Y49169D01*
X36700Y49645D01*
X36700Y49668D01*
X37727Y50695D01*
X41202Y50671D01*
X41242Y50638D01*
X41311Y50602D01*
X41368Y50550D01*
X41484Y50509D01*
X41593Y50451D01*
X41670Y50444D01*
X41743Y50418D01*
X42149Y50360D01*
X42216Y50363D01*
X42281Y50350D01*
X42413Y50374D01*
X42547Y50381D01*
X42607Y50410D01*
X42672Y50423D01*
X42962Y50538D01*
X43010Y50570D01*
X43066Y50587D01*
X43176Y50678D01*
X43296Y50755D01*
X43328Y50803D01*
X43373Y50839D01*
X43634Y51158D01*
X43674Y51235D01*
X43731Y51300D01*
X43767Y51408D01*
X43821Y51509D01*
X43829Y51595D01*
X43856Y51678D01*
X43914Y52141D01*
X43910Y52199D01*
X43922Y52255D01*
X43896Y52396D01*
X43885Y52538D01*
X43860Y52590D01*
X43849Y52646D01*
X43733Y52936D01*
X43702Y52985D01*
X43685Y53040D01*
X43594Y53150D01*
X43516Y53270D01*
X43469Y53302D01*
X43432Y53347D01*
X43113Y53608D01*
X43055Y53639D01*
X43007Y53684D01*
X42881Y53731D01*
X42762Y53795D01*
X42697Y53801D01*
X42635Y53824D01*
X42287Y53882D01*
X42209Y53880D01*
X42132Y53896D01*
X42012Y53874D01*
X41890Y53870D01*
X41818Y53838D01*
X41741Y53823D01*
X41497Y53725D01*
X41382Y53703D01*
X41255Y53618D01*
X39875Y54997D01*
X40083Y55497D01*
X43000Y55483D01*
X43040Y55450D01*
X43083Y55427D01*
X43118Y55392D01*
X43257Y55335D01*
X43391Y55264D01*
X43440Y55259D01*
X43485Y55240D01*
X43775Y55182D01*
X43882Y55182D01*
X43988Y55162D01*
X44079Y55182D01*
X44173Y55181D01*
X44272Y55222D01*
X44377Y55244D01*
X44783Y55418D01*
X44820Y55444D01*
X44863Y55457D01*
X44983Y55556D01*
X45111Y55643D01*
X45135Y55681D01*
X45170Y55710D01*
X45431Y56029D01*
X45454Y56072D01*
X45489Y56107D01*
X45547Y56247D01*
X45618Y56380D01*
X45623Y56429D01*
X45642Y56475D01*
X45700Y56765D01*
X45700Y56807D01*
X45713Y56848D01*
X45700Y57005D01*
X45700Y57162D01*
X45684Y57202D01*
X45680Y57245D01*
X45564Y57650D01*
X45514Y57748D01*
X45482Y57852D01*
X45424Y57923D01*
X45382Y58004D01*
X45299Y58075D01*
X45230Y58159D01*
X44911Y58420D01*
X44834Y58461D01*
X44769Y58518D01*
X44660Y58554D01*
X44559Y58607D01*
X44473Y58616D01*
X44392Y58643D01*
X43928Y58701D01*
X43870Y58697D01*
X43814Y58709D01*
X43673Y58683D01*
X43531Y58672D01*
X43479Y58647D01*
X43422Y58636D01*
X43133Y58520D01*
X43127Y58517D01*
X43121Y58515D01*
X42964Y58410D01*
X42010Y58388D01*
X41798Y58883D01*
X43481Y60566D01*
X44791Y60601D01*
X44875Y60545D01*
X44979Y60456D01*
X45039Y60436D01*
X45092Y60400D01*
X45226Y60374D01*
X45356Y60330D01*
X45820Y60272D01*
X45878Y60277D01*
X45934Y60265D01*
X46074Y60291D01*
X46217Y60301D01*
X46268Y60327D01*
X46325Y60338D01*
X46615Y60453D01*
X46663Y60485D01*
X46718Y60502D01*
X46829Y60593D01*
X46949Y60670D01*
X46981Y60718D01*
X47025Y60754D01*
X47286Y61073D01*
X47327Y61150D01*
X47384Y61215D01*
X47420Y61323D01*
X47473Y61424D01*
X47482Y61510D01*
X47509Y61593D01*
X47567Y62056D01*
X47563Y62114D01*
X47575Y62170D01*
X47549Y62311D01*
X47538Y62453D01*
X47513Y62505D01*
X47502Y62562D01*
X47386Y62851D01*
X47355Y62900D01*
X47338Y62955D01*
X47247Y63065D01*
X47226Y63098D01*
X47309Y63465D01*
X47374Y63594D01*
X47409Y63635D01*
X47448Y63641D01*
X47610Y63703D01*
X47775Y63756D01*
X48036Y63901D01*
X48117Y63969D01*
X48209Y64022D01*
X48267Y64097D01*
X48340Y64158D01*
X48388Y64252D01*
X48397Y64265D01*
X48436Y64303D01*
X48491Y64386D01*
X48562Y64457D01*
X48601Y64550D01*
X48657Y64634D01*
X48676Y64732D01*
X48715Y64824D01*
X48773Y65114D01*
X48773Y65286D01*
X48782Y65458D01*
X48729Y65828D01*
X48890Y65953D01*
X49036Y66066D01*
X49036Y66066D01*
X49036Y66066D01*
X49108Y66193D01*
X49132Y66216D01*
X49211Y66336D01*
X49304Y66446D01*
X49321Y66500D01*
X49353Y66547D01*
X49381Y66688D01*
X49424Y66825D01*
X49482Y67347D01*
X49478Y67397D01*
X49488Y67447D01*
X49461Y67594D01*
X49448Y67743D01*
X49437Y67763D01*
X49509Y67811D01*
X49799Y68101D01*
X49806Y68112D01*
X49817Y68120D01*
X49916Y68277D01*
X50020Y68432D01*
X50022Y68445D01*
X50029Y68456D01*
X50174Y68833D01*
X50196Y68960D01*
X50235Y69082D01*
X50230Y69154D01*
X50242Y69225D01*
X50213Y69350D01*
X50203Y69479D01*
X50087Y69885D01*
X50060Y69937D01*
X50049Y69995D01*
X49970Y70113D01*
X49905Y70239D01*
X49900Y70362D01*
X49911Y70468D01*
X49911Y70470D01*
X50087Y70773D01*
X50094Y70774D01*
X50384Y70890D01*
X50420Y70914D01*
X50461Y70925D01*
X50577Y70983D01*
X50599Y71000D01*
X50625Y71009D01*
X50755Y71121D01*
X50892Y71227D01*
X50905Y71251D01*
X50926Y71269D01*
X51129Y71530D01*
X51162Y71596D01*
X51210Y71652D01*
X51250Y71772D01*
X51307Y71886D01*
X51313Y71959D01*
X51336Y72029D01*
X51394Y72493D01*
X51380Y72680D01*
X51371Y72867D01*
X51313Y73099D01*
X51415Y73316D01*
X51525Y73407D01*
X51645Y73484D01*
X52128Y73427D01*
X52201Y73367D01*
X52277Y73326D01*
X52342Y73270D01*
X52451Y73234D01*
X52552Y73180D01*
X52638Y73172D01*
X52720Y73145D01*
X53184Y73087D01*
X53299Y73095D01*
X53413Y73084D01*
X53495Y73109D01*
X53581Y73115D01*
X53684Y73167D01*
X53794Y73201D01*
X54169Y73403D01*
X55676Y73421D01*
X57721Y71377D01*
X57875Y71274D01*
X58015Y71175D01*
X58021Y71140D01*
X57742Y70672D01*
X56216Y70657D01*
X56138Y70709D01*
X56053Y70789D01*
X55974Y70819D01*
X55904Y70865D01*
X55790Y70888D01*
X55681Y70929D01*
X55333Y70987D01*
X55324Y70987D01*
X55316Y70990D01*
X55126Y70981D01*
X54936Y70975D01*
X54927Y70971D01*
X54918Y70971D01*
X54686Y70913D01*
X54566Y70856D01*
X54439Y70815D01*
X54178Y70670D01*
X54097Y70601D01*
X54005Y70549D01*
X53947Y70474D01*
X53874Y70412D01*
X53826Y70318D01*
X53816Y70306D01*
X53778Y70268D01*
X53707Y70161D01*
X53622Y70066D01*
X53597Y69997D01*
X53557Y69937D01*
X53532Y69811D01*
X53490Y69691D01*
X53432Y69285D01*
X53435Y69218D01*
X53421Y69153D01*
X53446Y69021D01*
X53453Y68888D01*
X53482Y68828D01*
X53494Y68762D01*
X53610Y68472D01*
X53634Y68436D01*
X53645Y68395D01*
X53703Y68279D01*
X53733Y68241D01*
X53750Y68195D01*
X53854Y68085D01*
X53947Y67965D01*
X53989Y67941D01*
X54022Y67905D01*
X54225Y67760D01*
X54337Y67710D01*
X54439Y67643D01*
X54729Y67527D01*
X54919Y67492D01*
X55108Y67454D01*
X55340D01*
X55391Y67465D01*
X55443Y67460D01*
X55584Y67503D01*
X55730Y67532D01*
X55773Y67561D01*
X55823Y67576D01*
X56193Y67775D01*
X61361Y67800D01*
X61458Y67735D01*
X61562Y67646D01*
X61622Y67625D01*
X61676Y67590D01*
X61809Y67563D01*
X61939Y67520D01*
X62403Y67462D01*
X62461Y67466D01*
X62517Y67454D01*
X62657Y67481D01*
X62800Y67491D01*
X62851Y67517D01*
X62908Y67527D01*
X63198Y67643D01*
X63246Y67675D01*
X63301Y67691D01*
X63412Y67782D01*
X63532Y67860D01*
X63564Y67908D01*
X63608Y67944D01*
X63869Y68263D01*
X63910Y68340D01*
X63967Y68405D01*
X64003Y68513D01*
X64056Y68614D01*
X64065Y68700D01*
X64092Y68782D01*
X64150Y69246D01*
X64146Y69304D01*
X64158Y69360D01*
X64132Y69501D01*
X64121Y69643D01*
X64095Y69695D01*
X64085Y69751D01*
X63969Y70041D01*
X63938Y70090D01*
X63921Y70145D01*
X63830Y70255D01*
X63752Y70375D01*
X63705Y70407D01*
X63668Y70452D01*
X63349Y70713D01*
X63327Y70724D01*
X63310Y70743D01*
X63152Y70818D01*
X62998Y70900D01*
X62973Y70902D01*
X62951Y70913D01*
X62787Y70954D01*
X62664Y71158D01*
X62570Y71478D01*
X62609Y71530D01*
X62626Y71563D01*
X62652Y71588D01*
X62714Y71739D01*
X62788Y71886D01*
X62790Y71922D01*
X62805Y71956D01*
X62862Y72246D01*
X62863Y72418D01*
X62872Y72590D01*
X62814Y72996D01*
X62772Y73116D01*
X62747Y73242D01*
X62706Y73302D01*
X62682Y73371D01*
X62597Y73466D01*
X62526Y73573D01*
X62207Y73892D01*
X62093Y73967D01*
X61990Y74057D01*
X61929Y74077D01*
X61876Y74112D01*
X61742Y74139D01*
X61612Y74182D01*
X61148Y74240D01*
X61091Y74236D01*
X61034Y74248D01*
X60894Y74222D01*
X60752Y74212D01*
X60700Y74186D01*
X60643Y74175D01*
X60353Y74059D01*
X60317Y74036D01*
X60276Y74024D01*
X60160Y73966D01*
X60132Y73944D01*
X59227Y73914D01*
X58073Y75068D01*
X58054Y75170D01*
X58088Y75390D01*
X58224Y75624D01*
X58455Y75650D01*
X58460Y75648D01*
X58544Y75591D01*
X58642Y75572D01*
X58735Y75534D01*
X59025Y75476D01*
X59197Y75476D01*
X59369Y75466D01*
X59775Y75524D01*
X59895Y75567D01*
X60021Y75591D01*
X60081Y75632D01*
X60150Y75656D01*
X60245Y75741D01*
X60351Y75813D01*
X60670Y76131D01*
X60750Y76251D01*
X60842Y76361D01*
X60860Y76415D01*
X60891Y76462D01*
X60919Y76603D01*
X60963Y76740D01*
X61021Y77262D01*
X61016Y77312D01*
X61027Y77362D01*
X60999Y77509D01*
X60987Y77658D01*
X60963Y77703D01*
X60954Y77753D01*
X60838Y78043D01*
X60807Y78091D01*
X60790Y78146D01*
X60699Y78256D01*
X60621Y78376D01*
X60574Y78409D01*
X60537Y78453D01*
X60218Y78714D01*
X60150Y78751D01*
X60092Y78802D01*
X59976Y78843D01*
X59867Y78901D01*
X59790Y78909D01*
X59716Y78934D01*
X59311Y78992D01*
X59244Y78989D01*
X59179Y79003D01*
X59047Y78978D01*
X58913Y78971D01*
X58853Y78942D01*
X58788Y78930D01*
X58498Y78814D01*
X58493Y78810D01*
X58486Y78809D01*
X58326Y78702D01*
X58316Y78695D01*
X57887Y78675D01*
X57269Y79294D01*
X57498Y79771D01*
X57662Y79753D01*
X57736Y79759D01*
X57810Y79747D01*
X57933Y79776D01*
X58059Y79787D01*
X58125Y79821D01*
X58197Y79838D01*
X58516Y79983D01*
X58592Y80038D01*
X58679Y80076D01*
X58753Y80153D01*
X58839Y80215D01*
X58889Y80295D01*
X58954Y80364D01*
X59157Y80683D01*
X59216Y80835D01*
X59286Y80983D01*
X59344Y81215D01*
X59353Y81411D01*
X59364Y81606D01*
X59335Y81809D01*
X59304Y81896D01*
X59293Y81987D01*
X59235Y82161D01*
X59199Y82225D01*
X59180Y82295D01*
X59122Y82411D01*
X59022Y82540D01*
X58931Y82676D01*
X58844Y82763D01*
X58740Y82832D01*
X58647Y82916D01*
X58358Y83090D01*
X58252Y83128D01*
X58155Y83183D01*
X57981Y83241D01*
X57893Y83252D01*
X57809Y83282D01*
X57697Y83277D01*
X57587Y83291D01*
X57501Y83267D01*
X57412Y83263D01*
X57180Y83205D01*
X57096Y83165D01*
X57005Y83144D01*
X56686Y82999D01*
X56643Y82968D01*
X55581Y82952D01*
X53451Y85082D01*
X53291Y85189D01*
X53132Y85299D01*
X53126Y85300D01*
X53121Y85303D01*
X52931Y85341D01*
X52742Y85381D01*
X48111Y85435D01*
X47863Y85583D01*
X47758Y85621D01*
X47660Y85676D01*
X47486Y85734D01*
X47398Y85745D01*
X47314Y85776D01*
X47203Y85770D01*
X47092Y85784D01*
D02*
G37*
G36*
X97942D02*
X97856Y85760D01*
X97768Y85756D01*
X97536Y85698D01*
X97500Y85681D01*
X97460Y85676D01*
X97286Y85618D01*
X97223Y85582D01*
X97153Y85563D01*
X97037Y85505D01*
X97015Y85488D01*
X96989Y85479D01*
X96859Y85367D01*
X96723Y85261D01*
X96709Y85237D01*
X96688Y85219D01*
X96485Y84958D01*
X96452Y84892D01*
X96404Y84836D01*
X96364Y84716D01*
X96307Y84602D01*
X96302Y84529D01*
X96278Y84459D01*
X96220Y83995D01*
X96224Y83937D01*
X96213Y83881D01*
X96239Y83740D01*
X96249Y83598D01*
X96269Y83409D01*
X96199Y83056D01*
X96159Y83023D01*
X96012Y82916D01*
X95994Y82904D01*
X95969Y82888D01*
X95937Y82840D01*
X95892Y82803D01*
X95631Y82485D01*
X95619Y82463D01*
X95601Y82446D01*
X95526Y82288D01*
X95444Y82133D01*
X95442Y82109D01*
X95431Y82086D01*
X95373Y81854D01*
X95363Y81658D01*
X95353Y81463D01*
X95411Y81057D01*
X95453Y80936D01*
X95478Y80811D01*
X95519Y80750D01*
X95543Y80682D01*
X95628Y80586D01*
X95699Y80480D01*
X95902Y80277D01*
X96015Y80202D01*
X96117Y80113D01*
X96523Y79881D01*
X96702Y79821D01*
X96879Y79758D01*
X96890Y79758D01*
X96900Y79755D01*
X97088Y79768D01*
X97276Y79777D01*
X97740Y79893D01*
X97809Y79925D01*
X97883Y79940D01*
X97987Y80010D01*
X98051Y80040D01*
X103749Y80091D01*
X103984Y79950D01*
X104089Y79912D01*
X104186Y79857D01*
X104360Y79799D01*
X104487Y79783D01*
X104610Y79749D01*
X104683Y79758D01*
X104755Y79749D01*
X104878Y79783D01*
X105005Y79799D01*
X105142Y79845D01*
X105336Y79893D01*
X105446Y79945D01*
X105562Y79979D01*
X105624Y80029D01*
X105696Y80063D01*
X105777Y80153D01*
X105872Y80230D01*
X106162Y80577D01*
X106171Y80594D01*
X106185Y80606D01*
X106265Y80768D01*
X106352Y80927D01*
X106354Y80945D01*
X106362Y80962D01*
X106449Y81281D01*
X106455Y81358D01*
X106478Y81433D01*
X106468Y81555D01*
X106477Y81678D01*
X106452Y81752D01*
X106446Y81829D01*
X106330Y82235D01*
X106280Y82332D01*
X106248Y82437D01*
X106190Y82507D01*
X106148Y82589D01*
X106065Y82660D01*
X105995Y82744D01*
X105676Y83005D01*
X105600Y83046D01*
X105535Y83102D01*
X105426Y83138D01*
X105325Y83192D01*
X105239Y83200D01*
X105157Y83227D01*
X104693Y83285D01*
X104507Y83272D01*
X104320Y83263D01*
X104087Y83205D01*
X104019Y83173D01*
X103945Y83158D01*
X103841Y83088D01*
X103728Y83035D01*
X103686Y82989D01*
X102886Y82961D01*
X100765Y85082D01*
X100616Y85182D01*
X100472Y85287D01*
X100452Y85292D01*
X100434Y85303D01*
X100259Y85338D01*
X100085Y85380D01*
X98979Y85424D01*
X98713Y85583D01*
X98608Y85621D01*
X98511Y85676D01*
X98337Y85734D01*
X98249Y85745D01*
X98165Y85776D01*
X98053Y85770D01*
X97942Y85784D01*
D02*
G37*
G36*
X91869Y35168D02*
X91173D01*
X91050Y35144D01*
X90926Y35138D01*
X90745Y35092D01*
X90391Y35042D01*
X90315Y35015D01*
X90235Y35007D01*
X89481Y34775D01*
X89427Y34746D01*
X89367Y34732D01*
X88845Y34500D01*
X88774Y34450D01*
X88694Y34417D01*
X88399Y34220D01*
X88340Y34191D01*
X88210Y34090D01*
X88075Y34000D01*
X88036Y33961D01*
X87979Y33916D01*
X87843Y33826D01*
X87321Y33304D01*
X87295Y33265D01*
X87258Y33236D01*
X86969Y32888D01*
X86945Y32845D01*
X86910Y32811D01*
X86861Y32739D01*
X86362Y32895D01*
X86365Y33942D01*
X86365Y33944D01*
X86365Y33945D01*
X86327Y34137D01*
X86289Y34333D01*
X86288Y34334D01*
X86288Y34336D01*
X86178Y34500D01*
X86069Y34664D01*
X86067Y34665D01*
X86067Y34666D01*
X85980Y34753D01*
X85974Y34757D01*
X85970Y34762D01*
X85809Y34867D01*
X85649Y34974D01*
X85642Y34976D01*
X85637Y34979D01*
X85448Y35014D01*
X85259Y35052D01*
X85252Y35051D01*
X85246Y35052D01*
X82955Y35023D01*
X82770Y34984D01*
X82585Y34948D01*
X82576Y34942D01*
X82566Y34940D01*
X82410Y34833D01*
X82252Y34729D01*
X82247Y34721D01*
X82238Y34715D01*
X82135Y34556D01*
X82098Y34502D01*
X82090Y34495D01*
X82074Y34481D01*
X81805Y34375D01*
X81757Y34366D01*
X81507Y34351D01*
X81453Y34394D01*
X80989Y34625D01*
X80941Y34639D01*
X80899Y34665D01*
X80528Y34808D01*
X80245Y34921D01*
X80137Y34941D01*
X80034Y34980D01*
X79765Y35025D01*
X79667Y35058D01*
X79528Y35075D01*
X79393Y35109D01*
X78175Y35167D01*
X78101Y35156D01*
X78025Y35163D01*
X77446Y35105D01*
X77374Y35083D01*
X77300Y35080D01*
X77068Y35021D01*
X77052Y35014D01*
X77035Y35013D01*
X76629Y34897D01*
X76582Y34873D01*
X76530Y34863D01*
X76241Y34747D01*
X76152Y34689D01*
X76054Y34649D01*
X75759Y34452D01*
X75699Y34422D01*
X75570Y34322D01*
X75434Y34231D01*
X75280Y34077D01*
X75204Y34018D01*
X75137Y34016D01*
X74685Y34181D01*
X74673Y34191D01*
X74673Y34192D01*
X74638Y34382D01*
X74634Y34387D01*
X74633Y34394D01*
X74526Y34554D01*
X74421Y34715D01*
X74416Y34719D01*
X74412Y34724D01*
X74252Y34831D01*
X74093Y34940D01*
X74087Y34942D01*
X74081Y34945D01*
X73892Y34983D01*
X73704Y35023D01*
X71355Y35052D01*
X71351Y35051D01*
X71346Y35052D01*
X71156Y35015D01*
X70964Y34979D01*
X70960Y34977D01*
X70955Y34975D01*
X70825Y34889D01*
X70790Y34906D01*
X70678Y34979D01*
X70613Y34991D01*
X70552Y35020D01*
X70419Y35027D01*
X70287Y35052D01*
X67823Y35023D01*
X67640Y34984D01*
X67456Y34950D01*
X67446Y34943D01*
X67434Y34941D01*
X67279Y34835D01*
X67123Y34733D01*
X67116Y34723D01*
X67106Y34716D01*
X67003Y34559D01*
X66898Y34405D01*
X66811Y34202D01*
X66803Y34164D01*
X66783Y34130D01*
X65662Y30845D01*
X65162Y30844D01*
X64247Y33495D01*
X64244Y33500D01*
X64243Y33506D01*
X63954Y34317D01*
X63946Y34329D01*
X63944Y34343D01*
X63845Y34499D01*
X63749Y34659D01*
X63738Y34667D01*
X63731Y34678D01*
X63579Y34785D01*
X63430Y34896D01*
X63416Y34899D01*
X63405Y34907D01*
X63224Y34947D01*
X63044Y34993D01*
X63030Y34991D01*
X63017Y34994D01*
X60524Y35052D01*
X60512Y35050D01*
X60500Y35052D01*
X60316Y35015D01*
X60132Y34983D01*
X60122Y34977D01*
X60110Y34974D01*
X59954Y34870D01*
X59796Y34770D01*
X59789Y34760D01*
X59779Y34753D01*
X59692Y34666D01*
X59601Y34530D01*
X59501Y34401D01*
X59491Y34366D01*
X59471Y34336D01*
X59461Y34286D01*
X59374Y34193D01*
X59328Y34159D01*
X59299Y34144D01*
X58944Y34066D01*
X58909Y34072D01*
X58898Y34080D01*
X58787Y34173D01*
X57888Y34666D01*
X57815Y34688D01*
X57750Y34728D01*
X57200Y34931D01*
X57145Y34940D01*
X57095Y34964D01*
X56901Y35012D01*
X56764Y35058D01*
X56624Y35075D01*
X56488Y35109D01*
X55212Y35167D01*
X55150Y35157D01*
X55088Y35165D01*
X54334Y35107D01*
X54251Y35084D01*
X54165Y35080D01*
X53469Y34906D01*
X53378Y34862D01*
X53280Y34838D01*
X52178Y34316D01*
X52169Y34310D01*
X52158Y34306D01*
X52043Y34249D01*
X51913Y34148D01*
X51777Y34058D01*
X51739Y34019D01*
X51682Y33974D01*
X51546Y33884D01*
X51373Y33711D01*
X51239Y33615D01*
X51206Y33580D01*
X51164Y33556D01*
X51071Y33436D01*
X50967Y33325D01*
X50954Y33292D01*
X50908Y33246D01*
X50879Y33203D01*
X50840Y33171D01*
X50579Y32852D01*
X50563Y32822D01*
X50538Y32799D01*
X50433Y32651D01*
X50256Y32653D01*
X49957Y32777D01*
X49931Y32793D01*
X49923Y33465D01*
X49893Y33607D01*
X49878Y33752D01*
X49852Y33801D01*
X49841Y33854D01*
X49758Y33974D01*
X49689Y34102D01*
X49647Y34137D01*
X49616Y34182D01*
X49494Y34262D01*
X49381Y34354D01*
X48888Y34615D01*
X48820Y34635D01*
X48759Y34672D01*
X48121Y34904D01*
X48059Y34913D01*
X48002Y34939D01*
X47673Y35015D01*
X47545Y35058D01*
X47400Y35076D01*
X47257Y35109D01*
X45576Y35167D01*
X45487Y35153D01*
X45396Y35158D01*
X44585Y35042D01*
X44519Y35019D01*
X44449Y35013D01*
X44059Y34901D01*
X43844Y34848D01*
X43757Y34807D01*
X43664Y34784D01*
X42910Y34436D01*
X42832Y34380D01*
X42745Y34340D01*
X42404Y34097D01*
X42360Y34075D01*
X42230Y33974D01*
X42094Y33884D01*
X41544Y33333D01*
X41508Y33280D01*
X41460Y33238D01*
X41054Y32716D01*
X41017Y32642D01*
X40964Y32578D01*
X40616Y31940D01*
X40601Y31894D01*
X40574Y31854D01*
X40400Y31448D01*
X40385Y31378D01*
X40353Y31315D01*
X40266Y30996D01*
X40266Y30985D01*
X40261Y30975D01*
X40203Y30743D01*
X40201Y30702D01*
X40186Y30663D01*
X40128Y30315D01*
X40129Y30280D01*
X40119Y30246D01*
X40032Y29347D01*
X40042Y29247D01*
X40033Y29147D01*
X40137Y28105D01*
X39879Y27691D01*
X39773Y27609D01*
X37975Y27628D01*
X37950Y33949D01*
X37911Y34142D01*
X37872Y34336D01*
X37871Y34337D01*
X37871Y34339D01*
X37761Y34502D01*
X37651Y34666D01*
X37564Y34753D01*
X37559Y34757D01*
X37555Y34762D01*
X37394Y34867D01*
X37233Y34974D01*
X37227Y34976D01*
X37222Y34979D01*
X37032Y35014D01*
X36843Y35052D01*
X36837Y35051D01*
X36830Y35052D01*
X34540Y35023D01*
X34355Y34984D01*
X34169Y34948D01*
X34160Y34942D01*
X34151Y34940D01*
X33994Y34833D01*
X33836Y34729D01*
X33831Y34721D01*
X33823Y34715D01*
X33720Y34556D01*
X33613Y34399D01*
X33611Y34390D01*
X33606Y34382D01*
X33571Y34195D01*
X33533Y34010D01*
X33502Y28880D01*
X33001Y28785D01*
X32750Y29414D01*
X32579Y29868D01*
X32574Y29877D01*
X32572Y29888D01*
X32344Y30458D01*
X32174Y30911D01*
X32168Y30921D01*
X32166Y30932D01*
X31938Y31501D01*
X31768Y31955D01*
X31762Y31965D01*
X31760Y31976D01*
X31532Y32545D01*
X31362Y32999D01*
X31356Y33008D01*
X31354Y33020D01*
X31126Y33589D01*
X30956Y34043D01*
X30950Y34052D01*
X30948Y34063D01*
X30832Y34353D01*
X30726Y34516D01*
X30621Y34680D01*
X30618Y34683D01*
X30615Y34686D01*
X30455Y34796D01*
X30296Y34908D01*
X30291Y34909D01*
X30287Y34912D01*
X30097Y34952D01*
X29907Y34994D01*
X27182Y35052D01*
X27011Y35021D01*
X26838Y35000D01*
X26664Y34942D01*
X26617Y34915D01*
X26564Y34903D01*
X26445Y34817D01*
X26318Y34745D01*
X26285Y34702D01*
X26241Y34670D01*
X26164Y34546D01*
X26074Y34430D01*
X26060Y34378D01*
X26032Y34332D01*
X25861Y33879D01*
X25634Y33309D01*
X25632Y33298D01*
X25626Y33289D01*
X25455Y32835D01*
X25112Y31976D01*
X25110Y31965D01*
X25104Y31955D01*
X24934Y31501D01*
X24706Y30932D01*
X24704Y30921D01*
X24698Y30911D01*
X24528Y30458D01*
X24300Y29888D01*
X24298Y29877D01*
X24292Y29868D01*
X24122Y29414D01*
X23894Y28845D01*
X23892Y28834D01*
X23886Y28824D01*
X23716Y28370D01*
X23488Y27801D01*
X23486Y27790D01*
X23480Y27780D01*
X23310Y27327D01*
X23083Y26757D01*
X23080Y26746D01*
X23075Y26737D01*
X22904Y26283D01*
X22677Y25714D01*
X22675Y25707D01*
X22672Y25701D01*
X22534Y25342D01*
X22367Y24954D01*
X22367Y24954D01*
X22367Y24953D01*
X22325Y24753D01*
X22285Y24565D01*
X22285Y24564D01*
X22285Y24564D01*
X22323Y24361D01*
X22358Y24174D01*
X22358Y24173D01*
X22358Y24173D01*
X22473Y23997D01*
X22575Y23840D01*
X22575Y23840D01*
X22575Y23840D01*
X22740Y23727D01*
X22903Y23615D01*
X22903Y23615D01*
X22903Y23615D01*
X23090Y23575D01*
X23292Y23533D01*
X23292Y23533D01*
X23293Y23533D01*
X25815Y23504D01*
X25838Y23508D01*
X25861Y23504D01*
X26033Y23544D01*
X26206Y23577D01*
X26226Y23590D01*
X26248Y23595D01*
X26392Y23698D01*
X26539Y23794D01*
X26553Y23813D01*
X26572Y23827D01*
X26664Y23977D01*
X26764Y24122D01*
X26769Y24145D01*
X26781Y24165D01*
X26955Y24629D01*
X26956Y24634D01*
X26959Y24639D01*
X27182Y25254D01*
X29562Y25290D01*
X29564Y25280D01*
X29825Y24555D01*
X29831Y24545D01*
X29833Y24534D01*
X29977Y24157D01*
X29987Y24141D01*
X29991Y24123D01*
X30094Y23974D01*
X30190Y23821D01*
X30205Y23810D01*
X30216Y23794D01*
X30367Y23696D01*
X30515Y23592D01*
X30533Y23587D01*
X30549Y23577D01*
X30727Y23544D01*
X30903Y23504D01*
X30922Y23507D01*
X30940Y23504D01*
X33578Y23533D01*
X33768Y23573D01*
X33957Y23610D01*
X33962Y23613D01*
X33968Y23615D01*
X34032Y23658D01*
X34099Y23613D01*
X34100Y23613D01*
X34100Y23612D01*
X34295Y23573D01*
X34489Y23533D01*
X34489Y23533D01*
X34490Y23533D01*
X40491Y23504D01*
X40682Y23541D01*
X40873Y23576D01*
X40877Y23578D01*
X40882Y23579D01*
X41044Y23686D01*
X41207Y23792D01*
X41210Y23796D01*
X41214Y23799D01*
X41322Y23960D01*
X41432Y24120D01*
X41434Y24125D01*
X41436Y24128D01*
X41475Y24319D01*
X41504Y24455D01*
X41614Y24541D01*
X42018Y24670D01*
X42421Y24356D01*
X42498Y24318D01*
X42564Y24263D01*
X43318Y23857D01*
X43374Y23840D01*
X43422Y23809D01*
X43712Y23693D01*
X43770Y23682D01*
X43823Y23656D01*
X44142Y23569D01*
X44162Y23567D01*
X44181Y23559D01*
X44510Y23483D01*
X44638Y23440D01*
X44781Y23422D01*
X44922Y23389D01*
X46429Y23331D01*
X46488Y23340D01*
X46547Y23333D01*
X47300Y23391D01*
X47344Y23403D01*
X47390Y23402D01*
X48085Y23517D01*
X48124Y23532D01*
X48165Y23534D01*
X48397Y23592D01*
X48413Y23599D01*
X48430Y23601D01*
X48836Y23717D01*
X48912Y23756D01*
X48996Y23777D01*
X49662Y24096D01*
X49794Y24195D01*
X49933Y24285D01*
X49953Y24314D01*
X49981Y24335D01*
X50065Y24476D01*
X50159Y24612D01*
X50166Y24646D01*
X50184Y24677D01*
X50208Y24840D01*
X50242Y25001D01*
X50245Y25242D01*
X50565Y25390D01*
X50748Y25412D01*
X51314Y24846D01*
X51367Y24811D01*
X51409Y24762D01*
X51930Y24356D01*
X51996Y24324D01*
X52051Y24276D01*
X52456Y24044D01*
X52469Y24040D01*
X52535Y23988D01*
X52767Y23872D01*
X52826Y23856D01*
X52878Y23825D01*
X53603Y23564D01*
X53654Y23556D01*
X53701Y23534D01*
X53895Y23486D01*
X54031Y23440D01*
X54169Y23423D01*
X54303Y23389D01*
X55463Y23331D01*
X55527Y23340D01*
X55592Y23333D01*
X56346Y23391D01*
X56429Y23414D01*
X56515Y23418D01*
X56978Y23534D01*
X57000Y23544D01*
X57024Y23547D01*
X57604Y23721D01*
X57665Y23753D01*
X57733Y23769D01*
X58371Y24059D01*
X58451Y24117D01*
X58542Y24158D01*
X58882Y24401D01*
X58927Y24423D01*
X59056Y24523D01*
X59192Y24614D01*
X59364Y24786D01*
X59498Y24882D01*
X59531Y24918D01*
X59574Y24942D01*
X59667Y25062D01*
X59771Y25172D01*
X59783Y25206D01*
X60003Y25426D01*
X60056Y25505D01*
X60124Y25571D01*
X60501Y26122D01*
X60524Y26175D01*
X60560Y26221D01*
X60821Y26713D01*
X60841Y26779D01*
X60877Y26838D01*
X61080Y27389D01*
X61438Y27498D01*
X61629Y27500D01*
X61737Y27462D01*
X61863Y27127D01*
X62093Y26494D01*
X62096Y26490D01*
X62097Y26485D01*
X62966Y24165D01*
X62978Y24146D01*
X62983Y24124D01*
X63083Y23978D01*
X63176Y23827D01*
X63195Y23814D01*
X63207Y23795D01*
X63355Y23698D01*
X63499Y23595D01*
X63521Y23590D01*
X63540Y23577D01*
X63714Y23545D01*
X63886Y23504D01*
X63909Y23508D01*
X63931Y23504D01*
X66859Y23533D01*
X66867Y23534D01*
X66875Y23533D01*
X67062Y23575D01*
X67249Y23614D01*
X67255Y23619D01*
X67263Y23621D01*
X67419Y23731D01*
X67577Y23839D01*
X67582Y23845D01*
X67588Y23850D01*
X67690Y24011D01*
X67795Y24171D01*
X67796Y24179D01*
X67801Y24186D01*
X67946Y24563D01*
X67946Y24567D01*
X67949Y24571D01*
X68123Y25035D01*
X68124Y25040D01*
X68126Y25045D01*
X68356Y25677D01*
X69051Y27528D01*
X69051Y27533D01*
X69054Y27538D01*
X69284Y28171D01*
X69810Y29572D01*
X70309Y29480D01*
X70294Y24555D01*
X70332Y24364D01*
X70367Y24174D01*
X70370Y24170D01*
X70371Y24165D01*
X70478Y24004D01*
X70584Y23840D01*
X70588Y23837D01*
X70591Y23833D01*
X70751Y23725D01*
X70912Y23615D01*
X70917Y23614D01*
X70921Y23611D01*
X71112Y23573D01*
X71301Y23533D01*
X73650Y23504D01*
X73653Y23504D01*
X73657Y23504D01*
X73849Y23541D01*
X74041Y23577D01*
X74044Y23579D01*
X74047Y23579D01*
X74211Y23687D01*
X74374Y23794D01*
X74376Y23797D01*
X74379Y23799D01*
X74756Y24072D01*
X75059Y23975D01*
X75265Y23872D01*
X75322Y23857D01*
X75372Y23826D01*
X76010Y23594D01*
X76072Y23584D01*
X76129Y23559D01*
X76459Y23483D01*
X76587Y23440D01*
X76728Y23422D01*
X76867Y23389D01*
X78258Y23331D01*
X78351Y23345D01*
X78445Y23340D01*
X79257Y23456D01*
X79329Y23481D01*
X79405Y23489D01*
X79985Y23663D01*
X80026Y23684D01*
X80071Y23693D01*
X80361Y23809D01*
X80421Y23847D01*
X80488Y23870D01*
X80869Y24088D01*
X80960Y24133D01*
X81089Y24233D01*
X81225Y24324D01*
X81263Y24363D01*
X81321Y24407D01*
X81402Y24461D01*
X81717Y24406D01*
X81944Y24278D01*
X81964Y24173D01*
X81967Y24168D01*
X81968Y24162D01*
X82076Y24001D01*
X82181Y23840D01*
X82186Y23836D01*
X82189Y23831D01*
X82350Y23724D01*
X82509Y23615D01*
X82515Y23614D01*
X82520Y23610D01*
X82709Y23573D01*
X82898Y23533D01*
X85304Y23504D01*
X85309Y23505D01*
X85313Y23504D01*
X85504Y23541D01*
X85695Y23577D01*
X85699Y23579D01*
X85704Y23580D01*
X85866Y23688D01*
X86029Y23794D01*
X86031Y23798D01*
X86035Y23800D01*
X86144Y23962D01*
X86254Y24122D01*
X86255Y24126D01*
X86257Y24130D01*
X86296Y24321D01*
X86336Y24511D01*
X86335Y24516D01*
X86336Y24520D01*
X86340Y25641D01*
X86376Y25663D01*
X86840Y25782D01*
X86853Y25765D01*
X86944Y25629D01*
X86982Y25590D01*
X87027Y25533D01*
X87118Y25397D01*
X87640Y24875D01*
X87682Y24847D01*
X87715Y24807D01*
X88034Y24546D01*
X88134Y24493D01*
X88152Y24479D01*
X88161Y24469D01*
X88181Y24456D01*
X88224Y24423D01*
X88251Y24409D01*
X88265Y24400D01*
X88358Y24316D01*
X88938Y23968D01*
X89015Y23940D01*
X89084Y23896D01*
X89374Y23779D01*
X89388Y23777D01*
X89400Y23769D01*
X89951Y23567D01*
X90005Y23558D01*
X90056Y23534D01*
X90250Y23486D01*
X90386Y23440D01*
X90524Y23423D01*
X90658Y23389D01*
X91818Y23331D01*
X91882Y23340D01*
X91947Y23333D01*
X92701Y23391D01*
X92784Y23414D01*
X92870Y23418D01*
X93334Y23534D01*
X93355Y23544D01*
X93379Y23547D01*
X93959Y23721D01*
X94020Y23753D01*
X94088Y23769D01*
X94726Y24059D01*
X94806Y24117D01*
X94897Y24158D01*
X95237Y24401D01*
X95282Y24423D01*
X95411Y24523D01*
X95547Y24614D01*
X95701Y24769D01*
X95759Y24813D01*
X95895Y24904D01*
X96156Y25165D01*
X96246Y25301D01*
X96291Y25358D01*
X96358Y25426D01*
X96412Y25506D01*
X96481Y25574D01*
X96644Y25814D01*
X97144Y25659D01*
X97140Y24555D01*
X97177Y24364D01*
X97213Y24174D01*
X97215Y24170D01*
X97216Y24165D01*
X97324Y24003D01*
X97430Y23841D01*
X97434Y23838D01*
X97436Y23833D01*
X97597Y23725D01*
X97758Y23615D01*
X97763Y23614D01*
X97767Y23611D01*
X97957Y23573D01*
X98147Y23533D01*
X100437Y23504D01*
X100438Y23504D01*
X100439Y23504D01*
X100632Y23540D01*
X100828Y23576D01*
X100829Y23577D01*
X100830Y23577D01*
X100995Y23685D01*
X101162Y23793D01*
X101162Y23794D01*
X101163Y23795D01*
X101274Y23956D01*
X101387Y24121D01*
X101387Y24122D01*
X101388Y24123D01*
X101428Y24314D01*
X101470Y24510D01*
X101469Y24511D01*
X101470Y24513D01*
X101485Y26026D01*
X101987Y26184D01*
X102038Y26112D01*
X102060Y26068D01*
X102161Y25939D01*
X102251Y25803D01*
X102285Y25769D01*
X102316Y25699D01*
X102560Y25358D01*
X102582Y25314D01*
X102682Y25185D01*
X102773Y25049D01*
X102807Y25015D01*
X102838Y24945D01*
X103372Y24199D01*
X103394Y24154D01*
X103494Y24025D01*
X103585Y23889D01*
X103672Y23802D01*
X103677Y23799D01*
X103681Y23793D01*
X103842Y23688D01*
X104003Y23581D01*
X104009Y23580D01*
X104015Y23576D01*
X104204Y23541D01*
X104393Y23504D01*
X104399Y23505D01*
X104406Y23504D01*
X106696Y23533D01*
X106887Y23573D01*
X107076Y23611D01*
X107080Y23614D01*
X107085Y23615D01*
X107246Y23726D01*
X107406Y23833D01*
X107409Y23838D01*
X107413Y23841D01*
X107519Y24004D01*
X107626Y24165D01*
X107627Y24170D01*
X107630Y24174D01*
X107665Y24364D01*
X107703Y24555D01*
X107674Y33977D01*
X107637Y34159D01*
X107606Y34340D01*
X107598Y34353D01*
X107595Y34367D01*
X107492Y34521D01*
X107393Y34677D01*
X107381Y34685D01*
X107373Y34698D01*
X107219Y34800D01*
X107068Y34906D01*
X107054Y34909D01*
X107041Y34918D01*
X106860Y34953D01*
X106680Y34994D01*
X104419Y35052D01*
X104409Y35050D01*
X104400Y35052D01*
X104214Y35016D01*
X104027Y34984D01*
X104019Y34979D01*
X104009Y34977D01*
X103851Y34873D01*
X103691Y34772D01*
X103685Y34764D01*
X103677Y34758D01*
X103570Y34602D01*
X103461Y34447D01*
X103459Y34437D01*
X103454Y34429D01*
X103415Y34243D01*
X103374Y34058D01*
X103375Y34049D01*
X103373Y34040D01*
X103363Y32523D01*
X102861Y32364D01*
X102805Y32444D01*
X102782Y32488D01*
X102733Y32551D01*
X102700Y32625D01*
X102440Y32989D01*
X102234Y33350D01*
X102200Y33389D01*
X102178Y33436D01*
X101935Y33777D01*
X101913Y33821D01*
X101864Y33885D01*
X101830Y33958D01*
X101587Y34299D01*
X101565Y34343D01*
X101465Y34473D01*
X101374Y34608D01*
X101287Y34695D01*
X101132Y34799D01*
X100979Y34907D01*
X100967Y34909D01*
X100956Y34916D01*
X100773Y34953D01*
X100591Y34994D01*
X98213Y35052D01*
X98203Y35050D01*
X98192Y35052D01*
X98007Y35016D01*
X97822Y34984D01*
X97812Y34978D01*
X97801Y34975D01*
X97645Y34872D01*
X97486Y34771D01*
X97479Y34762D01*
X97470Y34756D01*
X97365Y34600D01*
X97256Y34445D01*
X97254Y34435D01*
X97248Y34425D01*
X97211Y34241D01*
X97169Y34057D01*
X97171Y34046D01*
X97169Y34036D01*
X97166Y32864D01*
X96718Y32709D01*
X96665Y32707D01*
X96639Y32733D01*
X96594Y32791D01*
X96503Y32927D01*
X96465Y32965D01*
X96420Y33023D01*
X96329Y33159D01*
X95837Y33652D01*
X95701Y33742D01*
X95643Y33787D01*
X95634Y33797D01*
X95614Y33810D01*
X95572Y33843D01*
X95551Y33853D01*
X95486Y33919D01*
X94761Y34412D01*
X94685Y34444D01*
X94619Y34492D01*
X94184Y34695D01*
X94142Y34706D01*
X94105Y34728D01*
X93555Y34931D01*
X93500Y34940D01*
X93449Y34964D01*
X93256Y35012D01*
X93119Y35058D01*
X92988Y35074D01*
X92860Y35108D01*
X91932Y35166D01*
X91900Y35162D01*
X91869Y35168D01*
D02*
G37*
%LPD*%
G36*
X75054Y84709D02*
X75344Y84535D01*
X75489Y84390D01*
X75546Y84158D01*
X75604Y83984D01*
X75489Y83636D01*
X75286Y83375D01*
X74996Y83259D01*
X74474Y83318D01*
X74184Y83607D01*
X73140Y83549D01*
X71546Y81955D01*
X75054Y81926D01*
X75344Y82216D01*
X75576Y82274D01*
X76039Y82216D01*
X76300Y82013D01*
X76416Y81723D01*
X76445Y81462D01*
X76387Y81230D01*
X76097Y80882D01*
X75634Y80766D01*
X75141Y81027D01*
X75112Y81114D01*
X68676Y81056D01*
X68502Y80882D01*
X68038Y80766D01*
X67864Y80824D01*
X67748Y80882D01*
X67487Y81085D01*
X67371Y81375D01*
X67429Y81897D01*
X67545Y82013D01*
X67574Y82100D01*
X67690Y82158D01*
X67980Y82274D01*
X68444Y82216D01*
X68560Y82100D01*
X68647Y82071D01*
X68705Y81955D01*
X70067Y81926D01*
X70125D01*
X70415Y81984D01*
X72850Y84419D01*
X74271Y84448D01*
X74300Y84535D01*
X74416Y84593D01*
X74822Y84767D01*
X75054Y84709D01*
D02*
G37*
G36*
X76735Y80186D02*
X77054Y79926D01*
X77170Y79636D01*
X77112Y79172D01*
X76793Y78853D01*
X76387Y78737D01*
X76010Y78882D01*
X75807Y79085D01*
X74358Y79027D01*
X72995Y77664D01*
X76619Y77635D01*
X76909Y77925D01*
X77315Y77983D01*
X77605Y77867D01*
X77808Y77722D01*
X77866Y77606D01*
X77982Y77316D01*
X77924Y76910D01*
X77663Y76591D01*
X77373Y76476D01*
X77315D01*
X76909Y76534D01*
X76648Y76736D01*
X76619Y76823D01*
X75170Y76765D01*
X72850Y74446D01*
X71111Y74388D01*
X70879Y74156D01*
X70647Y74098D01*
X70183Y74156D01*
X69864Y74475D01*
X69806Y74707D01*
X69864Y75171D01*
X70125Y75490D01*
X70531Y75606D01*
X70850Y75519D01*
X71053Y75374D01*
X71169Y75258D01*
X72560Y75316D01*
X74039Y76794D01*
X70299Y76823D01*
X70067Y76591D01*
X69777Y76476D01*
X69313Y76534D01*
X69052Y76736D01*
X68994Y76852D01*
X68879Y77142D01*
X68937Y77490D01*
X69197Y77809D01*
X69603Y77983D01*
X69951Y77925D01*
X70067Y77809D01*
X70183Y77751D01*
X70241Y77635D01*
X71865Y77693D01*
X74068Y79896D01*
X75807Y79954D01*
X75981Y80128D01*
X76271Y80244D01*
X76735Y80186D01*
D02*
G37*
G36*
X102508Y75519D02*
X102711Y75374D01*
X102856Y75229D01*
X102914Y74997D01*
X102856Y74475D01*
X102537Y74156D01*
X102305Y74098D01*
X101842Y74156D01*
X101552Y74446D01*
X95347Y74388D01*
X95116Y74156D01*
X94884Y74098D01*
X94420Y74156D01*
X94101Y74475D01*
X94043Y74707D01*
X94101Y75229D01*
X94362Y75490D01*
X94768Y75606D01*
X95087Y75519D01*
X95289Y75374D01*
X95406Y75258D01*
X100508D01*
X101610Y75316D01*
X101784Y75490D01*
X102190Y75606D01*
X102508Y75519D01*
D02*
G37*
G36*
X101668Y73171D02*
X101987Y72852D01*
X102044Y72446D01*
X101987Y72156D01*
X101784Y71895D01*
X101668Y71837D01*
X101378Y71721D01*
X101030Y71779D01*
X100711Y72040D01*
X94536Y72069D01*
X94420Y71895D01*
X94304Y71837D01*
X94014Y71721D01*
X93666Y71779D01*
X93347Y72040D01*
X93231Y72330D01*
X93173Y72562D01*
X93231Y72736D01*
X93289Y72852D01*
X93492Y73112D01*
X93782Y73229D01*
X94304Y73171D01*
X94594Y72881D01*
X94652D01*
X100740Y72939D01*
X100798Y73055D01*
X100914Y73112D01*
X101204Y73229D01*
X101668Y73171D01*
D02*
G37*
G36*
X79228D02*
X79547Y72910D01*
X79663Y72504D01*
X79605Y72214D01*
X79344Y71895D01*
X78939Y71721D01*
X78620Y71808D01*
X78417Y71953D01*
X78301Y72069D01*
X71981Y72011D01*
X71807Y71837D01*
X71401Y71721D01*
X71082Y71808D01*
X70995Y71895D01*
X70879Y71953D01*
X70676Y72330D01*
X70734Y72794D01*
X70995Y73112D01*
X71285Y73229D01*
X71749Y73171D01*
X71865Y73055D01*
X71981Y72997D01*
X72097Y72881D01*
X76271D01*
X78301Y72939D01*
X78475Y73112D01*
X78765Y73229D01*
X79228Y73171D01*
D02*
G37*
G36*
X80388Y69924D02*
X80504Y69808D01*
X80591Y69779D01*
X80649Y69663D01*
X80765Y69547D01*
X80823Y69141D01*
X80707Y68851D01*
X80591Y68735D01*
X80562Y68648D01*
X80446Y68590D01*
X80156Y68474D01*
X79750Y68532D01*
X79431Y68793D01*
X78069Y68822D01*
X78011D01*
X73198Y68764D01*
X73140Y68648D01*
X73024Y68590D01*
X72734Y68474D01*
X72329Y68532D01*
X72010Y68793D01*
X71894Y69083D01*
X71952Y69547D01*
X72212Y69866D01*
X72618Y69981D01*
X72966Y69924D01*
X73082Y69808D01*
X73198Y69750D01*
X73256Y69634D01*
X79460Y69692D01*
X79634Y69866D01*
X79924Y69981D01*
X80388Y69924D01*
D02*
G37*
G36*
X100392D02*
X100711Y69663D01*
X100827Y69373D01*
X100769Y68909D01*
X100508Y68590D01*
X100218Y68474D01*
X99754Y68532D01*
X99464Y68822D01*
X96333Y68764D01*
X95319Y67749D01*
X98769Y67720D01*
X98884Y67894D01*
X99174Y68010D01*
X99406Y68068D01*
X99783Y67923D01*
X100015Y67691D01*
X100073Y67459D01*
X100131Y67285D01*
X100073Y67111D01*
X99841Y66706D01*
X99522Y66561D01*
X99000Y66619D01*
X98711Y66908D01*
X92738Y66851D01*
X92564Y66676D01*
X92274Y66561D01*
X91753Y66619D01*
X91492Y66879D01*
X91376Y67169D01*
X91434Y67633D01*
X91753Y67952D01*
X92159Y68068D01*
X92535Y67923D01*
X92738Y67720D01*
X94188Y67778D01*
X96043Y69634D01*
X97899D01*
X99522Y69692D01*
X99754Y69924D01*
X100160Y69981D01*
X100392Y69924D01*
D02*
G37*
G36*
X64269Y66039D02*
X64588Y65720D01*
X64646Y65314D01*
X64588Y65024D01*
X64472Y64908D01*
X64414Y64792D01*
X64153Y64647D01*
X63921Y64589D01*
X63689Y64647D01*
X63399Y64821D01*
X63283Y64937D01*
X62471D01*
X57166Y64908D01*
X57137Y64821D01*
X57021Y64763D01*
X56615Y64589D01*
X56296Y64676D01*
X56093Y64821D01*
X55949Y64966D01*
X55832Y65372D01*
X55919Y65691D01*
X56006Y65778D01*
X56064Y65894D01*
X56151Y65981D01*
X56441Y66097D01*
X56963Y66039D01*
X57253Y65749D01*
X63312Y65778D01*
X63370Y65894D01*
X63747Y66097D01*
X64269Y66039D01*
D02*
G37*
G36*
X73952Y67778D02*
X74126Y67720D01*
X76967Y67662D01*
X78881Y65749D01*
X80852Y65807D01*
X81084Y66039D01*
X81316Y66097D01*
X81780Y66039D01*
X82099Y65720D01*
X82156Y65604D01*
Y65546D01*
X82099Y65024D01*
X81838Y64705D01*
X81432Y64589D01*
X81113Y64676D01*
X80910Y64821D01*
X80794Y64937D01*
X74648Y64879D01*
X74474Y64705D01*
X74068Y64589D01*
X73691Y64734D01*
X73401Y65024D01*
X73343Y65430D01*
X73401Y65662D01*
X73662Y65981D01*
X73952Y66097D01*
X74416Y66039D01*
X74735Y65778D01*
X77663Y65749D01*
X77692Y65778D01*
X76619Y66851D01*
X76387Y66908D01*
X73952Y66851D01*
X73720Y66619D01*
X73488Y66561D01*
X73024Y66619D01*
X72908Y66734D01*
X72821Y66764D01*
X72763Y66879D01*
X72647Y67169D01*
X72705Y67633D01*
X72966Y67952D01*
X73430Y68068D01*
X73952Y67778D01*
D02*
G37*
G36*
X98537Y64937D02*
X98856Y64618D01*
X98971Y64328D01*
X98914Y63922D01*
X98798Y63806D01*
X98739Y63690D01*
X98479Y63546D01*
X98247Y63487D01*
X97899Y63546D01*
X97580Y63806D01*
X94014Y63835D01*
X92651Y62473D01*
X96739Y62444D01*
X96971Y62676D01*
X97261Y62792D01*
X97667Y62734D01*
X97986Y62473D01*
X98102Y62183D01*
X98044Y61661D01*
X97783Y61400D01*
X97493Y61284D01*
X97087Y61342D01*
X96768Y61603D01*
X95638Y61632D01*
X93434Y59429D01*
X90071Y59371D01*
X90013Y59255D01*
X89897Y59197D01*
X89607Y59081D01*
X89201Y59139D01*
X88882Y59400D01*
X88766Y59806D01*
X88824Y60154D01*
X89085Y60472D01*
X89375Y60588D01*
X89839Y60530D01*
X89955Y60414D01*
X90071Y60356D01*
X90129Y60240D01*
X93144Y60298D01*
X94449Y61603D01*
X90941Y61632D01*
X90709Y61400D01*
X90419Y61284D01*
X89955Y61342D01*
X89636Y61661D01*
X89520Y62067D01*
X89665Y62444D01*
X89955Y62734D01*
X90361Y62792D01*
X90593Y62734D01*
X90912Y62473D01*
X91463Y62444D01*
X93666Y64647D01*
X95985D01*
X97638Y64676D01*
X97696Y64792D01*
X97957Y64937D01*
X98189Y64995D01*
X98537Y64937D01*
D02*
G37*
G36*
X82939Y62734D02*
X83258Y62415D01*
X83374Y62009D01*
X83229Y61632D01*
X82939Y61342D01*
X82533Y61284D01*
X82301Y61342D01*
X81983Y61603D01*
X75981Y61632D01*
X75749Y61400D01*
X75460Y61284D01*
X75054Y61342D01*
X74735Y61603D01*
X74706Y61632D01*
X74619Y61893D01*
X74677Y62415D01*
X74938Y62676D01*
X75228Y62792D01*
X75634Y62734D01*
X75952Y62473D01*
X81954Y62444D01*
X82186Y62676D01*
X82475Y62792D01*
X82939Y62734D01*
D02*
G37*
G36*
X83693Y60530D02*
X84012Y60269D01*
X84128Y59979D01*
X84070Y59516D01*
X83809Y59197D01*
X83519Y59081D01*
X83055Y59139D01*
X82765Y59429D01*
X78127D01*
X76735Y59371D01*
X76503Y59139D01*
X76097Y59081D01*
X75865Y59139D01*
X75546Y59400D01*
X75431Y59690D01*
X75489Y60154D01*
X75749Y60472D01*
X76039Y60588D01*
X76503Y60530D01*
X76793Y60240D01*
X82823Y60298D01*
X83055Y60530D01*
X83461Y60588D01*
X83693Y60530D01*
D02*
G37*
G36*
X58123Y62734D02*
X58239Y62618D01*
X58355Y62560D01*
X58413Y62444D01*
X62645Y62386D01*
X64791Y60240D01*
X65487Y60298D01*
X65661Y60472D01*
X65950Y60588D01*
X66356Y60530D01*
X66675Y60269D01*
X66791Y59979D01*
X66733Y59458D01*
X66472Y59197D01*
X66182Y59081D01*
X65776Y59139D01*
X65458Y59400D01*
X62471Y59429D01*
X62442Y59400D01*
X62703Y59081D01*
X63747Y58037D01*
X66356Y58095D01*
X66472Y58211D01*
X66588Y58269D01*
X66762Y58327D01*
X66994Y58385D01*
X67371Y58240D01*
X67545Y58066D01*
X67661Y57776D01*
X67603Y57254D01*
X67487Y57138D01*
X67458Y57051D01*
X67342Y56993D01*
X67052Y56877D01*
X66588Y56936D01*
X66298Y57225D01*
X64385D01*
X63341Y57283D01*
X62037Y58588D01*
X61979Y58704D01*
X61254Y59429D01*
X59167Y59371D01*
X58935Y59139D01*
X58529Y59081D01*
X58297Y59139D01*
X57978Y59400D01*
X57862Y59690D01*
X57920Y60154D01*
X58181Y60472D01*
X58471Y60588D01*
X58935Y60530D01*
X59224Y60240D01*
X63660Y60269D01*
X62298Y61632D01*
X58384Y61603D01*
X58326Y61487D01*
X57949Y61284D01*
X57485Y61342D01*
X57369Y61458D01*
X57253Y61516D01*
X57108Y61777D01*
X57050Y62009D01*
X57108Y62357D01*
X57224Y62473D01*
X57282Y62589D01*
X57543Y62734D01*
X57775Y62792D01*
X58123Y62734D01*
D02*
G37*
G36*
X95695Y57689D02*
X95985Y57515D01*
X96130Y57370D01*
X96246Y56964D01*
X96159Y56646D01*
X96014Y56443D01*
X95927Y56356D01*
X95638Y56240D01*
X95116Y56298D01*
X94826Y56588D01*
X92448Y56530D01*
X90506Y54587D01*
X90477Y54558D01*
X89665Y53746D01*
X88100Y53688D01*
X87926Y53514D01*
X87636Y53399D01*
X87230Y53456D01*
X86911Y53717D01*
X86795Y54007D01*
X86853Y54471D01*
X87114Y54790D01*
X87404Y54906D01*
X87868Y54848D01*
X87984Y54732D01*
X88071Y54703D01*
X88129Y54587D01*
X89317Y54558D01*
X92159Y57399D01*
X94942Y57457D01*
X95116Y57631D01*
X95521Y57747D01*
X95695Y57689D01*
D02*
G37*
G36*
X68618Y54848D02*
X68734Y54732D01*
X68850Y54674D01*
X68994Y54355D01*
X69052Y54123D01*
X68907Y53746D01*
X68676Y53514D01*
X68386Y53399D01*
X67980Y53456D01*
X67864Y53572D01*
X67748Y53630D01*
X67632Y53746D01*
X63370Y53717D01*
X65429Y51659D01*
X70009Y51717D01*
X70241Y51949D01*
X70473Y52007D01*
X70937Y51949D01*
X71053Y51833D01*
X71140Y51804D01*
X71198Y51688D01*
X71314Y51398D01*
X71256Y50934D01*
X71198Y50818D01*
X71169Y50789D01*
X70995Y50615D01*
X70589Y50499D01*
X70357Y50557D01*
X70241Y50615D01*
X69893Y50847D01*
X65023Y50905D01*
X62182Y53746D01*
X61254Y53688D01*
X61080Y53514D01*
X60674Y53399D01*
X60384Y53456D01*
X60065Y53717D01*
X59949Y54007D01*
X59891Y54181D01*
X59949Y54355D01*
X60152Y54732D01*
X60268Y54790D01*
X60558Y54906D01*
X60964Y54848D01*
X61283Y54587D01*
X67632Y54558D01*
X67864Y54790D01*
X68154Y54906D01*
X68618Y54848D01*
D02*
G37*
G36*
X77808Y57486D02*
X77837Y57399D01*
X80794Y57341D01*
X83577Y54558D01*
X84795Y54616D01*
X84969Y54790D01*
X85259Y54906D01*
X85723Y54848D01*
X85838Y54732D01*
X85954Y54674D01*
X86099Y54413D01*
X86157Y54181D01*
X86070Y53862D01*
X85925Y53659D01*
X85780Y53514D01*
X85491Y53399D01*
X85085Y53456D01*
X84969Y53572D01*
X84853Y53630D01*
X84795Y53746D01*
X83171Y53804D01*
X80388Y56588D01*
X77837Y56530D01*
X77605Y56298D01*
X77373Y56240D01*
X77025D01*
X76996Y56269D01*
X76677Y56472D01*
X76532Y56791D01*
X76503Y56993D01*
X76561Y57283D01*
X76648Y57370D01*
X76706Y57486D01*
X76851Y57631D01*
X77315Y57747D01*
X77808Y57486D01*
D02*
G37*
G36*
X94739Y54877D02*
X94942Y54732D01*
X95087Y54587D01*
X95203Y54181D01*
X95116Y53862D01*
X94826Y53514D01*
X94594Y53456D01*
X94391Y53427D01*
X94159Y53486D01*
X93956Y53630D01*
X93840Y53746D01*
X92912Y53688D01*
X90912Y51688D01*
X92680Y51659D01*
X92970Y51949D01*
X93202Y52007D01*
X93666Y51949D01*
X93985Y51688D01*
X94101Y51282D01*
X94043Y50992D01*
X93782Y50673D01*
X93376Y50499D01*
X93144Y50557D01*
X92854Y50731D01*
X92738Y50847D01*
X74532Y50789D01*
X72212Y48470D01*
X63138Y48441D01*
X63080Y48325D01*
X62761Y48180D01*
X62529Y48122D01*
X62153Y48267D01*
X61921Y48499D01*
X61863Y48731D01*
X61805Y48905D01*
X61863Y49079D01*
X62095Y49485D01*
X62414Y49630D01*
X62935Y49572D01*
X63225Y49282D01*
X71923Y49340D01*
X74242Y51659D01*
X81809Y51688D01*
X79750Y53746D01*
X78822Y53688D01*
X78649Y53514D01*
X78417Y53456D01*
X78272Y53427D01*
X77982Y53486D01*
X77895Y53572D01*
X77779Y53630D01*
X77692Y53717D01*
X77634Y53833D01*
X77576Y54007D01*
X77518Y54239D01*
X77576Y54413D01*
X77634Y54529D01*
X77837Y54790D01*
X77953Y54848D01*
X78127Y54906D01*
X78330Y54935D01*
X78562Y54877D01*
X78765Y54732D01*
X78881Y54616D01*
X80098Y54558D01*
X82997Y51659D01*
X83867D01*
X89781Y51717D01*
X92680Y54616D01*
X93898Y54674D01*
X94072Y54848D01*
X94304Y54906D01*
X94449Y54935D01*
X94739Y54877D01*
D02*
G37*
G36*
X76387Y49572D02*
X76503Y49456D01*
X76619Y49398D01*
X76735Y49282D01*
X83403Y49224D01*
X84505Y48122D01*
X91463Y48180D01*
X91637Y48354D01*
X91869Y48412D01*
X92332Y48354D01*
X92593Y48151D01*
X92651Y48035D01*
X92709Y47861D01*
X92767Y47629D01*
X92709Y47455D01*
X92535Y47165D01*
X92390Y47020D01*
X91927Y46905D01*
X91434Y47165D01*
X91405Y47252D01*
X84157Y47310D01*
X82997Y48470D01*
X76619Y48412D01*
X76445Y48238D01*
X76039Y48122D01*
X75721Y48209D01*
X75634Y48296D01*
X75517Y48354D01*
X75431Y48441D01*
X75315Y48731D01*
X75373Y49253D01*
X75691Y49572D01*
X75779Y49601D01*
X75807Y49630D01*
X76387Y49572D01*
D02*
G37*
G36*
X91463Y45977D02*
X91782Y45658D01*
X91840Y45426D01*
X91782Y44962D01*
X91666Y44846D01*
X91608Y44730D01*
X91289Y44585D01*
X91057Y44527D01*
X90883Y44585D01*
X90593Y44759D01*
X90477Y44875D01*
X69545D01*
X64443Y44817D01*
X64269Y44643D01*
X63805Y44527D01*
X63312Y44788D01*
X63254Y44904D01*
X63138Y45194D01*
X63196Y45658D01*
X63515Y45977D01*
X63747Y46035D01*
X64211Y45977D01*
X64559Y45745D01*
X90535Y45803D01*
X90651Y45919D01*
X90941Y46035D01*
X91463Y45977D01*
D02*
G37*
G36*
X47338Y84709D02*
X47628Y84535D01*
X47744Y84419D01*
X52730Y84361D01*
X55166Y81926D01*
X57050Y81955D01*
X57108Y82071D01*
X57427Y82216D01*
X57659Y82274D01*
X57833Y82216D01*
X58123Y82042D01*
X58210Y81955D01*
X58268Y81839D01*
X58326Y81665D01*
X58355Y81462D01*
X58297Y81230D01*
X58094Y80911D01*
X57775Y80766D01*
X57253Y80824D01*
X56963Y81114D01*
X50817Y81056D01*
X48846Y79085D01*
X45946Y79027D01*
X45773Y78853D01*
X45309Y78737D01*
X45019Y78853D01*
X44758Y79056D01*
X44642Y79346D01*
X44700Y79868D01*
X45019Y80186D01*
X45251Y80244D01*
X45715Y80186D01*
X46033Y79926D01*
X48498Y79896D01*
X48991Y80389D01*
X49020Y80418D01*
X50527Y81926D01*
X53977Y81955D01*
X52325Y83607D01*
X47686Y83549D01*
X47570Y83375D01*
X47280Y83259D01*
X46758Y83318D01*
X46439Y83636D01*
X46381Y83868D01*
X46439Y84332D01*
X46642Y84593D01*
X46758Y84651D01*
X46932Y84709D01*
X47164Y84767D01*
X47338Y84709D01*
D02*
G37*
G36*
X52209Y80186D02*
X52527Y79926D01*
X55253Y79868D01*
X57485Y77635D01*
X58703Y77693D01*
X58877Y77867D01*
X59167Y77983D01*
X59572Y77925D01*
X59891Y77664D01*
X60007Y77374D01*
X59949Y76852D01*
X59630Y76534D01*
X59224Y76476D01*
X58935Y76534D01*
X58645Y76823D01*
X45077Y76765D01*
X44845Y76534D01*
X44439Y76476D01*
X44149Y76534D01*
X43830Y76852D01*
X43772Y77084D01*
X43830Y77606D01*
X44091Y77867D01*
X44381Y77983D01*
X44787Y77925D01*
X45106Y77664D01*
X56267Y77635D01*
X56296Y77664D01*
X55949Y78012D01*
X55919Y78041D01*
X54876Y79085D01*
X52441Y79027D01*
X52267Y78853D01*
X51861Y78737D01*
X51484Y78882D01*
X51397Y78969D01*
X51310Y78998D01*
X51252Y79114D01*
X51136Y79404D01*
X51194Y79809D01*
X51455Y80128D01*
X51745Y80244D01*
X52209Y80186D01*
D02*
G37*
G36*
X50846Y75519D02*
X51049Y75374D01*
X51136Y75287D01*
X51252Y74997D01*
X51194Y74533D01*
X50933Y74214D01*
X50643Y74098D01*
X50179Y74156D01*
X50063Y74272D01*
X49976Y74301D01*
X49918Y74417D01*
X46816Y74446D01*
X45801Y73431D01*
X45773Y73403D01*
X45338Y72968D01*
X45367Y72881D01*
X49078Y72939D01*
X49136Y73055D01*
X49251Y73112D01*
X49541Y73229D01*
X50005Y73171D01*
X50324Y72852D01*
X50382Y72620D01*
X50324Y72156D01*
X50121Y71895D01*
X50005Y71837D01*
X49715Y71721D01*
X49338Y71808D01*
X49136Y71953D01*
X49020Y72069D01*
X43221Y72011D01*
X43047Y71837D01*
X42641Y71721D01*
X42265Y71866D01*
X42178Y71953D01*
X42091Y71982D01*
X42033Y72098D01*
X41917Y72388D01*
X41975Y72794D01*
X42236Y73112D01*
X42526Y73229D01*
X42989Y73171D01*
X43308Y72910D01*
X44091Y72881D01*
X46468Y75258D01*
X49947Y75316D01*
X50121Y75490D01*
X50527Y75606D01*
X50846Y75519D01*
D02*
G37*
G36*
X53426Y75548D02*
X53745Y75287D01*
X54354Y75258D01*
X54412D01*
X56499Y75200D01*
X58819Y72881D01*
X60558Y72939D01*
X60616Y73055D01*
X60732Y73112D01*
X61022Y73229D01*
X61486Y73171D01*
X61805Y72852D01*
X61863Y72446D01*
X61805Y72156D01*
X61602Y71895D01*
X61486Y71837D01*
X61196Y71721D01*
X60848Y71779D01*
X60529Y72040D01*
X58442Y72098D01*
X56093Y74446D01*
X53745Y74417D01*
X53687Y74301D01*
X53310Y74098D01*
X52846Y74156D01*
X52527Y74417D01*
X52412Y74707D01*
X52469Y75171D01*
X52586Y75287D01*
X52644Y75403D01*
X52904Y75548D01*
X53136Y75606D01*
X53426Y75548D01*
D02*
G37*
G36*
X62703Y69924D02*
X63022Y69663D01*
X63138Y69373D01*
X63080Y68909D01*
X62819Y68590D01*
X62529Y68474D01*
X62066Y68532D01*
X61776Y68822D01*
X55774Y68793D01*
X55717Y68677D01*
X55340Y68474D01*
X55108D01*
X54818Y68590D01*
X54615Y68735D01*
X54557Y68851D01*
X54441Y69141D01*
X54499Y69547D01*
X54615Y69663D01*
X54673Y69779D01*
X54934Y69924D01*
X55166Y69981D01*
X55514Y69924D01*
X55630Y69808D01*
X55746Y69750D01*
X55804Y69634D01*
X61834Y69692D01*
X62066Y69924D01*
X62471Y69981D01*
X62703Y69924D01*
D02*
G37*
G36*
X48788D02*
X49106Y69605D01*
X49222Y69199D01*
X49078Y68822D01*
X48788Y68532D01*
X48382Y68474D01*
X48150Y68532D01*
X47831Y68793D01*
X42004Y68822D01*
X41888Y68648D01*
X41772Y68590D01*
X41482Y68474D01*
X41076Y68532D01*
X41047Y68561D01*
X40960Y68648D01*
X40844Y68706D01*
X40699Y68967D01*
X40641Y69199D01*
X40699Y69547D01*
X40815Y69663D01*
X40873Y69779D01*
X41134Y69924D01*
X41366Y69981D01*
X41714Y69924D01*
X41830Y69808D01*
X41946Y69750D01*
X42004Y69634D01*
X47860Y69692D01*
X48034Y69866D01*
X48324Y69981D01*
X48788Y69924D01*
D02*
G37*
G36*
X47976Y68010D02*
X48092Y67952D01*
X48353Y67749D01*
X48469Y67459D01*
X48411Y66937D01*
X48295Y66821D01*
X48266Y66734D01*
X48150Y66676D01*
X47860Y66561D01*
X47396Y66619D01*
X47280Y66734D01*
X47193Y66764D01*
X47135Y66879D01*
X41308Y66908D01*
X41018Y66619D01*
X40786Y66561D01*
X40322Y66619D01*
X40003Y66879D01*
X39887Y67285D01*
X39974Y67604D01*
X40264Y67952D01*
X40496Y68010D01*
X40670Y68068D01*
X40844Y68010D01*
X41134Y67836D01*
X41250Y67720D01*
X47164Y67778D01*
X47280Y67894D01*
X47367Y67923D01*
X47396Y67952D01*
X47570Y68010D01*
X47802Y68068D01*
X47976Y68010D01*
D02*
G37*
G36*
X47396Y66039D02*
X47715Y65720D01*
X47773Y65314D01*
X47715Y65024D01*
X47599Y64908D01*
X47541Y64792D01*
X47280Y64647D01*
X46932Y64589D01*
X46526Y64821D01*
X46410Y64937D01*
X40467Y64908D01*
X40409Y64792D01*
X40090Y64647D01*
X39858Y64589D01*
X39481Y64734D01*
X39250Y64966D01*
X39134Y65372D01*
X39220Y65691D01*
X39307Y65778D01*
X39366Y65894D01*
X39452Y65981D01*
X39742Y66097D01*
X40264Y66039D01*
X40554Y65749D01*
X46410Y65807D01*
X46584Y65981D01*
X46642D01*
X46932Y66097D01*
X47396Y66039D01*
D02*
G37*
G36*
X46120Y62734D02*
X46439Y62473D01*
X46555Y62183D01*
X46497Y61719D01*
X46236Y61400D01*
X45946Y61284D01*
X45483Y61342D01*
X45193Y61632D01*
X43047Y61574D01*
X40902Y59429D01*
X38351Y59371D01*
X38119Y59139D01*
X37887Y59081D01*
X37423Y59139D01*
X37162Y59342D01*
X37104Y59458D01*
X36988Y59748D01*
X37046Y60096D01*
X37307Y60414D01*
X37713Y60588D01*
X38032Y60501D01*
X38235Y60356D01*
X38351Y60240D01*
X40612Y60298D01*
X41917Y61603D01*
X39220Y61632D01*
X39105Y61458D01*
X38989Y61400D01*
X38699Y61284D01*
X38293Y61342D01*
X38177Y61458D01*
X38061Y61516D01*
X37916Y61777D01*
X37858Y62009D01*
X37916Y62357D01*
X38032Y62473D01*
X38090Y62589D01*
X38351Y62734D01*
X38583Y62792D01*
X38931Y62734D01*
X39047Y62618D01*
X39162Y62560D01*
X39220Y62444D01*
X42236D01*
X45251Y62502D01*
X45483Y62734D01*
X45889Y62792D01*
X46120Y62734D01*
D02*
G37*
G36*
X44265Y57631D02*
X44584Y57370D01*
X44700Y56964D01*
X44642Y56674D01*
X44381Y56356D01*
X43975Y56182D01*
X43685Y56240D01*
X43366Y56501D01*
X37249Y56530D01*
X37017Y56298D01*
X36727Y56182D01*
X36379Y56240D01*
X36061Y56501D01*
X35945Y56616D01*
X35886Y57022D01*
X36031Y57399D01*
X36206Y57573D01*
X36495Y57689D01*
X36959Y57631D01*
X37278Y57370D01*
X40844Y57341D01*
X40902D01*
X43337Y57399D01*
X43511Y57573D01*
X43801Y57689D01*
X44265Y57631D01*
D02*
G37*
G36*
X35945Y54819D02*
X36206Y54558D01*
X38931Y54500D01*
X40902Y52529D01*
X41598Y52587D01*
X41772Y52761D01*
X41830D01*
X42120Y52877D01*
X42467Y52819D01*
X42786Y52558D01*
X42902Y52268D01*
X42844Y51804D01*
X42584Y51485D01*
X42294Y51369D01*
X41888Y51427D01*
X41569Y51688D01*
X37307Y51717D01*
X35974Y50383D01*
X34814Y50326D01*
X34640Y50151D01*
X34234Y50036D01*
X33857Y50181D01*
X33625Y50412D01*
X33509Y50702D01*
X33567Y51108D01*
X33828Y51427D01*
X34118Y51543D01*
X34582Y51485D01*
X34901Y51224D01*
X35626Y51195D01*
X36959Y52529D01*
X39713Y52558D01*
X38525Y53746D01*
X36147Y53688D01*
X35974Y53514D01*
X35684Y53399D01*
X35278Y53456D01*
X34959Y53717D01*
X34843Y54007D01*
X34901Y54529D01*
X35220Y54848D01*
X35626Y54906D01*
X35945Y54819D01*
D02*
G37*
G36*
X40902Y48354D02*
X41221Y48035D01*
X41279Y47629D01*
X41221Y47339D01*
X41105Y47223D01*
X41076Y47136D01*
X40960Y47078D01*
X40554Y46905D01*
X40322Y46962D01*
X40032Y47136D01*
X39916Y47252D01*
X37307Y47194D01*
X34988Y44875D01*
X32697Y44846D01*
X32669Y44759D01*
X32553Y44701D01*
X32147Y44527D01*
X31915Y44585D01*
X31625Y44759D01*
X31480Y44904D01*
X31364Y45368D01*
X31422Y45542D01*
X31596Y45832D01*
X31683Y45919D01*
X31973Y46035D01*
X32495Y45977D01*
X32726Y45745D01*
X34756Y45803D01*
X36176Y47223D01*
X33654Y47252D01*
X33422Y47020D01*
X33190Y46962D01*
X33016Y46905D01*
X32842Y46962D01*
X32553Y47136D01*
X32408Y47281D01*
X32292Y47687D01*
X32379Y48006D01*
X32524Y48209D01*
X32610Y48296D01*
X32901Y48412D01*
X33422Y48354D01*
X33654Y48122D01*
X34002D01*
X39974Y48180D01*
X40090Y48296D01*
X40380Y48412D01*
X40902Y48354D01*
D02*
G37*
G36*
X98189Y84709D02*
X98479Y84535D01*
X98595Y84419D01*
X100044Y84361D01*
X102479Y81926D01*
X104103Y81984D01*
X104335Y82216D01*
X104567Y82274D01*
X105031Y82216D01*
X105350Y81955D01*
X105465Y81549D01*
X105378Y81230D01*
X105089Y80882D01*
X104857Y80824D01*
X104683Y80766D01*
X104509Y80824D01*
X104219Y80998D01*
X104103Y81114D01*
X97667Y81056D01*
X97493Y80882D01*
X97029Y80766D01*
X96623Y80998D01*
X96420Y81201D01*
X96362Y81607D01*
X96420Y81839D01*
X96681Y82158D01*
X96971Y82274D01*
X97435Y82216D01*
X97783Y81984D01*
X101233Y82013D01*
X99638Y83607D01*
X98537Y83549D01*
X98421Y83375D01*
X98131Y83259D01*
X97609Y83318D01*
X97377Y83549D01*
X97348Y83578D01*
X97232Y83868D01*
X97290Y84332D01*
X97493Y84593D01*
X97609Y84651D01*
X97783Y84709D01*
X98015Y84767D01*
X98189Y84709D01*
D02*
G37*
G36*
X79344Y34090D02*
X79518Y34032D01*
X79866Y33974D01*
X80156Y33858D01*
X80533Y33713D01*
X80997Y33481D01*
X80968Y31133D01*
X80214Y31655D01*
X79692Y31887D01*
X79286Y32003D01*
X79054Y32061D01*
X78301Y32119D01*
X77837Y32003D01*
X77518Y31742D01*
X77402Y31336D01*
X77460Y31104D01*
X77518Y30988D01*
X77605Y30843D01*
X77721Y30785D01*
X78359Y30496D01*
X79170Y30264D01*
X79721Y30061D01*
X80011Y29945D01*
X80475Y29655D01*
X80678Y29510D01*
X80997Y29249D01*
X81055Y29133D01*
X81287Y28785D01*
X81432Y28408D01*
X81548Y27828D01*
X81577Y27046D01*
Y26987D01*
X81432Y26321D01*
X81316Y26031D01*
X81026Y25567D01*
X80881Y25364D01*
X80736Y25219D01*
X80620Y25161D01*
X80504Y25045D01*
X80388Y24987D01*
X79982Y24755D01*
X79692Y24639D01*
X79112Y24465D01*
X78301Y24349D01*
X76909Y24407D01*
X76735Y24465D01*
X76358Y24552D01*
X75721Y24784D01*
X75257Y25016D01*
X75286Y27364D01*
X75691Y27075D01*
X75807Y27016D01*
X76677Y26611D01*
X77083Y26495D01*
X77489Y26437D01*
X78011Y26379D01*
X78185Y26437D01*
X78707Y26495D01*
X79084Y26756D01*
X79199Y27046D01*
X79141Y27567D01*
X78996Y27770D01*
X78881Y27828D01*
X78359Y28060D01*
X77547Y28292D01*
X76822Y28553D01*
X76039Y28988D01*
X75546Y29481D01*
X75489Y29597D01*
X75199Y30235D01*
X75083Y30930D01*
X75141Y31974D01*
X75199Y32148D01*
X75344Y32525D01*
X75634Y32989D01*
X75779Y33134D01*
X75807Y33221D01*
X75923Y33279D01*
X76155Y33511D01*
X76271Y33569D01*
X76619Y33801D01*
X76909Y33916D01*
X77315Y34032D01*
X77547Y34090D01*
X78127Y34148D01*
X79344Y34090D01*
D02*
G37*
G36*
X47222D02*
X47396Y34032D01*
X47773Y33945D01*
X48411Y33713D01*
X48904Y33453D01*
X48933Y31046D01*
X48846Y31017D01*
X48614Y31249D01*
X48498Y31307D01*
X48382Y31423D01*
X47628Y31771D01*
X47222Y31887D01*
X46816Y31945D01*
X46584Y32003D01*
X45367Y31945D01*
X45077Y31829D01*
X44555Y31539D01*
X44236Y31278D01*
X43830Y30698D01*
X43598Y29945D01*
X43540Y29365D01*
X43598Y28437D01*
X43656Y28263D01*
X43801Y27886D01*
X44149Y27306D01*
X44555Y26901D01*
X44671Y26843D01*
X45019Y26611D01*
X45338Y26524D01*
X45570Y26466D01*
X46816Y26437D01*
X46874Y26495D01*
X46932D01*
X46990Y28988D01*
X49281Y28959D01*
X49222Y25016D01*
X48556Y24697D01*
X48150Y24581D01*
X47918Y24523D01*
X47222Y24407D01*
X46468Y24349D01*
X44961Y24407D01*
X44787Y24465D01*
X44410Y24552D01*
X44091Y24639D01*
X43801Y24755D01*
X43047Y25161D01*
X42526Y25567D01*
X42033Y26060D01*
X41975Y26176D01*
X41859Y26292D01*
X41801Y26408D01*
X41337Y27393D01*
X41163Y28089D01*
X41047Y29249D01*
X41134Y30148D01*
X41192Y30496D01*
X41250Y30727D01*
X41337Y31046D01*
X41511Y31452D01*
X41859Y32090D01*
X42265Y32612D01*
X42815Y33163D01*
X42931Y33221D01*
X43337Y33511D01*
X44091Y33858D01*
X44323Y33916D01*
X44729Y34032D01*
X45541Y34148D01*
X47222Y34090D01*
D02*
G37*
G36*
X106654Y33974D02*
X106683Y24552D01*
X104393Y24523D01*
X104306Y24610D01*
X104248Y24726D01*
X103668Y25538D01*
X103610Y25654D01*
X103494Y25770D01*
X103436Y25886D01*
X103146Y26292D01*
X103088Y26408D01*
X102972Y26524D01*
X102914Y26640D01*
X102334Y27451D01*
X102276Y27567D01*
X101407Y28785D01*
X101349Y28901D01*
X100769Y29713D01*
X100711Y29829D01*
X100595Y29945D01*
X100537Y30061D01*
X100508Y30090D01*
X100450Y24523D01*
X98160Y24552D01*
X98189Y34032D01*
X100566Y33974D01*
X100653Y33887D01*
X100711Y33771D01*
X101001Y33366D01*
X101059Y33250D01*
X101349Y32844D01*
X101581Y32438D01*
X101871Y32032D01*
X101928Y31916D01*
X102218Y31510D01*
X102276Y31394D01*
X102566Y30988D01*
X102624Y30872D01*
X103407Y29684D01*
X103871Y28988D01*
X104161Y28524D01*
X104306Y28321D01*
X104335Y28292D01*
X104364Y29829D01*
Y29887D01*
X104393Y34032D01*
X106654Y33974D01*
D02*
G37*
G36*
X70328Y33830D02*
X70154Y33424D01*
X70009Y33047D01*
X69777Y32409D01*
X69255Y31017D01*
X69024Y30380D01*
X68328Y28524D01*
X68096Y27886D01*
X67400Y26031D01*
X67168Y25393D01*
X66994Y24929D01*
X66849Y24552D01*
X63921Y24523D01*
X63051Y26843D01*
X62819Y27480D01*
X62298Y28872D01*
X62066Y29510D01*
X61370Y31365D01*
X61138Y32003D01*
X60790Y32931D01*
X60674Y33279D01*
X60645Y33308D01*
X60442Y33858D01*
X60413Y33945D01*
X60500Y34032D01*
X62993Y33974D01*
X63283Y33163D01*
X64965Y28292D01*
X65400Y27046D01*
X65429Y27016D01*
X66066Y28872D01*
X67748Y33801D01*
X67835Y34003D01*
X70299Y34032D01*
X70328Y33830D01*
D02*
G37*
G36*
X85346Y33945D02*
X85317Y24523D01*
X82910Y24552D01*
Y25712D01*
Y25770D01*
X82968Y34003D01*
X85259Y34032D01*
X85346Y33945D01*
D02*
G37*
G36*
X73691Y34003D02*
Y30119D01*
Y30061D01*
X73662Y24523D01*
X71314Y24552D01*
X71343Y34032D01*
X73691Y34003D01*
D02*
G37*
G36*
X36930Y33945D02*
X36959Y26611D01*
X37771D01*
X40525Y26582D01*
X40496Y24523D01*
X34495Y24552D01*
X34553Y34003D01*
X36843Y34032D01*
X36930Y33945D01*
D02*
G37*
G36*
X29885Y33974D02*
X30001Y33685D01*
X30175Y33221D01*
X30407Y32641D01*
X30581Y32177D01*
X30813Y31597D01*
X30987Y31133D01*
X31219Y30553D01*
X31393Y30090D01*
X31625Y29510D01*
X31799Y29046D01*
X32147Y28176D01*
X32321Y27712D01*
X32553Y27132D01*
X32726Y26669D01*
X32842Y26379D01*
X32871Y26234D01*
X32901Y26205D01*
X33045Y25828D01*
X33393Y24958D01*
X33538Y24581D01*
X33567Y24552D01*
X30929Y24523D01*
X30784Y24900D01*
X30523Y25625D01*
X30291Y26321D01*
X26464Y26263D01*
X26000Y24987D01*
X25827Y24523D01*
X23304Y24552D01*
X23478Y24958D01*
X23623Y25335D01*
X23855Y25915D01*
X24029Y26379D01*
X24261Y26959D01*
X24435Y27422D01*
X24667Y28002D01*
X24841Y28466D01*
X25073Y29046D01*
X25247Y29510D01*
X25479Y30090D01*
X25653Y30553D01*
X25885Y31133D01*
X26059Y31597D01*
X26406Y32467D01*
X26580Y32931D01*
X26812Y33511D01*
X26986Y33974D01*
X27160Y34032D01*
X29885Y33974D01*
D02*
G37*
G36*
X92796Y34090D02*
X92970Y34032D01*
X93202Y33974D01*
X93753Y33771D01*
X94188Y33569D01*
X94913Y33076D01*
X95000Y32989D01*
X95116Y32931D01*
X95609Y32438D01*
X95666Y32322D01*
X95782Y32206D01*
X95840Y32090D01*
X95956Y31974D01*
X96420Y30988D01*
X96594Y30292D01*
X96652Y29887D01*
X96710Y28959D01*
X96652Y28785D01*
X96594Y28089D01*
X96536Y27915D01*
X96478Y27683D01*
X96362Y27393D01*
X96188Y26987D01*
X96130Y26872D01*
X95638Y26147D01*
X95493Y26002D01*
X95434Y25886D01*
X95174Y25625D01*
X95058Y25567D01*
X94826Y25335D01*
X94710Y25277D01*
X94304Y24987D01*
X93666Y24697D01*
X93086Y24523D01*
X92622Y24407D01*
X91869Y24349D01*
X90709Y24407D01*
X90535Y24465D01*
X90303Y24523D01*
X89752Y24726D01*
X89462Y24842D01*
X88882Y25190D01*
X88796Y25277D01*
X88679Y25335D01*
X88361Y25596D01*
X87839Y26118D01*
X87781Y26234D01*
X87665Y26350D01*
X87607Y26466D01*
X87375Y26814D01*
X87143Y27335D01*
X87027Y27625D01*
X86911Y28089D01*
X86795Y28901D01*
X86853Y30235D01*
X86911Y30408D01*
X86998Y30785D01*
X87172Y31249D01*
X87317Y31568D01*
X87375Y31684D01*
X87752Y32235D01*
X88042Y32583D01*
X88564Y33105D01*
X88679Y33163D01*
X88796Y33279D01*
X88911Y33337D01*
X89259Y33569D01*
X89781Y33801D01*
X90535Y34032D01*
X90941Y34090D01*
X91173Y34148D01*
X91869D01*
X92796Y34090D01*
D02*
G37*
G36*
X56441D02*
X56615Y34032D01*
X56847Y33974D01*
X57398Y33771D01*
X58297Y33279D01*
X58413Y33163D01*
X58529Y33105D01*
X58761Y32873D01*
X58877Y32815D01*
X59079Y32612D01*
X59137Y32496D01*
X59369Y32264D01*
X59427Y32148D01*
X59543Y32032D01*
X60065Y30930D01*
X60239Y30235D01*
X60297Y29655D01*
X60239Y28147D01*
X60181Y27973D01*
X60123Y27741D01*
X59920Y27191D01*
X59659Y26698D01*
X59282Y26147D01*
X58964Y25828D01*
X58906Y25712D01*
X58703Y25567D01*
X58471Y25335D01*
X58355Y25277D01*
X57949Y24987D01*
X57311Y24697D01*
X56731Y24523D01*
X56267Y24407D01*
X55514Y24349D01*
X54354Y24407D01*
X54180Y24465D01*
X53948Y24523D01*
X53223Y24784D01*
X52991Y24900D01*
X52962Y24929D01*
X52557Y25161D01*
X52035Y25567D01*
X51426Y26176D01*
X51368Y26292D01*
X51252Y26408D01*
X51194Y26524D01*
X50904Y26987D01*
X50759Y27364D01*
X50614Y27857D01*
X50498Y28321D01*
X50440Y29075D01*
X50498Y30292D01*
X50556Y30466D01*
X50643Y30785D01*
X50875Y31423D01*
X51223Y32003D01*
X51368Y32206D01*
X51629Y32525D01*
X51774Y32670D01*
X51832Y32786D01*
X52035Y32931D01*
X52267Y33163D01*
X52383Y33221D01*
X52499Y33337D01*
X52614Y33395D01*
X53716Y33916D01*
X54412Y34090D01*
X55166Y34148D01*
X56441Y34090D01*
D02*
G37*
%LPC*%
G36*
X28436Y31539D02*
X28291Y31220D01*
X28146Y30843D01*
X27450Y28930D01*
X27421Y28843D01*
Y28785D01*
X27305Y28495D01*
X27247Y28321D01*
X29537Y28292D01*
X29566Y28379D01*
X29451Y28669D01*
X29248Y29220D01*
X28958Y30032D01*
X28610Y31017D01*
X28436Y31539D01*
D02*
G37*
G36*
X91695Y32003D02*
X91115Y31945D01*
X90825Y31829D01*
X90303Y31539D01*
X89984Y31278D01*
X89723Y30959D01*
X89404Y30235D01*
X89346Y30003D01*
X89288Y29597D01*
X89346Y28379D01*
X89462Y28089D01*
X89810Y27451D01*
X89926Y27335D01*
X89984Y27220D01*
X90129Y27075D01*
X90245Y27016D01*
X90361Y26901D01*
X90477Y26843D01*
X90999Y26611D01*
X91695Y26495D01*
X92361Y26582D01*
X92825Y26756D01*
X93289Y27046D01*
X93637Y27393D01*
X93695Y27509D01*
X93927Y27857D01*
X93985Y28089D01*
X94101Y28379D01*
X94159Y28785D01*
X94217Y29423D01*
X94159Y29597D01*
X94101Y30176D01*
X93985Y30466D01*
X93695Y30988D01*
X93463Y31278D01*
X93434Y31307D01*
X93144Y31597D01*
X92506Y31887D01*
X92274Y31945D01*
X91695Y32003D01*
D02*
G37*
G36*
X55456D02*
X54760Y31945D01*
X54586Y31887D01*
X53832Y31481D01*
X53513Y31162D01*
X53455Y31046D01*
X53339Y30930D01*
X53281Y30814D01*
X53049Y30292D01*
X52933Y29829D01*
X52875Y29075D01*
X52933Y28901D01*
X52991Y28321D01*
X53165Y27915D01*
X53223Y27799D01*
X53600Y27248D01*
X53832Y27016D01*
X53948Y26959D01*
X54296Y26727D01*
X54702Y26611D01*
X54934Y26553D01*
X55340Y26495D01*
X56006Y26582D01*
X56470Y26756D01*
X56789Y26959D01*
X57108Y27220D01*
X57224Y27335D01*
X57282Y27451D01*
X57514Y27799D01*
X57688Y28205D01*
X57775Y28582D01*
X57833Y29220D01*
X57862Y29307D01*
X57804Y29481D01*
X57746Y30119D01*
X57688Y30292D01*
X57282Y31046D01*
X57021Y31365D01*
X56876Y31510D01*
X56847Y31539D01*
X56731Y31597D01*
X56093Y31887D01*
X55862Y31945D01*
X55456Y32003D01*
D02*
G37*
%LPD*%
M02*
