G04*
G04 #@! TF.GenerationSoftware,Altium Limited,Altium Designer,23.8.1 (32)*
G04*
G04 Layer_Color=8388736*
%FSLAX25Y25*%
%MOIN*%
G70*
G04*
G04 #@! TF.SameCoordinates,CE9800D7-1F77-4EEC-8F02-302C35C224A9*
G04*
G04*
G04 #@! TF.FilePolarity,Negative*
G04*
G01*
G75*
G36*
X277260Y84709D02*
X277550Y84535D01*
X277695Y84390D01*
X277753Y84158D01*
X277811Y83984D01*
X277695Y83636D01*
X277492Y83375D01*
X277202Y83259D01*
X276680Y83318D01*
X276390Y83607D01*
X275347Y83549D01*
X273752Y81955D01*
X277260Y81926D01*
X277550Y82216D01*
X277782Y82274D01*
X278246Y82216D01*
X278507Y82013D01*
X278623Y81723D01*
X278652Y81462D01*
X278594Y81230D01*
X278304Y80882D01*
X277840Y80766D01*
X277347Y81027D01*
X277318Y81114D01*
X270882Y81056D01*
X270708Y80882D01*
X270244Y80766D01*
X270070Y80824D01*
X269954Y80882D01*
X269693Y81085D01*
X269577Y81375D01*
X269635Y81897D01*
X269751Y82013D01*
X269780Y82100D01*
X269896Y82158D01*
X270186Y82274D01*
X270650Y82216D01*
X270766Y82100D01*
X270853Y82071D01*
X270911Y81955D01*
X272273Y81926D01*
X272332D01*
X272621Y81984D01*
X275057Y84419D01*
X276477Y84448D01*
X276506Y84535D01*
X276622Y84593D01*
X277028Y84767D01*
X277260Y84709D01*
D02*
G37*
G36*
X300395D02*
X300685Y84535D01*
X300801Y84419D01*
X302250Y84361D01*
X304686Y81926D01*
X306309Y81984D01*
X306541Y82216D01*
X306773Y82274D01*
X307237Y82216D01*
X307556Y81955D01*
X307672Y81549D01*
X307585Y81230D01*
X307295Y80882D01*
X307063Y80824D01*
X306889Y80766D01*
X306715Y80824D01*
X306425Y80998D01*
X306309Y81114D01*
X299873Y81056D01*
X299699Y80882D01*
X299235Y80766D01*
X298829Y80998D01*
X298626Y81201D01*
X298569Y81607D01*
X298626Y81839D01*
X298887Y82158D01*
X299177Y82274D01*
X299641Y82216D01*
X299989Y81984D01*
X303439Y82013D01*
X301845Y83607D01*
X300743Y83549D01*
X300627Y83375D01*
X300337Y83259D01*
X299815Y83318D01*
X299583Y83549D01*
X299554Y83578D01*
X299438Y83868D01*
X299496Y84332D01*
X299699Y84593D01*
X299815Y84651D01*
X299989Y84709D01*
X300221Y84767D01*
X300395Y84709D01*
D02*
G37*
G36*
X249544D02*
X249834Y84535D01*
X249950Y84419D01*
X254937Y84361D01*
X257372Y81926D01*
X259256Y81955D01*
X259314Y82071D01*
X259633Y82216D01*
X259865Y82274D01*
X260039Y82216D01*
X260329Y82042D01*
X260416Y81955D01*
X260474Y81839D01*
X260532Y81665D01*
X260561Y81462D01*
X260503Y81230D01*
X260300Y80911D01*
X259981Y80766D01*
X259459Y80824D01*
X259170Y81114D01*
X253023Y81056D01*
X251052Y79085D01*
X248153Y79027D01*
X247979Y78853D01*
X247515Y78737D01*
X247225Y78853D01*
X246964Y79056D01*
X246848Y79346D01*
X246906Y79868D01*
X247225Y80186D01*
X247457Y80244D01*
X247921Y80186D01*
X248240Y79926D01*
X250704Y79896D01*
X251197Y80389D01*
X251226Y80418D01*
X252733Y81926D01*
X256183Y81955D01*
X254531Y83607D01*
X249892Y83549D01*
X249776Y83375D01*
X249486Y83259D01*
X248965Y83318D01*
X248646Y83636D01*
X248588Y83868D01*
X248646Y84332D01*
X248849Y84593D01*
X248965Y84651D01*
X249138Y84709D01*
X249370Y84767D01*
X249544Y84709D01*
D02*
G37*
G36*
X278941Y80186D02*
X279260Y79926D01*
X279376Y79636D01*
X279318Y79172D01*
X278999Y78853D01*
X278594Y78737D01*
X278217Y78882D01*
X278014Y79085D01*
X276564Y79027D01*
X275202Y77664D01*
X278825Y77635D01*
X279115Y77925D01*
X279521Y77983D01*
X279811Y77867D01*
X280014Y77722D01*
X280072Y77606D01*
X280188Y77316D01*
X280130Y76910D01*
X279869Y76591D01*
X279579Y76476D01*
X279521D01*
X279115Y76534D01*
X278854Y76736D01*
X278825Y76823D01*
X277376Y76765D01*
X275057Y74446D01*
X273317Y74388D01*
X273085Y74156D01*
X272853Y74098D01*
X272390Y74156D01*
X272071Y74475D01*
X272013Y74707D01*
X272071Y75171D01*
X272332Y75490D01*
X272737Y75606D01*
X273056Y75519D01*
X273259Y75374D01*
X273375Y75258D01*
X274767Y75316D01*
X276245Y76794D01*
X272505Y76823D01*
X272273Y76591D01*
X271984Y76476D01*
X271520Y76534D01*
X271259Y76736D01*
X271201Y76852D01*
X271085Y77142D01*
X271143Y77490D01*
X271404Y77809D01*
X271810Y77983D01*
X272158Y77925D01*
X272273Y77809D01*
X272390Y77751D01*
X272447Y77635D01*
X274071Y77693D01*
X276274Y79896D01*
X278014Y79954D01*
X278188Y80128D01*
X278478Y80244D01*
X278941Y80186D01*
D02*
G37*
G36*
X254415D02*
X254734Y79926D01*
X257459Y79868D01*
X259691Y77635D01*
X260909Y77693D01*
X261083Y77867D01*
X261373Y77983D01*
X261779Y77925D01*
X262098Y77664D01*
X262213Y77374D01*
X262156Y76852D01*
X261837Y76534D01*
X261431Y76476D01*
X261141Y76534D01*
X260851Y76823D01*
X247283Y76765D01*
X247051Y76534D01*
X246645Y76476D01*
X246355Y76534D01*
X246036Y76852D01*
X245978Y77084D01*
X246036Y77606D01*
X246297Y77867D01*
X246587Y77983D01*
X246993Y77925D01*
X247312Y77664D01*
X258474Y77635D01*
X258503Y77664D01*
X258155Y78012D01*
X258126Y78041D01*
X257082Y79085D01*
X254647Y79027D01*
X254473Y78853D01*
X254067Y78737D01*
X253690Y78882D01*
X253603Y78969D01*
X253516Y78998D01*
X253458Y79114D01*
X253342Y79404D01*
X253400Y79809D01*
X253661Y80128D01*
X253951Y80244D01*
X254415Y80186D01*
D02*
G37*
G36*
X304715Y75519D02*
X304918Y75374D01*
X305063Y75229D01*
X305120Y74997D01*
X305063Y74475D01*
X304744Y74156D01*
X304512Y74098D01*
X304048Y74156D01*
X303758Y74446D01*
X297554Y74388D01*
X297322Y74156D01*
X297090Y74098D01*
X296626Y74156D01*
X296307Y74475D01*
X296249Y74707D01*
X296307Y75229D01*
X296568Y75490D01*
X296974Y75606D01*
X297293Y75519D01*
X297496Y75374D01*
X297612Y75258D01*
X302714D01*
X303816Y75316D01*
X303990Y75490D01*
X304396Y75606D01*
X304715Y75519D01*
D02*
G37*
G36*
X253052D02*
X253255Y75374D01*
X253342Y75287D01*
X253458Y74997D01*
X253400Y74533D01*
X253139Y74214D01*
X252849Y74098D01*
X252385Y74156D01*
X252270Y74272D01*
X252183Y74301D01*
X252125Y74417D01*
X249023Y74446D01*
X248008Y73431D01*
X247979Y73403D01*
X247544Y72968D01*
X247573Y72881D01*
X251284Y72939D01*
X251342Y73055D01*
X251458Y73112D01*
X251748Y73229D01*
X252212Y73171D01*
X252531Y72852D01*
X252589Y72620D01*
X252531Y72156D01*
X252327Y71895D01*
X252212Y71837D01*
X251922Y71721D01*
X251545Y71808D01*
X251342Y71953D01*
X251226Y72069D01*
X245428Y72011D01*
X245254Y71837D01*
X244848Y71721D01*
X244471Y71866D01*
X244384Y71953D01*
X244297Y71982D01*
X244239Y72098D01*
X244123Y72388D01*
X244181Y72794D01*
X244442Y73112D01*
X244732Y73229D01*
X245196Y73171D01*
X245515Y72910D01*
X246297Y72881D01*
X248675Y75258D01*
X252154Y75316D01*
X252327Y75490D01*
X252733Y75606D01*
X253052Y75519D01*
D02*
G37*
G36*
X303874Y73171D02*
X304193Y72852D01*
X304251Y72446D01*
X304193Y72156D01*
X303990Y71895D01*
X303874Y71837D01*
X303584Y71721D01*
X303236Y71779D01*
X302917Y72040D01*
X296742Y72069D01*
X296626Y71895D01*
X296510Y71837D01*
X296220Y71721D01*
X295872Y71779D01*
X295553Y72040D01*
X295438Y72330D01*
X295379Y72562D01*
X295438Y72736D01*
X295496Y72852D01*
X295698Y73112D01*
X295988Y73229D01*
X296510Y73171D01*
X296800Y72881D01*
X296858D01*
X302946Y72939D01*
X303004Y73055D01*
X303120Y73112D01*
X303410Y73229D01*
X303874Y73171D01*
D02*
G37*
G36*
X281435D02*
X281754Y72910D01*
X281870Y72504D01*
X281812Y72214D01*
X281551Y71895D01*
X281145Y71721D01*
X280826Y71808D01*
X280623Y71953D01*
X280507Y72069D01*
X274187Y72011D01*
X274013Y71837D01*
X273607Y71721D01*
X273288Y71808D01*
X273201Y71895D01*
X273085Y71953D01*
X272882Y72330D01*
X272940Y72794D01*
X273201Y73112D01*
X273491Y73229D01*
X273955Y73171D01*
X274071Y73055D01*
X274187Y72997D01*
X274303Y72881D01*
X278478D01*
X280507Y72939D01*
X280681Y73112D01*
X280971Y73229D01*
X281435Y73171D01*
D02*
G37*
G36*
X255632Y75548D02*
X255951Y75287D01*
X256560Y75258D01*
X256618D01*
X258706Y75200D01*
X261025Y72881D01*
X262764Y72939D01*
X262822Y73055D01*
X262938Y73112D01*
X263228Y73229D01*
X263692Y73171D01*
X264011Y72852D01*
X264069Y72446D01*
X264011Y72156D01*
X263808Y71895D01*
X263692Y71837D01*
X263402Y71721D01*
X263054Y71779D01*
X262735Y72040D01*
X260648Y72098D01*
X258300Y74446D01*
X255951Y74417D01*
X255893Y74301D01*
X255517Y74098D01*
X255053Y74156D01*
X254734Y74417D01*
X254618Y74707D01*
X254676Y75171D01*
X254792Y75287D01*
X254850Y75403D01*
X255111Y75548D01*
X255343Y75606D01*
X255632Y75548D01*
D02*
G37*
G36*
X282594Y69924D02*
X282710Y69808D01*
X282797Y69779D01*
X282855Y69663D01*
X282971Y69547D01*
X283029Y69141D01*
X282913Y68851D01*
X282797Y68735D01*
X282768Y68648D01*
X282652Y68590D01*
X282362Y68474D01*
X281957Y68532D01*
X281638Y68793D01*
X280275Y68822D01*
X280217D01*
X275405Y68764D01*
X275347Y68648D01*
X275231Y68590D01*
X274941Y68474D01*
X274535Y68532D01*
X274216Y68793D01*
X274100Y69083D01*
X274158Y69547D01*
X274419Y69866D01*
X274825Y69981D01*
X275173Y69924D01*
X275289Y69808D01*
X275405Y69750D01*
X275463Y69634D01*
X281667Y69692D01*
X281841Y69866D01*
X282131Y69981D01*
X282594Y69924D01*
D02*
G37*
G36*
X264910D02*
X265229Y69663D01*
X265345Y69373D01*
X265287Y68909D01*
X265026Y68590D01*
X264736Y68474D01*
X264272Y68532D01*
X263982Y68822D01*
X257981Y68793D01*
X257923Y68677D01*
X257546Y68474D01*
X257314D01*
X257024Y68590D01*
X256821Y68735D01*
X256763Y68851D01*
X256647Y69141D01*
X256705Y69547D01*
X256821Y69663D01*
X256879Y69779D01*
X257140Y69924D01*
X257372Y69981D01*
X257720Y69924D01*
X257836Y69808D01*
X257952Y69750D01*
X258010Y69634D01*
X264040Y69692D01*
X264272Y69924D01*
X264678Y69981D01*
X264910Y69924D01*
D02*
G37*
G36*
X250994D02*
X251313Y69605D01*
X251429Y69199D01*
X251284Y68822D01*
X250994Y68532D01*
X250588Y68474D01*
X250356Y68532D01*
X250037Y68793D01*
X244210Y68822D01*
X244094Y68648D01*
X243978Y68590D01*
X243688Y68474D01*
X243282Y68532D01*
X243253Y68561D01*
X243166Y68648D01*
X243050Y68706D01*
X242905Y68967D01*
X242847Y69199D01*
X242905Y69547D01*
X243021Y69663D01*
X243079Y69779D01*
X243340Y69924D01*
X243572Y69981D01*
X243920Y69924D01*
X244036Y69808D01*
X244152Y69750D01*
X244210Y69634D01*
X250066Y69692D01*
X250240Y69866D01*
X250530Y69981D01*
X250994Y69924D01*
D02*
G37*
G36*
X302598D02*
X302917Y69663D01*
X303033Y69373D01*
X302975Y68909D01*
X302714Y68590D01*
X302424Y68474D01*
X301960Y68532D01*
X301671Y68822D01*
X298539Y68764D01*
X297525Y67749D01*
X300975Y67720D01*
X301091Y67894D01*
X301381Y68010D01*
X301613Y68068D01*
X301990Y67923D01*
X302221Y67691D01*
X302279Y67459D01*
X302337Y67285D01*
X302279Y67111D01*
X302047Y66706D01*
X301729Y66561D01*
X301207Y66619D01*
X300917Y66908D01*
X294945Y66851D01*
X294771Y66676D01*
X294481Y66561D01*
X293959Y66619D01*
X293698Y66879D01*
X293582Y67169D01*
X293640Y67633D01*
X293959Y67952D01*
X294365Y68068D01*
X294742Y67923D01*
X294945Y67720D01*
X296394Y67778D01*
X298250Y69634D01*
X300105D01*
X301729Y69692D01*
X301960Y69924D01*
X302366Y69981D01*
X302598Y69924D01*
D02*
G37*
G36*
X250182Y68010D02*
X250298Y67952D01*
X250559Y67749D01*
X250675Y67459D01*
X250617Y66937D01*
X250501Y66821D01*
X250472Y66734D01*
X250356Y66676D01*
X250066Y66561D01*
X249602Y66619D01*
X249486Y66734D01*
X249399Y66764D01*
X249341Y66879D01*
X243514Y66908D01*
X243224Y66619D01*
X242992Y66561D01*
X242529Y66619D01*
X242210Y66879D01*
X242094Y67285D01*
X242181Y67604D01*
X242471Y67952D01*
X242702Y68010D01*
X242876Y68068D01*
X243050Y68010D01*
X243340Y67836D01*
X243456Y67720D01*
X249370Y67778D01*
X249486Y67894D01*
X249573Y67923D01*
X249602Y67952D01*
X249776Y68010D01*
X250008Y68068D01*
X250182Y68010D01*
D02*
G37*
G36*
X276158Y67778D02*
X276332Y67720D01*
X279173Y67662D01*
X281087Y65749D01*
X283058Y65807D01*
X283290Y66039D01*
X283522Y66097D01*
X283986Y66039D01*
X284305Y65720D01*
X284363Y65604D01*
Y65546D01*
X284305Y65024D01*
X284044Y64705D01*
X283638Y64589D01*
X283319Y64676D01*
X283116Y64821D01*
X283000Y64937D01*
X276854Y64879D01*
X276680Y64705D01*
X276274Y64589D01*
X275897Y64734D01*
X275607Y65024D01*
X275550Y65430D01*
X275607Y65662D01*
X275868Y65981D01*
X276158Y66097D01*
X276622Y66039D01*
X276941Y65778D01*
X279869Y65749D01*
X279898Y65778D01*
X278825Y66851D01*
X278594Y66908D01*
X276158Y66851D01*
X275926Y66619D01*
X275694Y66561D01*
X275231Y66619D01*
X275115Y66734D01*
X275028Y66764D01*
X274970Y66879D01*
X274854Y67169D01*
X274912Y67633D01*
X275173Y67952D01*
X275637Y68068D01*
X276158Y67778D01*
D02*
G37*
G36*
X266475Y66039D02*
X266794Y65720D01*
X266852Y65314D01*
X266794Y65024D01*
X266678Y64908D01*
X266620Y64792D01*
X266359Y64647D01*
X266127Y64589D01*
X265895Y64647D01*
X265605Y64821D01*
X265490Y64937D01*
X264678D01*
X259372Y64908D01*
X259343Y64821D01*
X259227Y64763D01*
X258822Y64589D01*
X258503Y64676D01*
X258300Y64821D01*
X258155Y64966D01*
X258039Y65372D01*
X258126Y65691D01*
X258213Y65778D01*
X258271Y65894D01*
X258358Y65981D01*
X258648Y66097D01*
X259170Y66039D01*
X259459Y65749D01*
X265518Y65778D01*
X265577Y65894D01*
X265953Y66097D01*
X266475Y66039D01*
D02*
G37*
G36*
X249602D02*
X249921Y65720D01*
X249979Y65314D01*
X249921Y65024D01*
X249805Y64908D01*
X249747Y64792D01*
X249486Y64647D01*
X249138Y64589D01*
X248733Y64821D01*
X248617Y64937D01*
X242673Y64908D01*
X242616Y64792D01*
X242297Y64647D01*
X242065Y64589D01*
X241688Y64734D01*
X241456Y64966D01*
X241340Y65372D01*
X241427Y65691D01*
X241514Y65778D01*
X241572Y65894D01*
X241659Y65981D01*
X241949Y66097D01*
X242471Y66039D01*
X242760Y65749D01*
X248617Y65807D01*
X248791Y65981D01*
X248849D01*
X249138Y66097D01*
X249602Y66039D01*
D02*
G37*
G36*
X300743Y64937D02*
X301062Y64618D01*
X301178Y64328D01*
X301120Y63922D01*
X301004Y63806D01*
X300946Y63690D01*
X300685Y63546D01*
X300453Y63487D01*
X300105Y63546D01*
X299786Y63806D01*
X296220Y63835D01*
X294858Y62473D01*
X298945Y62444D01*
X299177Y62676D01*
X299467Y62792D01*
X299873Y62734D01*
X300192Y62473D01*
X300308Y62183D01*
X300250Y61661D01*
X299989Y61400D01*
X299699Y61284D01*
X299293Y61342D01*
X298974Y61603D01*
X297844Y61632D01*
X295640Y59429D01*
X292277Y59371D01*
X292219Y59255D01*
X292104Y59197D01*
X291814Y59081D01*
X291408Y59139D01*
X291089Y59400D01*
X290973Y59806D01*
X291031Y60154D01*
X291292Y60472D01*
X291582Y60588D01*
X292045Y60530D01*
X292161Y60414D01*
X292277Y60356D01*
X292335Y60240D01*
X295351Y60298D01*
X296655Y61603D01*
X293147Y61632D01*
X292915Y61400D01*
X292625Y61284D01*
X292161Y61342D01*
X291843Y61661D01*
X291727Y62067D01*
X291872Y62444D01*
X292161Y62734D01*
X292567Y62792D01*
X292799Y62734D01*
X293118Y62473D01*
X293669Y62444D01*
X295872Y64647D01*
X298192D01*
X299844Y64676D01*
X299902Y64792D01*
X300163Y64937D01*
X300395Y64995D01*
X300743Y64937D01*
D02*
G37*
G36*
X285146Y62734D02*
X285465Y62415D01*
X285580Y62009D01*
X285436Y61632D01*
X285146Y61342D01*
X284740Y61284D01*
X284508Y61342D01*
X284189Y61603D01*
X278188Y61632D01*
X277956Y61400D01*
X277666Y61284D01*
X277260Y61342D01*
X276941Y61603D01*
X276912Y61632D01*
X276825Y61893D01*
X276883Y62415D01*
X277144Y62676D01*
X277434Y62792D01*
X277840Y62734D01*
X278159Y62473D01*
X284160Y62444D01*
X284392Y62676D01*
X284682Y62792D01*
X285146Y62734D01*
D02*
G37*
G36*
X248327D02*
X248646Y62473D01*
X248762Y62183D01*
X248704Y61719D01*
X248443Y61400D01*
X248153Y61284D01*
X247689Y61342D01*
X247399Y61632D01*
X245254Y61574D01*
X243108Y59429D01*
X240557Y59371D01*
X240325Y59139D01*
X240093Y59081D01*
X239629Y59139D01*
X239369Y59342D01*
X239311Y59458D01*
X239194Y59748D01*
X239252Y60096D01*
X239513Y60414D01*
X239919Y60588D01*
X240238Y60501D01*
X240441Y60356D01*
X240557Y60240D01*
X242818Y60298D01*
X244123Y61603D01*
X241427Y61632D01*
X241311Y61458D01*
X241195Y61400D01*
X240905Y61284D01*
X240499Y61342D01*
X240383Y61458D01*
X240267Y61516D01*
X240122Y61777D01*
X240064Y62009D01*
X240122Y62357D01*
X240238Y62473D01*
X240296Y62589D01*
X240557Y62734D01*
X240789Y62792D01*
X241137Y62734D01*
X241253Y62618D01*
X241369Y62560D01*
X241427Y62444D01*
X244442D01*
X247457Y62502D01*
X247689Y62734D01*
X248095Y62792D01*
X248327Y62734D01*
D02*
G37*
G36*
X285899Y60530D02*
X286218Y60269D01*
X286334Y59979D01*
X286276Y59516D01*
X286015Y59197D01*
X285725Y59081D01*
X285262Y59139D01*
X284972Y59429D01*
X280333D01*
X278941Y59371D01*
X278710Y59139D01*
X278304Y59081D01*
X278072Y59139D01*
X277753Y59400D01*
X277637Y59690D01*
X277695Y60154D01*
X277956Y60472D01*
X278246Y60588D01*
X278710Y60530D01*
X278999Y60240D01*
X285030Y60298D01*
X285262Y60530D01*
X285667Y60588D01*
X285899Y60530D01*
D02*
G37*
G36*
X260329Y62734D02*
X260445Y62618D01*
X260561Y62560D01*
X260619Y62444D01*
X264852Y62386D01*
X266997Y60240D01*
X267693Y60298D01*
X267867Y60472D01*
X268157Y60588D01*
X268563Y60530D01*
X268882Y60269D01*
X268998Y59979D01*
X268939Y59458D01*
X268679Y59197D01*
X268389Y59081D01*
X267983Y59139D01*
X267664Y59400D01*
X264678Y59429D01*
X264649Y59400D01*
X264910Y59081D01*
X265953Y58037D01*
X268563Y58095D01*
X268679Y58211D01*
X268794Y58269D01*
X268969Y58327D01*
X269200Y58385D01*
X269577Y58240D01*
X269751Y58066D01*
X269867Y57776D01*
X269809Y57254D01*
X269693Y57138D01*
X269664Y57051D01*
X269548Y56993D01*
X269258Y56877D01*
X268794Y56936D01*
X268505Y57225D01*
X266591D01*
X265547Y57283D01*
X264243Y58588D01*
X264185Y58704D01*
X263460Y59429D01*
X261373Y59371D01*
X261141Y59139D01*
X260735Y59081D01*
X260503Y59139D01*
X260184Y59400D01*
X260068Y59690D01*
X260126Y60154D01*
X260387Y60472D01*
X260677Y60588D01*
X261141Y60530D01*
X261431Y60240D01*
X265866Y60269D01*
X264504Y61632D01*
X260590Y61603D01*
X260532Y61487D01*
X260155Y61284D01*
X259691Y61342D01*
X259575Y61458D01*
X259459Y61516D01*
X259314Y61777D01*
X259256Y62009D01*
X259314Y62357D01*
X259430Y62473D01*
X259488Y62589D01*
X259749Y62734D01*
X259981Y62792D01*
X260329Y62734D01*
D02*
G37*
G36*
X246471Y57631D02*
X246790Y57370D01*
X246906Y56964D01*
X246848Y56674D01*
X246587Y56356D01*
X246181Y56182D01*
X245891Y56240D01*
X245573Y56501D01*
X239455Y56530D01*
X239224Y56298D01*
X238934Y56182D01*
X238586Y56240D01*
X238267Y56501D01*
X238151Y56616D01*
X238093Y57022D01*
X238238Y57399D01*
X238412Y57573D01*
X238702Y57689D01*
X239165Y57631D01*
X239484Y57370D01*
X243050Y57341D01*
X243108D01*
X245544Y57399D01*
X245718Y57573D01*
X246007Y57689D01*
X246471Y57631D01*
D02*
G37*
G36*
X297902Y57689D02*
X298192Y57515D01*
X298337Y57370D01*
X298453Y56964D01*
X298366Y56646D01*
X298221Y56443D01*
X298134Y56356D01*
X297844Y56240D01*
X297322Y56298D01*
X297032Y56588D01*
X294655Y56530D01*
X292712Y54587D01*
X292683Y54558D01*
X291872Y53746D01*
X290306Y53688D01*
X290132Y53514D01*
X289842Y53399D01*
X289436Y53456D01*
X289117Y53717D01*
X289001Y54007D01*
X289059Y54471D01*
X289320Y54790D01*
X289610Y54906D01*
X290074Y54848D01*
X290190Y54732D01*
X290277Y54703D01*
X290335Y54587D01*
X291524Y54558D01*
X294365Y57399D01*
X297148Y57457D01*
X297322Y57631D01*
X297728Y57747D01*
X297902Y57689D01*
D02*
G37*
G36*
X270824Y54848D02*
X270940Y54732D01*
X271056Y54674D01*
X271201Y54355D01*
X271259Y54123D01*
X271114Y53746D01*
X270882Y53514D01*
X270592Y53399D01*
X270186Y53456D01*
X270070Y53572D01*
X269954Y53630D01*
X269838Y53746D01*
X265577Y53717D01*
X267635Y51659D01*
X272216Y51717D01*
X272447Y51949D01*
X272679Y52007D01*
X273143Y51949D01*
X273259Y51833D01*
X273346Y51804D01*
X273404Y51688D01*
X273520Y51398D01*
X273462Y50934D01*
X273404Y50818D01*
X273375Y50789D01*
X273201Y50615D01*
X272795Y50499D01*
X272563Y50557D01*
X272447Y50615D01*
X272099Y50847D01*
X267229Y50905D01*
X264388Y53746D01*
X263460Y53688D01*
X263286Y53514D01*
X262880Y53399D01*
X262590Y53456D01*
X262271Y53717D01*
X262156Y54007D01*
X262098Y54181D01*
X262156Y54355D01*
X262358Y54732D01*
X262474Y54790D01*
X262764Y54906D01*
X263170Y54848D01*
X263489Y54587D01*
X269838Y54558D01*
X270070Y54790D01*
X270360Y54906D01*
X270824Y54848D01*
D02*
G37*
G36*
X280014Y57486D02*
X280043Y57399D01*
X283000Y57341D01*
X285783Y54558D01*
X287001Y54616D01*
X287175Y54790D01*
X287465Y54906D01*
X287929Y54848D01*
X288045Y54732D01*
X288161Y54674D01*
X288306Y54413D01*
X288364Y54181D01*
X288277Y53862D01*
X288132Y53659D01*
X287987Y53514D01*
X287697Y53399D01*
X287291Y53456D01*
X287175Y53572D01*
X287059Y53630D01*
X287001Y53746D01*
X285378Y53804D01*
X282594Y56588D01*
X280043Y56530D01*
X279811Y56298D01*
X279579Y56240D01*
X279231D01*
X279202Y56269D01*
X278884Y56472D01*
X278738Y56791D01*
X278710Y56993D01*
X278767Y57283D01*
X278854Y57370D01*
X278912Y57486D01*
X279057Y57631D01*
X279521Y57747D01*
X280014Y57486D01*
D02*
G37*
G36*
X296945Y54877D02*
X297148Y54732D01*
X297293Y54587D01*
X297409Y54181D01*
X297322Y53862D01*
X297032Y53514D01*
X296800Y53456D01*
X296597Y53427D01*
X296365Y53486D01*
X296162Y53630D01*
X296046Y53746D01*
X295119Y53688D01*
X293118Y51688D01*
X294887Y51659D01*
X295177Y51949D01*
X295409Y52007D01*
X295872Y51949D01*
X296191Y51688D01*
X296307Y51282D01*
X296249Y50992D01*
X295988Y50673D01*
X295582Y50499D01*
X295351Y50557D01*
X295061Y50731D01*
X294945Y50847D01*
X276738Y50789D01*
X274419Y48470D01*
X265345Y48441D01*
X265287Y48325D01*
X264968Y48180D01*
X264736Y48122D01*
X264359Y48267D01*
X264127Y48499D01*
X264069Y48731D01*
X264011Y48905D01*
X264069Y49079D01*
X264301Y49485D01*
X264620Y49630D01*
X265142Y49572D01*
X265432Y49282D01*
X274129Y49340D01*
X276448Y51659D01*
X284015Y51688D01*
X281957Y53746D01*
X281029Y53688D01*
X280855Y53514D01*
X280623Y53456D01*
X280478Y53427D01*
X280188Y53486D01*
X280101Y53572D01*
X279985Y53630D01*
X279898Y53717D01*
X279840Y53833D01*
X279782Y54007D01*
X279724Y54239D01*
X279782Y54413D01*
X279840Y54529D01*
X280043Y54790D01*
X280159Y54848D01*
X280333Y54906D01*
X280536Y54935D01*
X280768Y54877D01*
X280971Y54732D01*
X281087Y54616D01*
X282304Y54558D01*
X285204Y51659D01*
X286073D01*
X291987Y51717D01*
X294887Y54616D01*
X296104Y54674D01*
X296278Y54848D01*
X296510Y54906D01*
X296655Y54935D01*
X296945Y54877D01*
D02*
G37*
G36*
X238151Y54819D02*
X238412Y54558D01*
X241137Y54500D01*
X243108Y52529D01*
X243804Y52587D01*
X243978Y52761D01*
X244036D01*
X244326Y52877D01*
X244674Y52819D01*
X244993Y52558D01*
X245109Y52268D01*
X245051Y51804D01*
X244790Y51485D01*
X244500Y51369D01*
X244094Y51427D01*
X243775Y51688D01*
X239513Y51717D01*
X238180Y50383D01*
X237020Y50326D01*
X236846Y50151D01*
X236440Y50036D01*
X236064Y50181D01*
X235831Y50412D01*
X235716Y50702D01*
X235773Y51108D01*
X236034Y51427D01*
X236324Y51543D01*
X236788Y51485D01*
X237107Y51224D01*
X237832Y51195D01*
X239165Y52529D01*
X241920Y52558D01*
X240731Y53746D01*
X238354Y53688D01*
X238180Y53514D01*
X237890Y53399D01*
X237484Y53456D01*
X237165Y53717D01*
X237049Y54007D01*
X237107Y54529D01*
X237426Y54848D01*
X237832Y54906D01*
X238151Y54819D01*
D02*
G37*
G36*
X243108Y48354D02*
X243427Y48035D01*
X243485Y47629D01*
X243427Y47339D01*
X243311Y47223D01*
X243282Y47136D01*
X243166Y47078D01*
X242760Y46905D01*
X242529Y46962D01*
X242239Y47136D01*
X242123Y47252D01*
X239513Y47194D01*
X237194Y44875D01*
X234904Y44846D01*
X234875Y44759D01*
X234759Y44701D01*
X234353Y44527D01*
X234121Y44585D01*
X233831Y44759D01*
X233686Y44904D01*
X233570Y45368D01*
X233628Y45542D01*
X233802Y45832D01*
X233889Y45919D01*
X234179Y46035D01*
X234701Y45977D01*
X234933Y45745D01*
X236962Y45803D01*
X238383Y47223D01*
X235860Y47252D01*
X235629Y47020D01*
X235397Y46962D01*
X235223Y46905D01*
X235049Y46962D01*
X234759Y47136D01*
X234614Y47281D01*
X234498Y47687D01*
X234585Y48006D01*
X234730Y48209D01*
X234817Y48296D01*
X235107Y48412D01*
X235629Y48354D01*
X235860Y48122D01*
X236208D01*
X242181Y48180D01*
X242297Y48296D01*
X242586Y48412D01*
X243108Y48354D01*
D02*
G37*
G36*
X278594Y49572D02*
X278710Y49456D01*
X278825Y49398D01*
X278941Y49282D01*
X285610Y49224D01*
X286711Y48122D01*
X293669Y48180D01*
X293843Y48354D01*
X294075Y48412D01*
X294539Y48354D01*
X294800Y48151D01*
X294858Y48035D01*
X294916Y47861D01*
X294974Y47629D01*
X294916Y47455D01*
X294742Y47165D01*
X294597Y47020D01*
X294133Y46905D01*
X293640Y47165D01*
X293611Y47252D01*
X286363Y47310D01*
X285204Y48470D01*
X278825Y48412D01*
X278652Y48238D01*
X278246Y48122D01*
X277927Y48209D01*
X277840Y48296D01*
X277724Y48354D01*
X277637Y48441D01*
X277521Y48731D01*
X277579Y49253D01*
X277898Y49572D01*
X277985Y49601D01*
X278014Y49630D01*
X278594Y49572D01*
D02*
G37*
G36*
X293669Y45977D02*
X293988Y45658D01*
X294046Y45426D01*
X293988Y44962D01*
X293872Y44846D01*
X293814Y44730D01*
X293495Y44585D01*
X293263Y44527D01*
X293089Y44585D01*
X292799Y44759D01*
X292683Y44875D01*
X271752D01*
X266649Y44817D01*
X266475Y44643D01*
X266011Y44527D01*
X265518Y44788D01*
X265461Y44904D01*
X265345Y45194D01*
X265403Y45658D01*
X265722Y45977D01*
X265953Y46035D01*
X266417Y45977D01*
X266765Y45745D01*
X292741Y45803D01*
X292857Y45919D01*
X293147Y46035D01*
X293669Y45977D01*
D02*
G37*
G36*
X281551Y34090D02*
X281725Y34032D01*
X282072Y33974D01*
X282362Y33858D01*
X282739Y33713D01*
X283203Y33481D01*
X283174Y31133D01*
X282420Y31655D01*
X281899Y31887D01*
X281493Y32003D01*
X281261Y32061D01*
X280507Y32119D01*
X280043Y32003D01*
X279724Y31742D01*
X279608Y31336D01*
X279666Y31104D01*
X279724Y30988D01*
X279811Y30843D01*
X279927Y30785D01*
X280565Y30496D01*
X281377Y30264D01*
X281928Y30061D01*
X282218Y29945D01*
X282681Y29655D01*
X282884Y29510D01*
X283203Y29249D01*
X283261Y29133D01*
X283493Y28785D01*
X283638Y28408D01*
X283754Y27828D01*
X283783Y27046D01*
Y26987D01*
X283638Y26321D01*
X283522Y26031D01*
X283232Y25567D01*
X283087Y25364D01*
X282942Y25219D01*
X282826Y25161D01*
X282710Y25045D01*
X282594Y24987D01*
X282189Y24755D01*
X281899Y24639D01*
X281319Y24465D01*
X280507Y24349D01*
X279115Y24407D01*
X278941Y24465D01*
X278565Y24552D01*
X277927Y24784D01*
X277463Y25016D01*
X277492Y27364D01*
X277898Y27075D01*
X278014Y27016D01*
X278884Y26611D01*
X279289Y26495D01*
X279695Y26437D01*
X280217Y26379D01*
X280391Y26437D01*
X280913Y26495D01*
X281290Y26756D01*
X281406Y27046D01*
X281348Y27567D01*
X281203Y27770D01*
X281087Y27828D01*
X280565Y28060D01*
X279753Y28292D01*
X279029Y28553D01*
X278246Y28988D01*
X277753Y29481D01*
X277695Y29597D01*
X277405Y30235D01*
X277289Y30930D01*
X277347Y31974D01*
X277405Y32148D01*
X277550Y32525D01*
X277840Y32989D01*
X277985Y33134D01*
X278014Y33221D01*
X278130Y33279D01*
X278362Y33511D01*
X278478Y33569D01*
X278825Y33801D01*
X279115Y33916D01*
X279521Y34032D01*
X279753Y34090D01*
X280333Y34148D01*
X281551Y34090D01*
D02*
G37*
G36*
X249428D02*
X249602Y34032D01*
X249979Y33945D01*
X250617Y33713D01*
X251110Y33453D01*
X251139Y31046D01*
X251052Y31017D01*
X250820Y31249D01*
X250704Y31307D01*
X250588Y31423D01*
X249834Y31771D01*
X249428Y31887D01*
X249023Y31945D01*
X248791Y32003D01*
X247573Y31945D01*
X247283Y31829D01*
X246761Y31539D01*
X246442Y31278D01*
X246036Y30698D01*
X245805Y29945D01*
X245746Y29365D01*
X245805Y28437D01*
X245863Y28263D01*
X246007Y27886D01*
X246355Y27306D01*
X246761Y26901D01*
X246877Y26843D01*
X247225Y26611D01*
X247544Y26524D01*
X247776Y26466D01*
X249023Y26437D01*
X249080Y26495D01*
X249138D01*
X249197Y28988D01*
X251487Y28959D01*
X251429Y25016D01*
X250762Y24697D01*
X250356Y24581D01*
X250124Y24523D01*
X249428Y24407D01*
X248675Y24349D01*
X247167Y24407D01*
X246993Y24465D01*
X246616Y24552D01*
X246297Y24639D01*
X246007Y24755D01*
X245254Y25161D01*
X244732Y25567D01*
X244239Y26060D01*
X244181Y26176D01*
X244065Y26292D01*
X244007Y26408D01*
X243543Y27393D01*
X243369Y28089D01*
X243253Y29249D01*
X243340Y30148D01*
X243398Y30496D01*
X243456Y30727D01*
X243543Y31046D01*
X243717Y31452D01*
X244065Y32090D01*
X244471Y32612D01*
X245022Y33163D01*
X245138Y33221D01*
X245544Y33511D01*
X246297Y33858D01*
X246529Y33916D01*
X246935Y34032D01*
X247747Y34148D01*
X249428Y34090D01*
D02*
G37*
G36*
X308860Y33974D02*
X308889Y24552D01*
X306599Y24523D01*
X306512Y24610D01*
X306454Y24726D01*
X305874Y25538D01*
X305816Y25654D01*
X305700Y25770D01*
X305642Y25886D01*
X305352Y26292D01*
X305294Y26408D01*
X305178Y26524D01*
X305120Y26640D01*
X304541Y27451D01*
X304483Y27567D01*
X303613Y28785D01*
X303555Y28901D01*
X302975Y29713D01*
X302917Y29829D01*
X302801Y29945D01*
X302743Y30061D01*
X302714Y30090D01*
X302656Y24523D01*
X300366Y24552D01*
X300395Y34032D01*
X302772Y33974D01*
X302859Y33887D01*
X302917Y33771D01*
X303207Y33366D01*
X303265Y33250D01*
X303555Y32844D01*
X303787Y32438D01*
X304077Y32032D01*
X304135Y31916D01*
X304425Y31510D01*
X304483Y31394D01*
X304773Y30988D01*
X304831Y30872D01*
X305613Y29684D01*
X306077Y28988D01*
X306367Y28524D01*
X306512Y28321D01*
X306541Y28292D01*
X306570Y29829D01*
Y29887D01*
X306599Y34032D01*
X308860Y33974D01*
D02*
G37*
G36*
X272534Y33830D02*
X272360Y33424D01*
X272216Y33047D01*
X271984Y32409D01*
X271462Y31017D01*
X271230Y30380D01*
X270534Y28524D01*
X270302Y27886D01*
X269606Y26031D01*
X269374Y25393D01*
X269200Y24929D01*
X269056Y24552D01*
X266127Y24523D01*
X265258Y26843D01*
X265026Y27480D01*
X264504Y28872D01*
X264272Y29510D01*
X263576Y31365D01*
X263344Y32003D01*
X262996Y32931D01*
X262880Y33279D01*
X262851Y33308D01*
X262648Y33858D01*
X262619Y33945D01*
X262706Y34032D01*
X265200Y33974D01*
X265490Y33163D01*
X267171Y28292D01*
X267606Y27046D01*
X267635Y27016D01*
X268273Y28872D01*
X269954Y33801D01*
X270041Y34003D01*
X272505Y34032D01*
X272534Y33830D01*
D02*
G37*
G36*
X287552Y33945D02*
X287523Y24523D01*
X285117Y24552D01*
Y25712D01*
Y25770D01*
X285175Y34003D01*
X287465Y34032D01*
X287552Y33945D01*
D02*
G37*
G36*
X275897Y34003D02*
Y30119D01*
Y30061D01*
X275868Y24523D01*
X273520Y24552D01*
X273549Y34032D01*
X275897Y34003D01*
D02*
G37*
G36*
X239137Y33945D02*
X239165Y26611D01*
X239977D01*
X242731Y26582D01*
X242702Y24523D01*
X236701Y24552D01*
X236759Y34003D01*
X239050Y34032D01*
X239137Y33945D01*
D02*
G37*
G36*
X232092Y33974D02*
X232208Y33685D01*
X232382Y33221D01*
X232613Y32641D01*
X232787Y32177D01*
X233019Y31597D01*
X233193Y31133D01*
X233425Y30553D01*
X233599Y30090D01*
X233831Y29510D01*
X234005Y29046D01*
X234353Y28176D01*
X234527Y27712D01*
X234759Y27132D01*
X234933Y26669D01*
X235049Y26379D01*
X235078Y26234D01*
X235107Y26205D01*
X235252Y25828D01*
X235600Y24958D01*
X235745Y24581D01*
X235773Y24552D01*
X233135Y24523D01*
X232990Y24900D01*
X232730Y25625D01*
X232498Y26321D01*
X228671Y26263D01*
X228207Y24987D01*
X228033Y24523D01*
X225511Y24552D01*
X225685Y24958D01*
X225830Y25335D01*
X226062Y25915D01*
X226235Y26379D01*
X226467Y26959D01*
X226641Y27422D01*
X226873Y28002D01*
X227047Y28466D01*
X227279Y29046D01*
X227453Y29510D01*
X227685Y30090D01*
X227859Y30553D01*
X228091Y31133D01*
X228265Y31597D01*
X228613Y32467D01*
X228787Y32931D01*
X229019Y33511D01*
X229192Y33974D01*
X229366Y34032D01*
X232092Y33974D01*
D02*
G37*
G36*
X295003Y34090D02*
X295177Y34032D01*
X295409Y33974D01*
X295959Y33771D01*
X296394Y33569D01*
X297119Y33076D01*
X297206Y32989D01*
X297322Y32931D01*
X297815Y32438D01*
X297873Y32322D01*
X297989Y32206D01*
X298047Y32090D01*
X298163Y31974D01*
X298626Y30988D01*
X298800Y30292D01*
X298858Y29887D01*
X298916Y28959D01*
X298858Y28785D01*
X298800Y28089D01*
X298743Y27915D01*
X298685Y27683D01*
X298569Y27393D01*
X298395Y26987D01*
X298337Y26872D01*
X297844Y26147D01*
X297699Y26002D01*
X297641Y25886D01*
X297380Y25625D01*
X297264Y25567D01*
X297032Y25335D01*
X296916Y25277D01*
X296510Y24987D01*
X295872Y24697D01*
X295292Y24523D01*
X294829Y24407D01*
X294075Y24349D01*
X292915Y24407D01*
X292741Y24465D01*
X292509Y24523D01*
X291958Y24726D01*
X291669Y24842D01*
X291089Y25190D01*
X291002Y25277D01*
X290886Y25335D01*
X290567Y25596D01*
X290045Y26118D01*
X289987Y26234D01*
X289871Y26350D01*
X289813Y26466D01*
X289581Y26814D01*
X289349Y27335D01*
X289233Y27625D01*
X289117Y28089D01*
X289001Y28901D01*
X289059Y30235D01*
X289117Y30408D01*
X289204Y30785D01*
X289378Y31249D01*
X289523Y31568D01*
X289581Y31684D01*
X289958Y32235D01*
X290248Y32583D01*
X290770Y33105D01*
X290886Y33163D01*
X291002Y33279D01*
X291118Y33337D01*
X291466Y33569D01*
X291987Y33801D01*
X292741Y34032D01*
X293147Y34090D01*
X293379Y34148D01*
X294075D01*
X295003Y34090D01*
D02*
G37*
G36*
X258648D02*
X258822Y34032D01*
X259053Y33974D01*
X259604Y33771D01*
X260503Y33279D01*
X260619Y33163D01*
X260735Y33105D01*
X260967Y32873D01*
X261083Y32815D01*
X261286Y32612D01*
X261344Y32496D01*
X261576Y32264D01*
X261634Y32148D01*
X261750Y32032D01*
X262271Y30930D01*
X262445Y30235D01*
X262504Y29655D01*
X262445Y28147D01*
X262387Y27973D01*
X262330Y27741D01*
X262127Y27191D01*
X261866Y26698D01*
X261489Y26147D01*
X261170Y25828D01*
X261112Y25712D01*
X260909Y25567D01*
X260677Y25335D01*
X260561Y25277D01*
X260155Y24987D01*
X259517Y24697D01*
X258938Y24523D01*
X258474Y24407D01*
X257720Y24349D01*
X256560Y24407D01*
X256386Y24465D01*
X256154Y24523D01*
X255430Y24784D01*
X255198Y24900D01*
X255169Y24929D01*
X254763Y25161D01*
X254241Y25567D01*
X253632Y26176D01*
X253574Y26292D01*
X253458Y26408D01*
X253400Y26524D01*
X253110Y26987D01*
X252965Y27364D01*
X252820Y27857D01*
X252704Y28321D01*
X252646Y29075D01*
X252704Y30292D01*
X252762Y30466D01*
X252849Y30785D01*
X253081Y31423D01*
X253429Y32003D01*
X253574Y32206D01*
X253835Y32525D01*
X253980Y32670D01*
X254038Y32786D01*
X254241Y32931D01*
X254473Y33163D01*
X254589Y33221D01*
X254705Y33337D01*
X254821Y33395D01*
X255922Y33916D01*
X256618Y34090D01*
X257372Y34148D01*
X258648Y34090D01*
D02*
G37*
%LPC*%
G36*
X230642Y31539D02*
X230497Y31220D01*
X230352Y30843D01*
X229656Y28930D01*
X229627Y28843D01*
Y28785D01*
X229511Y28495D01*
X229453Y28321D01*
X231744Y28292D01*
X231773Y28379D01*
X231657Y28669D01*
X231454Y29220D01*
X231164Y30032D01*
X230816Y31017D01*
X230642Y31539D01*
D02*
G37*
G36*
X293901Y32003D02*
X293321Y31945D01*
X293031Y31829D01*
X292509Y31539D01*
X292191Y31278D01*
X291930Y30959D01*
X291611Y30235D01*
X291553Y30003D01*
X291495Y29597D01*
X291553Y28379D01*
X291669Y28089D01*
X292017Y27451D01*
X292132Y27335D01*
X292191Y27220D01*
X292335Y27075D01*
X292451Y27016D01*
X292567Y26901D01*
X292683Y26843D01*
X293205Y26611D01*
X293901Y26495D01*
X294568Y26582D01*
X295032Y26756D01*
X295496Y27046D01*
X295843Y27393D01*
X295901Y27509D01*
X296133Y27857D01*
X296191Y28089D01*
X296307Y28379D01*
X296365Y28785D01*
X296423Y29423D01*
X296365Y29597D01*
X296307Y30176D01*
X296191Y30466D01*
X295901Y30988D01*
X295669Y31278D01*
X295640Y31307D01*
X295351Y31597D01*
X294713Y31887D01*
X294481Y31945D01*
X293901Y32003D01*
D02*
G37*
G36*
X257662D02*
X256966Y31945D01*
X256792Y31887D01*
X256038Y31481D01*
X255719Y31162D01*
X255662Y31046D01*
X255546Y30930D01*
X255488Y30814D01*
X255256Y30292D01*
X255140Y29829D01*
X255082Y29075D01*
X255140Y28901D01*
X255198Y28321D01*
X255372Y27915D01*
X255430Y27799D01*
X255806Y27248D01*
X256038Y27016D01*
X256154Y26959D01*
X256502Y26727D01*
X256908Y26611D01*
X257140Y26553D01*
X257546Y26495D01*
X258213Y26582D01*
X258677Y26756D01*
X258996Y26959D01*
X259314Y27220D01*
X259430Y27335D01*
X259488Y27451D01*
X259720Y27799D01*
X259894Y28205D01*
X259981Y28582D01*
X260039Y29220D01*
X260068Y29307D01*
X260010Y29481D01*
X259952Y30119D01*
X259894Y30292D01*
X259488Y31046D01*
X259227Y31365D01*
X259083Y31510D01*
X259053Y31539D01*
X258938Y31597D01*
X258300Y31887D01*
X258068Y31945D01*
X257662Y32003D01*
D02*
G37*
%LPD*%
M02*
